M48
;Layer_Color=9474304
;FILE_FORMAT=4:4
METRIC,LZ
;TYPE=PLATED
T1F00S00C0.3500
T5F00S00C0.9000
T6F00S00C1.0200
T7F00S00C1.6000
T8F00S00C2.5000
;TYPE=NON_PLATED
T9F00S00C0.5000
T10F00S00C2.7000
T11F00S00C3.2500
%
T01
X00537841Y-00321497
X00532181Y-00311301
X00526091Y-00341848
X00517181Y-00337281
X00498602Y-0034711
X00478888Y-00329607
X00453009Y-00318478
X00445465Y-00302845
X00434504Y-00337931
X00411381Y-00324581
X00405323Y-00346024
X00457285Y-00376024
X00346867Y-00312274
X000726Y-00393
X000446Y-00398
X000338Y-004269
Y-004369
Y-00446899
X000046Y-004385
X-000179Y-00443
X-000719Y-00458
Y-00393
X-000694Y-003064
X-000719Y-005255
X-000503Y-0052
Y-005467
X-000242Y-00553
X-00014433Y-0053865
X-000209Y-00581
X-000262Y-006068
X-000084Y-00618
X-000079Y-00628
X000156
X000216Y-00618
X000188Y-00559899
X000041Y-00503
X000511Y-004885
X000578Y-00478899
X000726Y-00458
X000652Y-005163
X000726Y-005255
Y-005855
X-000719
X-00346617Y-00313567
X-00372137Y-00311198
X-00383781Y-00310197
X-00400826Y-00336307
X-00405074Y-00347317
X-00457035Y-00377317
X-00461785Y-00317923
X-00525681Y-00323419
X-00534091Y-00328852
X-00522341Y-00349203
X-00510681Y-00349399
X-00524902Y-00302402
X-00499888Y-00294093
X-0047731Y-00277234
X-00459999Y-00278517
X-00419838Y-00276744
X-00356424Y-00274413
X-00347764Y-00269413
X-00339103Y-00264413
X-00308655Y-00259318
X-00290325Y-00281066
X-00363729Y-00244927
X-00378876Y-00227691
X-00418867Y-00188426
X-00362575Y-00155926
X-00477323Y-00222176
X-00461781Y-00238131
X-00484904Y-00251481
X-00529285Y-00252176
X-0021145Y-002374
X-001694Y-00237899
X-001668Y-002176
X-001764Y-002197
X-0012855Y-0021215
X-000667Y-0021205
X-000254Y-002109
X0000855Y-0020655
X-000008Y-002335
X000198Y-002335
X0001605Y-0025585
X-0000375Y-0026305
X-000145Y-002491
X-0003385Y-002569
X-0005775Y-002574
X-000667Y-001568
X-0008585Y-001463
X-000655Y-001238
X-0003771Y-00125082
X-00020657Y-0011975
X-000162Y-001503
Y-001594
X-000261Y-001626
X-000327Y-001563
X-000094Y-001435
X-000018Y-001381
X0002615Y-0015135
X00033709Y-00174744
X000518Y-001777
X00078Y-00174
X000895
Y-00162
X00078
X00075732Y-0013396
X000846Y-001301
X000982Y-001347
X00078125Y-00114
X000586Y-001104
X000495Y-001082
X000422Y-000857
X000232Y-000887
X00039Y-000653
X00027716Y-0003096
X000313Y-00012
X000455Y-000035
X000395Y00004
X00047Y00011
X000373Y000205
X00035Y000296
X000432Y000358
X000402Y000674
X0003455Y00088
X000138Y000822
X000068Y000745
X-0000623Y00080619
X000002Y000876
X-000046Y000656
X-0001575Y000479
X-0002275Y000398
X-00018Y000275
X-00029
X-0004
X-00051
Y000165
X-0004
Y000055
X-00051
Y-000055
Y-000165
X-0004
Y-000055
X-00029
Y-000165
X-00018
Y-000055
Y000055
X-00029
Y000165
X-00018
X-00062
X-00073
Y000055
X-00062
Y-000055
Y-000165
X-00073
Y-000055
Y-000275
X-00062
X-00051
X-0004
X-00029
X-00018
X-00014457Y-00038
X-00044Y-000443
X-000428Y-000534
X-000425Y-000625
X-000473Y-000719
X-00027Y-000653
X-0006785Y-000783
X-000663Y-000897
X-00078Y-000885
X-000931Y-000918
X-001059Y-0005975
X-0009635Y-0004995
X-0011035Y-000248
X-0012455Y-00021
X-001331Y-000327
X-001328Y00008
X-0013675Y0002015
X-001367Y000375
X-0012445Y0005225
X-001149Y0003065
X-000878Y000309
X-000896Y0001525
X-000958Y-00002
X-00073Y000275
X-00062
X-000563Y0004725
X-000423Y000479
X-000345Y0006345
X-0003665Y000851
X-0008565Y000854
X-0009385
X-0010205
X-000997Y000627
X-001722Y000757
X-001782Y000825
X-001793Y000689
X-00164Y000893
X-001687Y000343
X-0018Y000333
X-00178Y000243
X-0018Y00005
X-00172Y-00016
X-002016Y-000486
X-0023415Y-000125
X-0025965Y-000127
X-001974Y000416
X-002255Y000815
X-00233
Y00089
X-002255
X-0022395Y-0014785
X-0015305Y-0011035
X00085385Y-0008927
X000827Y-000743
X001146Y-000714
X00103Y-000475
X0012325Y-000413
X0008395Y-0003945
X000773Y-000243
X00047081Y-0002073
X000875Y00023
X00087426Y000325
X0011985Y0003615
X001086Y000595
X001131Y000692
X0011758Y00077447
X000195Y000504
X001281Y-001236
X00091634Y-0021012
X0005425Y-002261
X000418Y-00270915
X000738Y-002666
X0013635Y-0023085
X0018585Y-002275
X0021795Y-0019655
X0020685Y-001649
X002047Y-001492
X002068Y-001289
X002006Y-001159
X0021795Y-0010795
X002204Y-001368
X0021995Y-000608
X002065Y-0003825
X0024105Y-00003
X002407Y0000555
X002977Y0000565
X002978Y-000029
X002702Y-0002265
X002708Y-0006855
X0028345Y-001031
X0016245Y-0010735
X001561Y-001144
X0015074Y-0012196
X001425Y-001158
X001372Y-001236
X001464Y-000891
X0014945Y-0016085
X00362825Y-00154634
X00353155Y-00181382
X00372803Y-00205198
X00381464Y-00210198
X00390124Y-00215198
X00368229Y-00236273
X00360876Y-00258009
X00423838Y-00268956
X00434781Y-00221003
X00429837Y-00210413
X00419117Y-00187134
X00465926Y-00222705
X00477574Y-00220884
X00480485Y-00284688
X00290575Y-00279774
X002702Y0003405
X0025255Y0008215
X0018705Y0007955
X00529535Y-00250884
X00529285Y00252376
X00534091Y00329052
X00525681Y00323619
X00524905Y0030259
X00499888Y00294293
X00477313Y00277422
X00460002Y00278705
X00461787Y00318111
X00457035Y00377517
X00510681Y00349599
X00522341Y00349403
X00405074Y00347517
X00400829Y00336495
X00383781Y00310397
X0037214Y00311386
X00346617Y00313767
X00347767Y00269601
X00339106Y00264602
X00356427Y00274601
X00363729Y00245127
X00378876Y00227891
X00418867Y00188626
X00362575Y00156126
X0028195Y001141
X002516Y0013485
X0023895Y0015595
X0020285Y001665
X00187Y001525
X001469Y001485
X0013895Y0010795
X0020415Y0024835
X00308655Y00259518
X00290325Y00281267
X00419838Y00276944
X00461784Y00238319
X00477323Y00222376
X00484907Y00251669
X0012055Y002542
X000984Y002638
X000982Y00244
X00098Y002244
X000986Y002039
X0009925Y0018
X001202Y001842
X000711Y001721
X000755Y001635
X000827Y001578
X000843Y001485
X0005504Y00172435
Y0018201
X000456Y00221
X0005504Y0023845
X0002245Y0023845
X000046Y00242899
X-00009Y002432
X000047Y002571
X000151Y002611
X000046Y002159
X-000058
X-00018Y002229
X-000296Y002143
X-00042583Y0023717
X-000538Y00237199
X-00043211Y00264367
X-000791Y002533
X-00096Y003045
X-00105
X-001603Y0027725
X-0017205Y0025925
X-00174Y00232
Y00225
X-00167
Y00232
Y00207
Y002
Y00193
Y00186
Y00179
X-00174
Y00186
Y00193
Y002
X-0011
Y00207
X-00103
Y002
Y00193
Y00186
Y00179
X-0011
Y00186
Y00193
X-000465Y001925
X-00017304Y00162041
X-000199Y001269
X-000293Y001229
X-00055Y001211
X-00090741
X-001002Y001295
X-001102Y001292
X-00119474Y001295
X-001285Y001301
X-00139Y00145
X-0015395Y0011825
X-00178Y0011735
X-001959Y001176
X-001987Y001484
X-00207
X-00216054Y00138085
X-0020885Y0023375
X-00073Y003925
X-00045Y003975
X-000342Y004264
Y004364
Y00446399
X-00005Y00438
X000175Y004425
X000715Y004575
Y003925
X000699Y0028635
X001285Y0029425
X0003285Y0015385
X000322Y001423
X000379Y001349
X000434Y001273
X000493Y001203
X000246Y001483
X-00073Y004575
X-000582Y004784
X-000515Y00488
X-00292775Y00278974
X-00349067Y00311474
X-00363076Y00257209
X-00370429Y00235473
X-00375004Y00204398
X-00383664Y00209398
X-00392324Y00214398
X-00432037Y00209613
X-00436981Y00220203
X-00468126Y00221905
X-00479773Y00220083
X-00482685Y00283888
X-00481088Y00328807
X-0045521Y00317678
X-00447665Y00302045
X-00436704Y00337131
X-00413581Y00323781
X-00407523Y00345224
X-00459485Y00375224
X-00500802Y0034631
X-00519381Y00336482
X-00528291Y00341049
X-00540041Y00320697
X-00534381Y00310501
X-00531735Y00250083
X-00426038Y00268156
X-00421317Y00186333
X-00355355Y00180582
X-00365025Y00153833
X-000656Y005158
X-00073Y00525
Y00585
X-000192Y00559399
X000238Y005525
X00014033Y0053815
X000499Y005462
Y005195
X000715Y00525
Y00585
X000205Y005805
X000258Y006063
X00008Y006175
X000075Y006275
X-00016
X-00022Y006175
X-000045Y005025
T05
X-000468Y-003723
X-000214
X00004
X000294
X000548
Y-003469
X000294
X00004
X-000214
X-000468
Y-003023
X-000214Y-003023
X00004
X000294
X000548
X-00281319Y-002553
X-00294019Y-00233303
X-00272022Y-00220603
X-00284722Y-00198606
X-00306719Y-00211306
X-00319419Y-00189309
X-00297422Y-00176609
X-00310122Y-00154612
X-00332119Y-00167312
X-00271497Y-00132312
X-00258797Y-00154309
X-002368Y-00141609
X-002495Y-00119612
X-00246097Y-00176306
X-00233397Y-00198303
X-00220697Y-002203
X-001987Y-002076
X-002114Y-00185603
X-002241Y-00163606
X-00259322Y-002426
X-000468Y-002769
X-000214
X00004
X000294
X000548
X-002175Y000634
X-002429
X002534Y-00112012
X00275397Y-00124712
X00262697Y-00146709
X002407Y-00134009
X00228Y-00156006
X00249997Y-00168706
X00237297Y-00190703
X002153Y-00178003
X002026Y-002
X00224597Y-002127
X00275922Y-00213003
X00263222Y-00235
X00285219Y-002477
X00297919Y-00225703
X00310619Y-00203706
X00323319Y-00181709
X00336019Y-00159712
X00314022Y-00147012
X00301322Y-00169009
X00288622Y-00191006
X002715Y001325
X00249503Y001198
X00236803Y00141797
X00224103Y00163794
X00211403Y00185791
X002334Y00198491
X002461Y00176494
X002588Y00154497
X00310125Y001548
X00332122Y001675
X00319422Y00189497
X00306722Y00211494
X00294022Y00233491
X00272025Y00220791
X00284725Y00198794
X00297425Y00176797
X00281322Y00255488
X00259325Y00242788
X002207Y00220488
X00198703Y00207788
X000375Y00205
X000121
X-000133
X-000387
Y001796
X-000133
X000121
X000375
X000464Y002764
Y003018
X00021
Y002764
X-000044
Y003018
X-000298
X-000552
Y002764
X-000298
Y003464
X-000552
Y003718
X-000298
X-000044
X00021
X000464
Y003464
X00021
X-000044
X-002048Y001992
X-002175Y00177203
X-002302Y00155206
X-002429Y00133209
X-002556Y00111212
X-00264897Y00145909
X-00252197Y00167906
X-00239497Y00189903
X-00226797Y002119
X-00278122Y00212203
X-00265422Y002342
X-00287419Y002469
X-00300119Y00224903
X-00312819Y00202906
X-00325519Y00180909
X-00338219Y00158912
X-00316222Y00146212
X-00303522Y00168209
X-00290822Y00190206
X-00277597Y00123912
T06
X001551Y-00033
Y-000076
Y000178
Y000432
X001805Y000305
Y000051
Y-000203
Y-000457
X002778Y-000391
X00293Y-000645
Y000366
X002778Y00062
T07
X002135Y-0008
Y000775
T08
X00483686Y-00380297
X000631Y-006105
X-000624
X-00483436Y-00381589
X-00546186Y-00272903
X00546436Y-00271611
X00546186Y00273103
X00483436Y00381789
X-00485886Y00379497
X-00548636Y00270811
X-000635Y0061
X00062
T09
X-000725Y-003275
Y-0032
X-00065
X-000575
Y-003275
X-00065
X-000375
Y-0032
X-0003
Y-003275
X-000125
Y-0032
X-00005
Y-003275
X000125
Y-0032
X0002
Y-003275
X000375
X00045
Y-0032
X000375
X00065
X000725
Y-003275
X00065
X-002665Y-001775
X-00272995Y-0018125
X-00276745Y-00174755
X-0027025Y-00171005
X-00279Y-00155849
X-00285495Y-00159599
X-00289245Y-00153104
X-0028275Y-00149354
X-0029275Y-00132034
X-002965Y-00125539
X-00302995Y-00129289
X-00299245Y-00135784
X-0030025Y-00119043
X-00306745Y-00122793
X-00264245Y-00196405
X-00260495Y-00202901
X-00254Y-00199151
X-0025775Y-00192655
X-00251745Y-00218056
X-00247995Y-00224551
X-002415Y-00220801
X-0024525Y-00214306
X-00237995Y-00241872
X-00234245Y-00248367
X-0022775Y-00244617
X-002315Y-00238122
X00231177Y-00237704
X00234927Y-00231209
X00241423Y-00234959
X00237673Y-00241454
X00233923Y-00247949
X00227427Y-00244199
X00244927Y-00213888
X00251423Y-00217638
X00255173Y-00211143
X00248677Y-00207393
X00257427Y-00192237
X00263923Y-00195987
X00267673Y-00189492
X00261177Y-00185742
X00269927Y-00170587
X00276423Y-00174337
X00280173Y-00167842
X00273677Y-00164092
X00282427Y-00148936
X00288923Y-00152686
X00292673Y-00146191
X00286177Y-00142441
X00296177Y-0012512
X00299927Y-00118625
X00306423Y-00122375
X00302673Y-0012887
X00300151Y00120094
X00306646Y00123844
X00302896Y00130339
X00299146Y00136834
X00292651Y00133084
X00296401Y00126589
X00289146Y00154155
X00285396Y0016065
X00278901Y001569
X00282651Y00150405
X00276646Y00175805
X00270151Y00172055
X00266401Y0017855
X00272896Y001823
X00264146Y00197456
X00257651Y00193706
X00253901Y00200201
X00260396Y00203951
X00251646Y00219106
X00247896Y00225602
X00241401Y00221852
X00245151Y00215356
X00237896Y00242922
X00231401Y00239172
X00227651Y00245667
X00234146Y00249417
X000725Y0032
X00065
X000575
Y003275
X00065
X000725
X000375
Y0032
X0003
Y003275
X000125
Y0032
X00005
Y003275
X-000125
Y0032
X-0002
Y003275
X-000375
X-00045
Y0032
X-000375
X-00065
X-000725
Y003275
X-00065
X-0022959Y00244219
X-0023334Y00237724
X-0023709Y00231229
X-00243585Y00234979
X-00239835Y00241474
X-00236085Y00247969
X-0024709Y00213909
X-00253585Y00217659
X-00257335Y00211163
X-0025084Y00207413
X-0025959Y00192258
X-0026334Y00185763
X-00269835Y00189513
X-00266085Y00196008
X-0027209Y00170607
X-0027584Y00164112
X-00282335Y00167862
X-00278585Y00174357
X-0028459Y00148957
X-00291085Y00152707
X-00294835Y00146212
X-0028834Y00142462
X-0029834Y00125141
X-0030209Y00118646
X-00308585Y00122396
X-00304835Y00128891
T10
X-000919Y-002027
X0Y-00185
Y0015
T11
X00244Y-000584
Y000559
M30
