G04 Layer_Color=8388736*
%FSLAX25Y25*%
%MOIN*%
G70*
G01*
G75*
%ADD70C,0.01575*%
%ADD90R,0.03556X0.04343*%
%ADD91R,0.05131X0.05524*%
%ADD92R,0.01784X0.03556*%
%ADD93R,0.03556X0.01784*%
%ADD94R,0.10446X0.10446*%
%ADD95R,0.08280X0.12217*%
%ADD96R,0.06115X0.02375*%
%ADD97R,0.26391X0.26391*%
%ADD98O,0.01981X0.07296*%
%ADD99O,0.07296X0.01981*%
G04:AMPARAMS|DCode=100|XSize=63.12mil|YSize=55.24mil|CornerRadius=15.81mil|HoleSize=0mil|Usage=FLASHONLY|Rotation=90.000|XOffset=0mil|YOffset=0mil|HoleType=Round|Shape=RoundedRectangle|*
%AMROUNDEDRECTD100*
21,1,0.06312,0.02362,0,0,90.0*
21,1,0.03150,0.05524,0,0,90.0*
1,1,0.03162,0.01181,0.01575*
1,1,0.03162,0.01181,-0.01575*
1,1,0.03162,-0.01181,-0.01575*
1,1,0.03162,-0.01181,0.01575*
%
%ADD100ROUNDEDRECTD100*%
%ADD101R,0.05524X0.06312*%
%ADD102R,0.04737X0.07887*%
G04:AMPARAMS|DCode=103|XSize=63.12mil|YSize=55.24mil|CornerRadius=15.81mil|HoleSize=0mil|Usage=FLASHONLY|Rotation=0.000|XOffset=0mil|YOffset=0mil|HoleType=Round|Shape=RoundedRectangle|*
%AMROUNDEDRECTD103*
21,1,0.06312,0.02362,0,0,0.0*
21,1,0.03150,0.05524,0,0,0.0*
1,1,0.03162,0.01575,-0.01181*
1,1,0.03162,-0.01575,-0.01181*
1,1,0.03162,-0.01575,0.01181*
1,1,0.03162,0.01575,0.01181*
%
%ADD103ROUNDEDRECTD103*%
%ADD104R,0.06312X0.05524*%
%ADD105R,0.04343X0.03556*%
%ADD106R,0.02769X0.01981*%
%ADD107R,0.02178X0.02178*%
%ADD108R,0.04737X0.04343*%
%ADD109R,0.02965X0.06509*%
%ADD110R,0.07493X0.05131*%
%ADD111R,0.05131X0.07493*%
%ADD112R,0.03162X0.02769*%
%ADD113R,0.02769X0.03162*%
G04:AMPARAMS|DCode=114|XSize=67.06mil|YSize=165.48mil|CornerRadius=0mil|HoleSize=0mil|Usage=FLASHONLY|Rotation=120.000|XOffset=0mil|YOffset=0mil|HoleType=Round|Shape=Rectangle|*
%AMROTATEDRECTD114*
4,1,4,0.08842,0.01233,-0.05489,-0.07041,-0.08842,-0.01233,0.05489,0.07041,0.08842,0.01233,0.0*
%
%ADD114ROTATEDRECTD114*%

%ADD115O,0.06902X0.02178*%
%ADD116R,0.03950X0.04343*%
%ADD117R,0.04343X0.03950*%
%ADD118R,0.04934X0.03950*%
G04:AMPARAMS|DCode=119|XSize=49.34mil|YSize=39.5mil|CornerRadius=11.87mil|HoleSize=0mil|Usage=FLASHONLY|Rotation=180.000|XOffset=0mil|YOffset=0mil|HoleType=Round|Shape=RoundedRectangle|*
%AMROUNDEDRECTD119*
21,1,0.04934,0.01575,0,0,180.0*
21,1,0.02559,0.03950,0,0,180.0*
1,1,0.02375,-0.01280,0.00787*
1,1,0.02375,0.01280,0.00787*
1,1,0.02375,0.01280,-0.00787*
1,1,0.02375,-0.01280,-0.00787*
%
%ADD119ROUNDEDRECTD119*%
%ADD120R,0.06706X0.16548*%
G04:AMPARAMS|DCode=121|XSize=27.69mil|YSize=31.62mil|CornerRadius=0mil|HoleSize=0mil|Usage=FLASHONLY|Rotation=300.000|XOffset=0mil|YOffset=0mil|HoleType=Round|Shape=Rectangle|*
%AMROTATEDRECTD121*
4,1,4,-0.02061,0.00408,0.00677,0.01989,0.02061,-0.00408,-0.00677,-0.01989,-0.02061,0.00408,0.0*
%
%ADD121ROTATEDRECTD121*%

G04:AMPARAMS|DCode=122|XSize=27.69mil|YSize=31.62mil|CornerRadius=0mil|HoleSize=0mil|Usage=FLASHONLY|Rotation=240.000|XOffset=0mil|YOffset=0mil|HoleType=Round|Shape=Rectangle|*
%AMROTATEDRECTD122*
4,1,4,-0.00677,0.01989,0.02061,0.00408,0.00677,-0.01989,-0.02061,-0.00408,-0.00677,0.01989,0.0*
%
%ADD122ROTATEDRECTD122*%

G04:AMPARAMS|DCode=123|XSize=27.69mil|YSize=31.62mil|CornerRadius=0mil|HoleSize=0mil|Usage=FLASHONLY|Rotation=30.000|XOffset=0mil|YOffset=0mil|HoleType=Round|Shape=Rectangle|*
%AMROTATEDRECTD123*
4,1,4,-0.00408,-0.02061,-0.01989,0.00677,0.00408,0.02061,0.01989,-0.00677,-0.00408,-0.02061,0.0*
%
%ADD123ROTATEDRECTD123*%

G04:AMPARAMS|DCode=124|XSize=27.69mil|YSize=31.62mil|CornerRadius=0mil|HoleSize=0mil|Usage=FLASHONLY|Rotation=330.000|XOffset=0mil|YOffset=0mil|HoleType=Round|Shape=Rectangle|*
%AMROTATEDRECTD124*
4,1,4,-0.01989,-0.00677,-0.00408,0.02061,0.01989,0.00677,0.00408,-0.02061,-0.01989,-0.00677,0.0*
%
%ADD124ROTATEDRECTD124*%

G04:AMPARAMS|DCode=125|XSize=67.06mil|YSize=165.48mil|CornerRadius=0mil|HoleSize=0mil|Usage=FLASHONLY|Rotation=240.000|XOffset=0mil|YOffset=0mil|HoleType=Round|Shape=Rectangle|*
%AMROTATEDRECTD125*
4,1,4,-0.05489,0.07041,0.08842,-0.01233,0.05489,-0.07041,-0.08842,0.01233,-0.05489,0.07041,0.0*
%
%ADD125ROTATEDRECTD125*%

G04:AMPARAMS|DCode=126|XSize=49.34mil|YSize=39.5mil|CornerRadius=11.87mil|HoleSize=0mil|Usage=FLASHONLY|Rotation=120.000|XOffset=0mil|YOffset=0mil|HoleType=Round|Shape=RoundedRectangle|*
%AMROUNDEDRECTD126*
21,1,0.04934,0.01575,0,0,120.0*
21,1,0.02559,0.03950,0,0,120.0*
1,1,0.02375,0.00042,0.01502*
1,1,0.02375,0.01322,-0.00714*
1,1,0.02375,-0.00042,-0.01502*
1,1,0.02375,-0.01322,0.00714*
%
%ADD126ROUNDEDRECTD126*%
G04:AMPARAMS|DCode=127|XSize=49.34mil|YSize=39.5mil|CornerRadius=0mil|HoleSize=0mil|Usage=FLASHONLY|Rotation=120.000|XOffset=0mil|YOffset=0mil|HoleType=Round|Shape=Rectangle|*
%AMROTATEDRECTD127*
4,1,4,0.02944,-0.01149,-0.00477,-0.03124,-0.02944,0.01149,0.00477,0.03124,0.02944,-0.01149,0.0*
%
%ADD127ROTATEDRECTD127*%

G04:AMPARAMS|DCode=128|XSize=49.34mil|YSize=39.5mil|CornerRadius=11.87mil|HoleSize=0mil|Usage=FLASHONLY|Rotation=60.000|XOffset=0mil|YOffset=0mil|HoleType=Round|Shape=RoundedRectangle|*
%AMROUNDEDRECTD128*
21,1,0.04934,0.01575,0,0,60.0*
21,1,0.02559,0.03950,0,0,60.0*
1,1,0.02375,0.01322,0.00714*
1,1,0.02375,0.00042,-0.01502*
1,1,0.02375,-0.01322,-0.00714*
1,1,0.02375,-0.00042,0.01502*
%
%ADD128ROUNDEDRECTD128*%
G04:AMPARAMS|DCode=129|XSize=49.34mil|YSize=39.5mil|CornerRadius=0mil|HoleSize=0mil|Usage=FLASHONLY|Rotation=60.000|XOffset=0mil|YOffset=0mil|HoleType=Round|Shape=Rectangle|*
%AMROTATEDRECTD129*
4,1,4,0.00477,-0.03124,-0.02944,-0.01149,-0.00477,0.03124,0.02944,0.01149,0.00477,-0.03124,0.0*
%
%ADD129ROTATEDRECTD129*%

G04:AMPARAMS|DCode=130|XSize=43.43mil|YSize=39.5mil|CornerRadius=0mil|HoleSize=0mil|Usage=FLASHONLY|Rotation=210.000|XOffset=0mil|YOffset=0mil|HoleType=Round|Shape=Rectangle|*
%AMROTATEDRECTD130*
4,1,4,0.00893,0.02796,0.02868,-0.00624,-0.00893,-0.02796,-0.02868,0.00624,0.00893,0.02796,0.0*
%
%ADD130ROTATEDRECTD130*%

G04:AMPARAMS|DCode=131|XSize=43.43mil|YSize=39.5mil|CornerRadius=0mil|HoleSize=0mil|Usage=FLASHONLY|Rotation=150.000|XOffset=0mil|YOffset=0mil|HoleType=Round|Shape=Rectangle|*
%AMROTATEDRECTD131*
4,1,4,0.02868,0.00624,0.00893,-0.02796,-0.02868,-0.00624,-0.00893,0.02796,0.02868,0.00624,0.0*
%
%ADD131ROTATEDRECTD131*%

G04:AMPARAMS|DCode=132|XSize=43.43mil|YSize=39.5mil|CornerRadius=0mil|HoleSize=0mil|Usage=FLASHONLY|Rotation=120.000|XOffset=0mil|YOffset=0mil|HoleType=Round|Shape=Rectangle|*
%AMROTATEDRECTD132*
4,1,4,0.02796,-0.00893,-0.00624,-0.02868,-0.02796,0.00893,0.00624,0.02868,0.02796,-0.00893,0.0*
%
%ADD132ROTATEDRECTD132*%

G04:AMPARAMS|DCode=133|XSize=43.43mil|YSize=39.5mil|CornerRadius=0mil|HoleSize=0mil|Usage=FLASHONLY|Rotation=60.000|XOffset=0mil|YOffset=0mil|HoleType=Round|Shape=Rectangle|*
%AMROTATEDRECTD133*
4,1,4,0.00624,-0.02868,-0.02796,-0.00893,-0.00624,0.02868,0.02796,0.00893,0.00624,-0.02868,0.0*
%
%ADD133ROTATEDRECTD133*%

G04:AMPARAMS|DCode=134|XSize=43.43mil|YSize=35.56mil|CornerRadius=0mil|HoleSize=0mil|Usage=FLASHONLY|Rotation=120.000|XOffset=0mil|YOffset=0mil|HoleType=Round|Shape=Rectangle|*
%AMROTATEDRECTD134*
4,1,4,0.02626,-0.00992,-0.00454,-0.02770,-0.02626,0.00992,0.00454,0.02770,0.02626,-0.00992,0.0*
%
%ADD134ROTATEDRECTD134*%

G04:AMPARAMS|DCode=135|XSize=43.43mil|YSize=35.56mil|CornerRadius=0mil|HoleSize=0mil|Usage=FLASHONLY|Rotation=60.000|XOffset=0mil|YOffset=0mil|HoleType=Round|Shape=Rectangle|*
%AMROTATEDRECTD135*
4,1,4,0.00454,-0.02770,-0.02626,-0.00992,-0.00454,0.02770,0.02626,0.00992,0.00454,-0.02770,0.0*
%
%ADD135ROTATEDRECTD135*%

G04:AMPARAMS|DCode=136|XSize=21.78mil|YSize=69.02mil|CornerRadius=0mil|HoleSize=0mil|Usage=FLASHONLY|Rotation=30.000|XOffset=0mil|YOffset=0mil|HoleType=Round|Shape=Round|*
%AMOVALD136*
21,1,0.04724,0.02178,0.00000,0.00000,120.0*
1,1,0.02178,0.01181,-0.02046*
1,1,0.02178,-0.01181,0.02046*
%
%ADD136OVALD136*%

G04:AMPARAMS|DCode=137|XSize=21.78mil|YSize=69.02mil|CornerRadius=0mil|HoleSize=0mil|Usage=FLASHONLY|Rotation=330.000|XOffset=0mil|YOffset=0mil|HoleType=Round|Shape=Round|*
%AMOVALD137*
21,1,0.04724,0.02178,0.00000,0.00000,60.0*
1,1,0.02178,-0.01181,-0.02046*
1,1,0.02178,0.01181,0.02046*
%
%ADD137OVALD137*%

G04:AMPARAMS|DCode=138|XSize=63.12mil|YSize=55.24mil|CornerRadius=15.81mil|HoleSize=0mil|Usage=FLASHONLY|Rotation=120.000|XOffset=0mil|YOffset=0mil|HoleType=Round|Shape=RoundedRectangle|*
%AMROUNDEDRECTD138*
21,1,0.06312,0.02362,0,0,120.0*
21,1,0.03150,0.05524,0,0,120.0*
1,1,0.03162,0.00236,0.01954*
1,1,0.03162,0.01810,-0.00773*
1,1,0.03162,-0.00236,-0.01954*
1,1,0.03162,-0.01810,0.00773*
%
%ADD138ROUNDEDRECTD138*%
G04:AMPARAMS|DCode=139|XSize=63.12mil|YSize=55.24mil|CornerRadius=0mil|HoleSize=0mil|Usage=FLASHONLY|Rotation=120.000|XOffset=0mil|YOffset=0mil|HoleType=Round|Shape=Rectangle|*
%AMROTATEDRECTD139*
4,1,4,0.03970,-0.01352,-0.00814,-0.04114,-0.03970,0.01352,0.00814,0.04114,0.03970,-0.01352,0.0*
%
%ADD139ROTATEDRECTD139*%

G04:AMPARAMS|DCode=140|XSize=63.12mil|YSize=55.24mil|CornerRadius=15.81mil|HoleSize=0mil|Usage=FLASHONLY|Rotation=60.000|XOffset=0mil|YOffset=0mil|HoleType=Round|Shape=RoundedRectangle|*
%AMROUNDEDRECTD140*
21,1,0.06312,0.02362,0,0,60.0*
21,1,0.03150,0.05524,0,0,60.0*
1,1,0.03162,0.01810,0.00773*
1,1,0.03162,0.00236,-0.01954*
1,1,0.03162,-0.01810,-0.00773*
1,1,0.03162,-0.00236,0.01954*
%
%ADD140ROUNDEDRECTD140*%
G04:AMPARAMS|DCode=141|XSize=63.12mil|YSize=55.24mil|CornerRadius=0mil|HoleSize=0mil|Usage=FLASHONLY|Rotation=60.000|XOffset=0mil|YOffset=0mil|HoleType=Round|Shape=Rectangle|*
%AMROTATEDRECTD141*
4,1,4,0.00814,-0.04114,-0.03970,-0.01352,-0.00814,0.04114,0.03970,0.01352,0.00814,-0.04114,0.0*
%
%ADD141ROTATEDRECTD141*%

%ADD142R,0.09461X0.13792*%
%ADD143R,0.09461X0.04737*%
%ADD144C,0.04737*%
%ADD145R,0.08280X0.06213*%
G04:AMPARAMS|DCode=146|XSize=57.21mil|YSize=49.34mil|CornerRadius=14.34mil|HoleSize=0mil|Usage=FLASHONLY|Rotation=180.000|XOffset=0mil|YOffset=0mil|HoleType=Round|Shape=RoundedRectangle|*
%AMROUNDEDRECTD146*
21,1,0.05721,0.02067,0,0,180.0*
21,1,0.02854,0.04934,0,0,180.0*
1,1,0.02867,-0.01427,0.01034*
1,1,0.02867,0.01427,0.01034*
1,1,0.02867,0.01427,-0.01034*
1,1,0.02867,-0.01427,-0.01034*
%
%ADD146ROUNDEDRECTD146*%
%ADD147R,0.04737X0.04147*%
%ADD148C,0.06706*%
%ADD149R,0.06706X0.06706*%
%ADD150C,0.10249*%
%ADD151C,0.00800*%
%ADD152R,0.06706X0.06706*%
%ADD153P,0.09483X4X345.0*%
%ADD154P,0.09483X4X285.0*%
%ADD155C,0.03556*%
%ADD156C,0.11430*%
%ADD157C,0.02769*%
D70*
X-14764Y-125984D02*
D03*
X-11811D02*
D03*
X-14764Y-128937D02*
D03*
X-11811D02*
D03*
X-22638Y-125984D02*
D03*
X-25591D02*
D03*
X-28543D02*
D03*
Y-128937D02*
D03*
X-25591D02*
D03*
X-22638D02*
D03*
X-4921Y-125984D02*
D03*
X-1969D02*
D03*
Y-128937D02*
D03*
X-4921D02*
D03*
X4921Y-125984D02*
D03*
X7874D02*
D03*
Y-128937D02*
D03*
X4921D02*
D03*
X14764D02*
D03*
X17717D02*
D03*
X14764Y-125984D02*
D03*
X17717D02*
D03*
X25591D02*
D03*
X28543D02*
D03*
X25591Y-128937D02*
D03*
X28543D02*
D03*
X-92222Y-97782D02*
D03*
X-93699Y-95225D02*
D03*
X-89665Y-96306D02*
D03*
X-91142Y-93749D02*
D03*
X-95079Y-86930D02*
D03*
X-96555Y-84373D02*
D03*
X-97636Y-88406D02*
D03*
X-99112Y-85849D02*
D03*
X-104034Y-77325D02*
D03*
X-102557Y-79882D02*
D03*
X-100000Y-78406D02*
D03*
X-101476Y-75849D02*
D03*
X-108955Y-68801D02*
D03*
X-107478Y-71358D02*
D03*
X-104921Y-69882D02*
D03*
X-106398Y-67325D02*
D03*
X-117813Y-53458D02*
D03*
X-119290Y-50901D02*
D03*
X-120766Y-48344D02*
D03*
X-118209Y-46867D02*
D03*
X-116732Y-49425D02*
D03*
X-115256Y-51982D02*
D03*
X-112400Y-62834D02*
D03*
X-113876Y-60277D02*
D03*
X-109843Y-61358D02*
D03*
X-111319Y-58801D02*
D03*
X120639Y-48179D02*
D03*
X119162Y-50736D02*
D03*
X118082Y-46703D02*
D03*
X116605Y-49260D02*
D03*
X112668Y-56079D02*
D03*
X111192Y-58636D02*
D03*
X115225Y-57556D02*
D03*
X113749Y-60113D02*
D03*
X108828Y-68637D02*
D03*
X110304Y-66079D02*
D03*
X107747Y-64603D02*
D03*
X106271Y-67160D02*
D03*
X103907Y-77160D02*
D03*
X105383Y-74603D02*
D03*
X102826Y-73127D02*
D03*
X101349Y-75684D02*
D03*
X95048Y-92503D02*
D03*
X93572Y-95061D02*
D03*
X92096Y-97618D02*
D03*
X89538Y-96141D02*
D03*
X91015Y-93584D02*
D03*
X92491Y-91027D02*
D03*
X100462Y-83127D02*
D03*
X98985Y-85684D02*
D03*
X97904Y-81651D02*
D03*
X96428Y-84208D02*
D03*
X111280Y59214D02*
D03*
X109803Y61772D02*
D03*
X113837Y60691D02*
D03*
X112361Y63248D02*
D03*
X115217Y52395D02*
D03*
X116693Y49838D02*
D03*
X118169Y47281D02*
D03*
X120727Y48757D02*
D03*
X119250Y51315D02*
D03*
X117774Y53872D02*
D03*
X106359Y67738D02*
D03*
X104882Y70295D02*
D03*
X107439Y71772D02*
D03*
X108916Y69215D02*
D03*
X101437Y76262D02*
D03*
X99961Y78819D02*
D03*
X102518Y80296D02*
D03*
X103994Y77738D02*
D03*
X99073Y86262D02*
D03*
X97597Y88819D02*
D03*
X96516Y84786D02*
D03*
X95040Y87343D02*
D03*
X91103Y94162D02*
D03*
X89626Y96719D02*
D03*
X93660Y95639D02*
D03*
X92183Y98196D02*
D03*
X14764Y125984D02*
D03*
X11811D02*
D03*
X14764Y128937D02*
D03*
X11811D02*
D03*
X22638Y125984D02*
D03*
X25591D02*
D03*
X28543D02*
D03*
Y128937D02*
D03*
X25591D02*
D03*
X22638D02*
D03*
X4921Y125984D02*
D03*
X1969D02*
D03*
Y128937D02*
D03*
X4921D02*
D03*
X-4921Y125984D02*
D03*
X-7874D02*
D03*
Y128937D02*
D03*
X-4921D02*
D03*
X-14764D02*
D03*
X-17717D02*
D03*
X-14764Y125984D02*
D03*
X-17717D02*
D03*
X-25591D02*
D03*
X-28543D02*
D03*
X-25591Y128937D02*
D03*
X-28543D02*
D03*
X-97279Y84216D02*
D03*
X-98756Y81659D02*
D03*
X-99837Y85692D02*
D03*
X-101313Y83135D02*
D03*
X-93342Y91035D02*
D03*
X-91866Y93592D02*
D03*
X-90390Y96149D02*
D03*
X-92947Y97626D02*
D03*
X-94423Y95069D02*
D03*
X-95900Y92511D02*
D03*
X-102201Y75692D02*
D03*
X-103677Y73135D02*
D03*
X-106234Y74611D02*
D03*
X-104758Y77169D02*
D03*
X-107122Y67168D02*
D03*
X-108598Y64611D02*
D03*
X-111155Y66088D02*
D03*
X-109679Y68645D02*
D03*
X-114600Y60121D02*
D03*
X-116077Y57564D02*
D03*
X-112043Y58644D02*
D03*
X-113520Y56087D02*
D03*
X-117457Y49268D02*
D03*
X-118933Y46711D02*
D03*
X-120014Y50744D02*
D03*
X-121490Y48187D02*
D03*
D90*
X57874Y96969D02*
D03*
X63779D02*
D03*
X57913Y92165D02*
D03*
X63819D02*
D03*
X57953Y87362D02*
D03*
X63858D02*
D03*
X57992Y80669D02*
D03*
X63898D02*
D03*
X44685Y-44882D02*
D03*
X50591D02*
D03*
X11417Y-80315D02*
D03*
X17323D02*
D03*
X75827Y39331D02*
D03*
X81732D02*
D03*
X92244Y39331D02*
D03*
X86339D02*
D03*
X63898Y72874D02*
D03*
X57992D02*
D03*
X63976Y67953D02*
D03*
X58071D02*
D03*
X63976Y62913D02*
D03*
X58071D02*
D03*
D91*
X51850Y103858D02*
D03*
X43583D02*
D03*
X51811Y96142D02*
D03*
X43543D02*
D03*
X51772Y88346D02*
D03*
X43504D02*
D03*
X51732Y80591D02*
D03*
X43465D02*
D03*
X-48091Y107736D02*
D03*
X-39823D02*
D03*
X43504Y72835D02*
D03*
X51772D02*
D03*
X43544Y65235D02*
D03*
X51811D02*
D03*
X43543Y57677D02*
D03*
X51811D02*
D03*
D92*
X27953Y-73819D02*
D03*
X29921D02*
D03*
X31890D02*
D03*
X33858D02*
D03*
X35827D02*
D03*
X37795D02*
D03*
Y-58071D02*
D03*
X35827D02*
D03*
X33858D02*
D03*
X31890D02*
D03*
X29921D02*
D03*
X27953D02*
D03*
D93*
X40748Y-70866D02*
D03*
Y-68898D02*
D03*
Y-66929D02*
D03*
Y-64961D02*
D03*
Y-62992D02*
D03*
Y-61024D02*
D03*
X25000D02*
D03*
Y-62992D02*
D03*
Y-64961D02*
D03*
Y-66929D02*
D03*
Y-68898D02*
D03*
Y-70866D02*
D03*
D94*
X32874Y-65945D02*
D03*
D95*
X-108661Y197D02*
D03*
D96*
X-98130D02*
D03*
Y2756D02*
D03*
Y5315D02*
D03*
Y-2362D02*
D03*
Y-4921D02*
D03*
D97*
X-17913Y0D02*
D03*
D98*
X-52362Y41732D02*
D03*
X-50394D02*
D03*
X-48425D02*
D03*
X-46457D02*
D03*
X-44488D02*
D03*
X-42520D02*
D03*
X-40551D02*
D03*
X-38583D02*
D03*
X-36614D02*
D03*
X-34646D02*
D03*
X-32677D02*
D03*
X-30709D02*
D03*
X-28740D02*
D03*
X-26772D02*
D03*
X-24803D02*
D03*
X-22835D02*
D03*
X-20866D02*
D03*
X-18898D02*
D03*
X-16929D02*
D03*
X-14961D02*
D03*
X-12992D02*
D03*
X-11024D02*
D03*
X-9055D02*
D03*
X-7087D02*
D03*
X-5118D02*
D03*
X-3150D02*
D03*
X-1181D02*
D03*
X787D02*
D03*
X2756D02*
D03*
X4724D02*
D03*
X6693D02*
D03*
X8661D02*
D03*
X10630D02*
D03*
X12598D02*
D03*
X14567D02*
D03*
X16535D02*
D03*
Y-41732D02*
D03*
X14567D02*
D03*
X12598D02*
D03*
X10630D02*
D03*
X8661D02*
D03*
X6693D02*
D03*
X4724D02*
D03*
X2756D02*
D03*
X787D02*
D03*
X-1181D02*
D03*
X-3150D02*
D03*
X-5118D02*
D03*
X-7087D02*
D03*
X-9055D02*
D03*
X-11024D02*
D03*
X-12992D02*
D03*
X-14961D02*
D03*
X-16929D02*
D03*
X-18898D02*
D03*
X-20866D02*
D03*
X-22835D02*
D03*
X-24803D02*
D03*
X-26772D02*
D03*
X-28740D02*
D03*
X-30709D02*
D03*
X-32677D02*
D03*
X-34646D02*
D03*
X-36614D02*
D03*
X-38583D02*
D03*
X-40551D02*
D03*
X-42520D02*
D03*
X-44488D02*
D03*
X-46457D02*
D03*
X-48425D02*
D03*
X-50394D02*
D03*
X-52362D02*
D03*
D99*
X23819Y34449D02*
D03*
Y32480D02*
D03*
Y30512D02*
D03*
Y28543D02*
D03*
Y26575D02*
D03*
Y24606D02*
D03*
Y22638D02*
D03*
Y20669D02*
D03*
Y18701D02*
D03*
Y16732D02*
D03*
Y14764D02*
D03*
Y12795D02*
D03*
Y10827D02*
D03*
Y8858D02*
D03*
Y6890D02*
D03*
Y4921D02*
D03*
Y2953D02*
D03*
Y984D02*
D03*
Y-984D02*
D03*
Y-2953D02*
D03*
Y-4921D02*
D03*
Y-6890D02*
D03*
Y-8858D02*
D03*
Y-10827D02*
D03*
Y-12795D02*
D03*
Y-14764D02*
D03*
Y-16732D02*
D03*
Y-18701D02*
D03*
Y-20669D02*
D03*
Y-22638D02*
D03*
Y-24606D02*
D03*
Y-26575D02*
D03*
Y-28543D02*
D03*
Y-30512D02*
D03*
Y-32480D02*
D03*
Y-34449D02*
D03*
X-59646D02*
D03*
Y-32480D02*
D03*
Y-30512D02*
D03*
Y-28543D02*
D03*
Y-26575D02*
D03*
Y-24606D02*
D03*
Y-22638D02*
D03*
Y-20669D02*
D03*
Y-18701D02*
D03*
Y-16732D02*
D03*
Y-14764D02*
D03*
Y-12795D02*
D03*
Y-10827D02*
D03*
Y-8858D02*
D03*
Y-6890D02*
D03*
Y-4921D02*
D03*
Y-2953D02*
D03*
Y-984D02*
D03*
Y984D02*
D03*
Y2953D02*
D03*
Y4921D02*
D03*
Y6890D02*
D03*
Y8858D02*
D03*
Y10827D02*
D03*
Y12795D02*
D03*
Y14764D02*
D03*
Y16732D02*
D03*
Y18701D02*
D03*
Y20669D02*
D03*
Y22638D02*
D03*
Y24606D02*
D03*
Y26575D02*
D03*
Y28543D02*
D03*
Y30512D02*
D03*
Y32480D02*
D03*
Y34449D02*
D03*
D100*
X63189Y-58464D02*
D03*
X56496D02*
D03*
Y-67126D02*
D03*
D101*
X63189D02*
D03*
D102*
X-84724Y-20945D02*
D03*
X-74882D02*
D03*
D103*
X45669Y-9055D02*
D03*
Y-2362D02*
D03*
X37008D02*
D03*
X-5984Y168465D02*
D03*
Y161772D02*
D03*
X2677D02*
D03*
X-2835Y-161969D02*
D03*
X5827D02*
D03*
Y-168661D02*
D03*
D104*
X37008Y-9055D02*
D03*
X2677Y168465D02*
D03*
X-2835Y-168661D02*
D03*
D105*
X19094Y-54134D02*
D03*
Y-48228D02*
D03*
X50788Y-52953D02*
D03*
Y-58858D02*
D03*
X24016Y-54134D02*
D03*
Y-48228D02*
D03*
X-79724Y4921D02*
D03*
Y-984D02*
D03*
X-74803Y6890D02*
D03*
Y984D02*
D03*
X-33149Y109350D02*
D03*
Y103445D02*
D03*
X31299Y-4134D02*
D03*
Y1772D02*
D03*
X18779Y206850D02*
D03*
Y212756D02*
D03*
X-24094Y212953D02*
D03*
Y207047D02*
D03*
X-24488Y193661D02*
D03*
Y199567D02*
D03*
X24331Y-199764D02*
D03*
X24331Y-193858D02*
D03*
X23937Y-207244D02*
D03*
Y-213150D02*
D03*
X-18937Y-212953D02*
D03*
Y-207047D02*
D03*
D106*
X62165Y39410D02*
D03*
X64921D02*
D03*
X41142Y-97441D02*
D03*
X38386D02*
D03*
X-78346Y11811D02*
D03*
X-81102D02*
D03*
D107*
X23622Y-78039D02*
D03*
Y-83353D02*
D03*
X2165Y-60150D02*
D03*
Y-54835D02*
D03*
D108*
X-82677Y-12008D02*
D03*
Y-5709D02*
D03*
X-77756Y-12008D02*
D03*
Y-5709D02*
D03*
D109*
X-65945Y41634D02*
D03*
Y50886D02*
D03*
X-73858Y50886D02*
D03*
Y41634D02*
D03*
D110*
X11535Y-75000D02*
D03*
Y-64370D02*
D03*
X53740Y-85433D02*
D03*
Y-96063D02*
D03*
X68071Y44528D02*
D03*
Y55158D02*
D03*
X76063Y44606D02*
D03*
Y55236D02*
D03*
D111*
X28150Y-88779D02*
D03*
X17520D02*
D03*
X35827Y-90354D02*
D03*
X46457D02*
D03*
X30118Y-97244D02*
D03*
X19488D02*
D03*
X-51161Y57086D02*
D03*
X-40532D02*
D03*
X-52815Y95315D02*
D03*
X-42185D02*
D03*
D112*
X61417Y-53130D02*
D03*
X57480D02*
D03*
X-84882Y-27205D02*
D03*
X-88819D02*
D03*
X40354Y2165D02*
D03*
X36417D02*
D03*
X39961Y-13583D02*
D03*
X43898D02*
D03*
X-9449Y-50590D02*
D03*
X-13386D02*
D03*
X-68110Y-2756D02*
D03*
X-72047D02*
D03*
X-68110Y-6299D02*
D03*
X-72047D02*
D03*
X-9449Y-47047D02*
D03*
X-13386D02*
D03*
X36811Y-18504D02*
D03*
X32874D02*
D03*
X315Y228504D02*
D03*
X-3622D02*
D03*
X-3622Y224961D02*
D03*
X315D02*
D03*
X-3622Y157244D02*
D03*
X315D02*
D03*
X-1654Y175748D02*
D03*
X-5590D02*
D03*
X5433Y-175945D02*
D03*
X1496D02*
D03*
X-472Y-157441D02*
D03*
X3465D02*
D03*
X-472Y-225157D02*
D03*
X3465D02*
D03*
X3464Y-228701D02*
D03*
X-472D02*
D03*
D113*
X51772Y-66929D02*
D03*
Y-70866D02*
D03*
X61614Y-91142D02*
D03*
Y-87205D02*
D03*
X29724Y-44291D02*
D03*
Y-48228D02*
D03*
X-89213Y-22165D02*
D03*
Y-18228D02*
D03*
X-17913Y49213D02*
D03*
Y53150D02*
D03*
X29528Y-9449D02*
D03*
Y-13386D02*
D03*
X-13976Y49213D02*
D03*
Y53150D02*
D03*
X-3740Y240787D02*
D03*
Y236851D02*
D03*
X16535Y232756D02*
D03*
Y228819D02*
D03*
X5827Y224567D02*
D03*
X5827Y228504D02*
D03*
X7795Y163543D02*
D03*
Y167480D02*
D03*
X16811Y199370D02*
D03*
Y203307D02*
D03*
X-18976Y208425D02*
D03*
Y212362D02*
D03*
X-19370Y194646D02*
D03*
Y198583D02*
D03*
X19213Y-198779D02*
D03*
Y-194842D02*
D03*
X18819Y-212559D02*
D03*
Y-208622D02*
D03*
X-16969Y-203504D02*
D03*
Y-199567D02*
D03*
X-7953Y-167677D02*
D03*
Y-163740D02*
D03*
X-5984Y-228701D02*
D03*
X-5984Y-224764D02*
D03*
X-16693Y-229016D02*
D03*
Y-232953D02*
D03*
X3583Y-237047D02*
D03*
Y-240984D02*
D03*
D114*
X-222602Y-129308D02*
D03*
X-217149Y-138753D02*
D03*
X-211696Y-148197D02*
D03*
X222603Y129383D02*
D03*
X217150Y138827D02*
D03*
X211697Y148272D02*
D03*
D115*
X9665Y181161D02*
D03*
Y183721D02*
D03*
Y186279D02*
D03*
Y188839D02*
D03*
Y191398D02*
D03*
Y193957D02*
D03*
Y196516D02*
D03*
Y199075D02*
D03*
Y201634D02*
D03*
Y204193D02*
D03*
Y206752D02*
D03*
Y209311D02*
D03*
Y211870D02*
D03*
Y214429D02*
D03*
X-12972Y181161D02*
D03*
Y183721D02*
D03*
Y186279D02*
D03*
Y188839D02*
D03*
Y191398D02*
D03*
Y193957D02*
D03*
Y196516D02*
D03*
Y199075D02*
D03*
Y201634D02*
D03*
Y204193D02*
D03*
Y206752D02*
D03*
Y209311D02*
D03*
Y211870D02*
D03*
Y214429D02*
D03*
X12815Y-214626D02*
D03*
Y-212067D02*
D03*
Y-209508D02*
D03*
Y-206949D02*
D03*
Y-204390D02*
D03*
Y-201831D02*
D03*
Y-199272D02*
D03*
Y-196713D02*
D03*
Y-194153D02*
D03*
Y-191595D02*
D03*
Y-189035D02*
D03*
Y-186476D02*
D03*
Y-183917D02*
D03*
Y-181358D02*
D03*
X-9823Y-214626D02*
D03*
Y-212067D02*
D03*
Y-209508D02*
D03*
Y-206949D02*
D03*
Y-204390D02*
D03*
Y-201831D02*
D03*
Y-199272D02*
D03*
Y-196713D02*
D03*
Y-194153D02*
D03*
Y-191595D02*
D03*
Y-189035D02*
D03*
Y-186476D02*
D03*
Y-183917D02*
D03*
Y-181358D02*
D03*
D116*
X1890Y232835D02*
D03*
X-3622D02*
D03*
X5827Y220630D02*
D03*
X315D02*
D03*
X-5984Y-220827D02*
D03*
X-472D02*
D03*
X-2047Y-233032D02*
D03*
X3465D02*
D03*
D117*
X12402Y227283D02*
D03*
X12402Y232795D02*
D03*
X7244Y232953D02*
D03*
Y238465D02*
D03*
X-7402Y-233150D02*
D03*
Y-238661D02*
D03*
X-12559Y-227480D02*
D03*
Y-232992D02*
D03*
D118*
X-9035Y219843D02*
D03*
X8878Y-220039D02*
D03*
D119*
X-9035Y225354D02*
D03*
Y230866D02*
D03*
X-18681D02*
D03*
Y225354D02*
D03*
Y219843D02*
D03*
X18524Y-220039D02*
D03*
Y-225551D02*
D03*
Y-231063D02*
D03*
X8878D02*
D03*
Y-225551D02*
D03*
D120*
X-12559Y257638D02*
D03*
X-1654D02*
D03*
X9252D02*
D03*
X-9409Y-257835D02*
D03*
X1496D02*
D03*
X12402D02*
D03*
D121*
X157148Y124643D02*
D03*
X153739Y122674D02*
D03*
X169279Y131191D02*
D03*
X165869Y129223D02*
D03*
X179330Y95671D02*
D03*
X175921Y93702D02*
D03*
X143796Y85565D02*
D03*
X140386Y83597D02*
D03*
X195659Y117782D02*
D03*
X192250Y115814D02*
D03*
X201286Y108666D02*
D03*
X204696Y110634D02*
D03*
X198104Y130241D02*
D03*
X201514Y132209D02*
D03*
X-157147Y-124568D02*
D03*
X-153737Y-122600D02*
D03*
X-169277Y-131117D02*
D03*
X-165868Y-129149D02*
D03*
X-179329Y-95597D02*
D03*
X-175919Y-93628D02*
D03*
X-143794Y-85491D02*
D03*
X-140385Y-83523D02*
D03*
X-195658Y-117708D02*
D03*
X-192248Y-115739D02*
D03*
X-201285Y-108592D02*
D03*
X-204695Y-110560D02*
D03*
X-198103Y-130166D02*
D03*
X-201513Y-132135D02*
D03*
D122*
X176320Y-91027D02*
D03*
X172911Y-89058D02*
D03*
X-177187Y90712D02*
D03*
X-173777Y88743D02*
D03*
X188057Y-98257D02*
D03*
X184647Y-96289D02*
D03*
X-188923Y97942D02*
D03*
X-185513Y95974D02*
D03*
X162321Y-124723D02*
D03*
X158912Y-122754D02*
D03*
X-163187Y124408D02*
D03*
X-159778Y122439D02*
D03*
X135802Y-99001D02*
D03*
X132393Y-97033D02*
D03*
X-136668Y98686D02*
D03*
X-133259Y96718D02*
D03*
X189635Y-127808D02*
D03*
X186225Y-125840D02*
D03*
X-190501Y127494D02*
D03*
X-187091Y125525D02*
D03*
X184553Y-137240D02*
D03*
X187963Y-139208D02*
D03*
X-185419Y136925D02*
D03*
X-188829Y138893D02*
D03*
X201646Y-123696D02*
D03*
X205056Y-125665D02*
D03*
X-202513Y123381D02*
D03*
X-205922Y125350D02*
D03*
D123*
X144263Y101292D02*
D03*
X146231Y97882D02*
D03*
X131191Y86926D02*
D03*
X129222Y90335D02*
D03*
X189835Y120784D02*
D03*
X187866Y124193D02*
D03*
X190935Y125965D02*
D03*
X192903Y122555D02*
D03*
X-144262Y-101218D02*
D03*
X-146230Y-97808D02*
D03*
X-131189Y-86851D02*
D03*
X-129221Y-90261D02*
D03*
X-189833Y-120710D02*
D03*
X-187865Y-124119D02*
D03*
X-190934Y-125891D02*
D03*
X-192902Y-122481D02*
D03*
D124*
X149655Y-91543D02*
D03*
X147687Y-94952D02*
D03*
X-150521Y91228D02*
D03*
X-148553Y94638D02*
D03*
X130677Y-87405D02*
D03*
X132646Y-83996D02*
D03*
X-131544Y87090D02*
D03*
X-133512Y83681D02*
D03*
X189322Y-121263D02*
D03*
X191290Y-117854D02*
D03*
X-190188Y120948D02*
D03*
X-192156Y117539D02*
D03*
X194359Y-119626D02*
D03*
X192390Y-123035D02*
D03*
X-195225Y119311D02*
D03*
X-193256Y122720D02*
D03*
D125*
X213153Y-145342D02*
D03*
X218605Y-135897D02*
D03*
X224058Y-126453D02*
D03*
X-214019Y145027D02*
D03*
X-219471Y135582D02*
D03*
X-224924Y126138D02*
D03*
D126*
X175904Y134676D02*
D03*
X180678Y137432D02*
D03*
X185451Y140188D02*
D03*
X190274Y131834D02*
D03*
X185501Y129078D02*
D03*
X-175903Y-134602D02*
D03*
X-180677Y-137357D02*
D03*
X-185450Y-140113D02*
D03*
X-190273Y-131760D02*
D03*
X-185499Y-129004D02*
D03*
D127*
X180727Y126322D02*
D03*
X-180726Y-126248D02*
D03*
D128*
X194387Y-102253D02*
D03*
X199161Y-105009D02*
D03*
X203934Y-107765D02*
D03*
X199111Y-116119D02*
D03*
X194338Y-113363D02*
D03*
X-195254Y101938D02*
D03*
X-200027Y104694D02*
D03*
X-204800Y107450D02*
D03*
X-199978Y115804D02*
D03*
X-195204Y113048D02*
D03*
D129*
X189565Y-110607D02*
D03*
X-190431Y110292D02*
D03*
D130*
X188840Y113845D02*
D03*
X186084Y118618D02*
D03*
X197441Y123357D02*
D03*
X194685Y128130D02*
D03*
X-188839Y-113771D02*
D03*
X-186083Y-118544D02*
D03*
X-197440Y-123283D02*
D03*
X-194684Y-128056D02*
D03*
D131*
X182815Y-123872D02*
D03*
X185571Y-119098D02*
D03*
X-183682Y123556D02*
D03*
X-186437Y118783D02*
D03*
X195353Y-126564D02*
D03*
X198109Y-121791D02*
D03*
X-196220Y126249D02*
D03*
X-198976Y121476D02*
D03*
D132*
X200221Y118779D02*
D03*
X204994Y121535D02*
D03*
X197890Y111478D02*
D03*
X202663Y114234D02*
D03*
X-200220Y-118705D02*
D03*
X-204993Y-121461D02*
D03*
X-197889Y-111404D02*
D03*
X-202662Y-114160D02*
D03*
D133*
X192779Y-131260D02*
D03*
X197552Y-134016D02*
D03*
X-193645Y130945D02*
D03*
X-198418Y133701D02*
D03*
X185290Y-132892D02*
D03*
X190064Y-135648D02*
D03*
X-186156Y132577D02*
D03*
X-190930Y135333D02*
D03*
D134*
X155442Y129567D02*
D03*
X150327Y126614D02*
D03*
X162117Y132966D02*
D03*
X167231Y135919D02*
D03*
X188497Y98691D02*
D03*
X183383Y95738D02*
D03*
X-155440Y-129493D02*
D03*
X-150326Y-126540D02*
D03*
X-162116Y-132892D02*
D03*
X-167230Y-135845D02*
D03*
X-188496Y-98617D02*
D03*
X-183382Y-95664D02*
D03*
D135*
X179732Y-87086D02*
D03*
X174618Y-84134D02*
D03*
X-180598Y86771D02*
D03*
X-175484Y83819D02*
D03*
X186013Y-91168D02*
D03*
X191128Y-94120D02*
D03*
X-186879Y90853D02*
D03*
X-191994Y93805D02*
D03*
X169520Y-131152D02*
D03*
X164406Y-128199D02*
D03*
X-170386Y130837D02*
D03*
X-165272Y127884D02*
D03*
D136*
X174071Y127025D02*
D03*
X171854Y125746D02*
D03*
X169638Y124466D02*
D03*
X167422Y123187D02*
D03*
X165206Y121907D02*
D03*
X162990Y120627D02*
D03*
X160773Y119348D02*
D03*
X158557Y118069D02*
D03*
X156341Y116789D02*
D03*
X154125Y115509D02*
D03*
X151909Y114230D02*
D03*
X149692Y112950D02*
D03*
X147476Y111671D02*
D03*
X145260Y110391D02*
D03*
X185389Y107420D02*
D03*
X183173Y106141D02*
D03*
X180957Y104861D02*
D03*
X178741Y103582D02*
D03*
X176525Y102302D02*
D03*
X174309Y101023D02*
D03*
X172092Y99743D02*
D03*
X169876Y98463D02*
D03*
X167660Y97184D02*
D03*
X165444Y95904D02*
D03*
X163227Y94625D02*
D03*
X161011Y93345D02*
D03*
X158795Y92066D02*
D03*
X156579Y90786D02*
D03*
X-174069Y-126951D02*
D03*
X-171853Y-125672D02*
D03*
X-169637Y-124392D02*
D03*
X-167421Y-123112D02*
D03*
X-165205Y-121833D02*
D03*
X-162988Y-120553D02*
D03*
X-160772Y-119274D02*
D03*
X-158556Y-117994D02*
D03*
X-156340Y-116715D02*
D03*
X-154124Y-115435D02*
D03*
X-151907Y-114156D02*
D03*
X-149691Y-112876D02*
D03*
X-147475Y-111597D02*
D03*
X-145259Y-110317D02*
D03*
X-185388Y-107346D02*
D03*
X-183172Y-106067D02*
D03*
X-180956Y-104787D02*
D03*
X-178740Y-103508D02*
D03*
X-176523Y-102228D02*
D03*
X-174307Y-100949D02*
D03*
X-172091Y-99669D02*
D03*
X-169875Y-98390D02*
D03*
X-167659Y-97110D02*
D03*
X-165443Y-95830D02*
D03*
X-163226Y-94551D02*
D03*
X-161010Y-93271D02*
D03*
X-158794Y-91992D02*
D03*
X-156578Y-90712D02*
D03*
D137*
X186845Y-104491D02*
D03*
X184629Y-103211D02*
D03*
X182413Y-101932D02*
D03*
X180196Y-100652D02*
D03*
X177980Y-99373D02*
D03*
X175764Y-98093D02*
D03*
X173548Y-96813D02*
D03*
X171332Y-95534D02*
D03*
X169115Y-94254D02*
D03*
X166899Y-92975D02*
D03*
X164683Y-91695D02*
D03*
X162467Y-90416D02*
D03*
X160250Y-89136D02*
D03*
X158034Y-87857D02*
D03*
X175526Y-124095D02*
D03*
X173310Y-122816D02*
D03*
X171094Y-121536D02*
D03*
X168877Y-120257D02*
D03*
X166661Y-118977D02*
D03*
X164445Y-117698D02*
D03*
X162229Y-116418D02*
D03*
X160013Y-115139D02*
D03*
X157796Y-113859D02*
D03*
X155580Y-112580D02*
D03*
X153364Y-111300D02*
D03*
X151148Y-110021D02*
D03*
X148932Y-108741D02*
D03*
X146715Y-107462D02*
D03*
X-187711Y104176D02*
D03*
X-185495Y102896D02*
D03*
X-183279Y101617D02*
D03*
X-181062Y100337D02*
D03*
X-178846Y99058D02*
D03*
X-176630Y97778D02*
D03*
X-174414Y96499D02*
D03*
X-172198Y95219D02*
D03*
X-169981Y93939D02*
D03*
X-167765Y92660D02*
D03*
X-165549Y91380D02*
D03*
X-163333Y90101D02*
D03*
X-161117Y88821D02*
D03*
X-158900Y87542D02*
D03*
X-176392Y123781D02*
D03*
X-174176Y122501D02*
D03*
X-171960Y121221D02*
D03*
X-169744Y119942D02*
D03*
X-167527Y118662D02*
D03*
X-165311Y117383D02*
D03*
X-163095Y116103D02*
D03*
X-160879Y114824D02*
D03*
X-158662Y113544D02*
D03*
X-156446Y112265D02*
D03*
X-154230Y110985D02*
D03*
X-152014Y109706D02*
D03*
X-149798Y108426D02*
D03*
X-147582Y107147D02*
D03*
D138*
X136293Y87143D02*
D03*
X131962Y94644D02*
D03*
X137758Y97991D02*
D03*
X-136292Y-87069D02*
D03*
X-131961Y-94570D02*
D03*
X-137757Y-97917D02*
D03*
D139*
X142089Y90490D02*
D03*
X-142088Y-90416D02*
D03*
D140*
X133417Y-91715D02*
D03*
X137748Y-84214D02*
D03*
X143544Y-87560D02*
D03*
X-134284Y91400D02*
D03*
X-138614Y83899D02*
D03*
X-144411Y87245D02*
D03*
D141*
X139214Y-95061D02*
D03*
X-140080Y94746D02*
D03*
D142*
X-33720Y75984D02*
D03*
D143*
X-57342Y66929D02*
D03*
Y75984D02*
D03*
Y85039D02*
D03*
D144*
X0Y59055D02*
D03*
Y-72835D02*
D03*
X-51181D02*
D03*
D145*
X-108661Y15453D02*
D03*
Y-15059D02*
D03*
D146*
X-96850Y8957D02*
D03*
Y-8563D02*
D03*
D147*
X-108661Y9547D02*
D03*
Y-9154D02*
D03*
D148*
X71063Y12008D02*
D03*
Y-7992D02*
D03*
Y2008D02*
D03*
X61063Y-12992D02*
D03*
Y-2992D02*
D03*
Y7008D02*
D03*
Y17008D02*
D03*
X115354Y14409D02*
D03*
X109370Y-15394D02*
D03*
X115354Y-25394D02*
D03*
X109370Y24409D02*
D03*
X-15236Y70709D02*
D03*
Y80709D02*
D03*
X-5236Y70709D02*
D03*
Y80709D02*
D03*
X4764Y70709D02*
D03*
Y80709D02*
D03*
X14764Y70709D02*
D03*
X-95630Y24961D02*
D03*
X18268Y146378D02*
D03*
Y136378D02*
D03*
X8268Y146378D02*
D03*
Y136378D02*
D03*
X-1732Y146378D02*
D03*
Y136378D02*
D03*
X-11732Y146378D02*
D03*
X-11732Y136378D02*
D03*
X-21732Y146378D02*
D03*
X18268Y118819D02*
D03*
Y108819D02*
D03*
X8268Y118819D02*
D03*
Y108819D02*
D03*
X-1732Y118819D02*
D03*
Y108819D02*
D03*
X-11732Y118819D02*
D03*
X-11732Y108819D02*
D03*
X-21732Y118819D02*
D03*
X86890Y86806D02*
D03*
X83230Y73146D02*
D03*
X91890Y78146D02*
D03*
X88230Y64486D02*
D03*
X96890Y69486D02*
D03*
X93230Y55826D02*
D03*
X101890Y60826D02*
D03*
X98229Y47165D02*
D03*
X106890Y52165D02*
D03*
X108424Y-49099D02*
D03*
X94764Y-52759D02*
D03*
X103424Y-57759D02*
D03*
X89764Y-61420D02*
D03*
X98424Y-66420D02*
D03*
X84764Y-70080D02*
D03*
X93424Y-75080D02*
D03*
X79764Y-78740D02*
D03*
X88424Y-83740D02*
D03*
X21575Y-119016D02*
D03*
X11575Y-109016D02*
D03*
Y-119016D02*
D03*
X1575Y-109016D02*
D03*
Y-119016D02*
D03*
X-8425Y-109016D02*
D03*
Y-119016D02*
D03*
X-18425Y-109016D02*
D03*
Y-119016D02*
D03*
X-109290Y48784D02*
D03*
X-95630Y52444D02*
D03*
X-104290Y57444D02*
D03*
X-90630Y61105D02*
D03*
X-99290Y66105D02*
D03*
X-85630Y69765D02*
D03*
X-94290Y74765D02*
D03*
X-80630Y78425D02*
D03*
X-89290Y83425D02*
D03*
X110757Y100586D02*
D03*
X107096Y86926D02*
D03*
X115757Y91926D02*
D03*
X112096Y78265D02*
D03*
X120757Y83265D02*
D03*
X117096Y69605D02*
D03*
X125757Y74605D02*
D03*
X122096Y60945D02*
D03*
X130757Y65945D02*
D03*
X132291Y-62879D02*
D03*
X118631Y-66539D02*
D03*
X127291Y-71539D02*
D03*
X113631Y-75199D02*
D03*
X122291Y-80199D02*
D03*
X108631Y-83859D02*
D03*
X117291Y-88859D02*
D03*
X103631Y-92520D02*
D03*
X112291Y-97520D02*
D03*
X21575Y-146575D02*
D03*
X11575Y-136575D02*
D03*
Y-146575D02*
D03*
X1575Y-136575D02*
D03*
Y-146575D02*
D03*
X-8425Y-136575D02*
D03*
X-8425Y-146575D02*
D03*
X-18425Y-136575D02*
D03*
Y-146575D02*
D03*
X-133157Y62564D02*
D03*
X-119497Y66224D02*
D03*
X-128157Y71224D02*
D03*
X-114497Y74884D02*
D03*
X-123157Y79884D02*
D03*
X-109497Y83544D02*
D03*
X-118157Y88544D02*
D03*
X-104497Y92205D02*
D03*
X-113157Y97205D02*
D03*
X-110755Y-100512D02*
D03*
X-107095Y-86852D02*
D03*
X-115755Y-91852D02*
D03*
X-112095Y-78191D02*
D03*
X-120755Y-83191D02*
D03*
X-117095Y-69531D02*
D03*
X-125755Y-74531D02*
D03*
X-122095Y-60871D02*
D03*
X-130755Y-65871D02*
D03*
X-86889Y-86732D02*
D03*
X-83228Y-73072D02*
D03*
X-91889Y-78072D02*
D03*
X-88228Y-64412D02*
D03*
X-96889Y-69412D02*
D03*
X-93228Y-55752D02*
D03*
X-101889Y-60751D02*
D03*
X-98228Y-47091D02*
D03*
X-106889Y-52091D02*
D03*
D149*
X71063Y-17992D02*
D03*
D150*
X84055Y-31496D02*
D03*
Y30512D02*
D03*
D151*
X96063Y-22992D02*
D03*
Y22008D02*
D03*
D152*
X14764Y80709D02*
D03*
X-85630Y24961D02*
D03*
X-21732Y136378D02*
D03*
Y108819D02*
D03*
X21575Y-109016D02*
D03*
Y-136575D02*
D03*
D153*
X78229Y81806D02*
D03*
X102096Y95586D02*
D03*
X-102095Y-95512D02*
D03*
X-78228Y-81732D02*
D03*
D154*
X99764Y-44099D02*
D03*
X-100630Y43784D02*
D03*
X123631Y-57879D02*
D03*
X-124497Y57564D02*
D03*
D155*
X85807Y-42500D02*
D03*
X63957Y-42264D02*
D03*
X-88169Y-58209D02*
D03*
X-5709Y-98071D02*
D03*
X-1476Y-103563D02*
D03*
X6319Y-100728D02*
D03*
X-79370Y-19134D02*
D03*
X-33720Y33622D02*
D03*
X-36949D02*
D03*
X-40177D02*
D03*
X8839Y93878D02*
D03*
X94075Y61398D02*
D03*
X99055Y53091D02*
D03*
X99429Y32342D02*
D03*
X117244Y-1142D02*
D03*
X94902Y-1181D02*
D03*
X117205Y2224D02*
D03*
X94764Y2185D02*
D03*
X-81496Y58425D02*
D03*
X-102224Y-5000D02*
D03*
X-77126Y46299D02*
D03*
X-13583Y24980D02*
D03*
X-14429Y33504D02*
D03*
X-53839Y7933D02*
D03*
X10295Y-59587D02*
D03*
X3366Y-81319D02*
D03*
X-26260Y-61732D02*
D03*
X-27323Y-120630D02*
D03*
X-83248Y-93465D02*
D03*
X81437Y-64921D02*
D03*
X111594Y-40591D02*
D03*
X73642Y31319D02*
D03*
X81299Y-15059D02*
D03*
X86594Y-23937D02*
D03*
X106378Y-8917D02*
D03*
Y13406D02*
D03*
X39075Y70866D02*
D03*
X50591Y115847D02*
D03*
X80374Y97776D02*
D03*
X47461Y100079D02*
D03*
X17953Y87008D02*
D03*
X-48996Y20571D02*
D03*
X106614Y-26988D02*
D03*
X15354Y-25709D02*
D03*
X-10630D02*
D03*
X-78228Y58425D02*
D03*
X-85061Y54364D02*
D03*
X-60610Y46555D02*
D03*
X-82224Y92028D02*
D03*
X73622Y60039D02*
D03*
X79862Y65551D02*
D03*
X-6813Y63796D02*
D03*
X12933Y60571D02*
D03*
X27520Y112736D02*
D03*
X-7835Y49961D02*
D03*
X111004Y44921D02*
D03*
X57638Y-35079D02*
D03*
X29816Y-52740D02*
D03*
X20394Y-69961D02*
D03*
X30709Y-63779D02*
D03*
X13271Y-68797D02*
D03*
X48524Y-16260D02*
D03*
X33051Y-15531D02*
D03*
X-22736Y-101339D02*
D03*
X-26260Y-83484D02*
D03*
X-13327Y-101142D02*
D03*
X73169Y-89567D02*
D03*
X35236Y-63779D02*
D03*
Y-68504D02*
D03*
X30709D02*
D03*
X30758Y-44882D02*
D03*
X-36654Y-36142D02*
D03*
X-92185Y-4921D02*
D03*
X21358Y-89016D02*
D03*
X53681Y-90886D02*
D03*
X-14846Y-49245D02*
D03*
X58839Y-63327D02*
D03*
X59346Y-48016D02*
D03*
X54016Y-48661D02*
D03*
X56102Y-45591D02*
D03*
X61457Y-45039D02*
D03*
X50433Y-48661D02*
D03*
X166865Y-105888D02*
D03*
X144972Y-93021D02*
D03*
X142845Y-60879D02*
D03*
X114400Y-110147D02*
D03*
X165007Y-73675D02*
D03*
X136562Y-122943D02*
D03*
X159576Y-136230D02*
D03*
X188021Y-86962D02*
D03*
X180034Y-148041D02*
D03*
X208478Y-98773D02*
D03*
X203614Y-132788D02*
D03*
X209520Y-122559D02*
D03*
X207122Y-134586D02*
D03*
X211749Y-126574D02*
D03*
X142077Y-101578D02*
D03*
X139038Y-71410D02*
D03*
X171174Y-87009D02*
D03*
X188539Y-129766D02*
D03*
X1614Y-198031D02*
D03*
X1811Y-172638D02*
D03*
X28583Y-154724D02*
D03*
X-28307D02*
D03*
X28583Y-180315D02*
D03*
X-28307D02*
D03*
Y-206890D02*
D03*
X28583D02*
D03*
X-28307Y-230512D02*
D03*
X28583D02*
D03*
X-3307Y-243307D02*
D03*
X8504D02*
D03*
X-3110Y-247244D02*
D03*
X6142D02*
D03*
X-7047Y-174409D02*
D03*
X17559Y-156693D02*
D03*
X20118Y-192323D02*
D03*
X-8228Y-228740D02*
D03*
X-165290Y-108954D02*
D03*
X-143201Y-96428D02*
D03*
X-114301Y-110656D02*
D03*
X-142746Y-61388D02*
D03*
X-136463Y-123451D02*
D03*
X-164908Y-74183D02*
D03*
X-187923Y-87471D02*
D03*
X-159478Y-136739D02*
D03*
X-208380Y-99282D02*
D03*
X-179935Y-148550D02*
D03*
X-206961Y-127330D02*
D03*
X-201056Y-137559D02*
D03*
X-210272Y-129469D02*
D03*
X-205646Y-137481D02*
D03*
X-149164Y-89642D02*
D03*
X-121518Y-102094D02*
D03*
X-151095Y-122125D02*
D03*
X-196806Y-115785D02*
D03*
X-189405Y129452D02*
D03*
X-172040Y86694D02*
D03*
X-139904Y71095D02*
D03*
X-142944Y101263D02*
D03*
X-212615Y126259D02*
D03*
X-207989Y134271D02*
D03*
X-210386Y122244D02*
D03*
X-204481Y132473D02*
D03*
X-209345Y98458D02*
D03*
X-180900Y147726D02*
D03*
X-188887Y86647D02*
D03*
X-160442Y135915D02*
D03*
X-137428Y122628D02*
D03*
X-165873Y73360D02*
D03*
X-115266Y109832D02*
D03*
X-143711Y60564D02*
D03*
X-145838Y92706D02*
D03*
X-167731Y105573D02*
D03*
X196806Y115864D02*
D03*
X151095Y122204D02*
D03*
X121518Y102172D02*
D03*
X149164Y89721D02*
D03*
X205646Y137560D02*
D03*
X210272Y129548D02*
D03*
X201055Y137637D02*
D03*
X206961Y127409D02*
D03*
X179935Y148629D02*
D03*
X208380Y99361D02*
D03*
X159478Y136818D02*
D03*
X187923Y87550D02*
D03*
X164908Y74262D02*
D03*
X136463Y123530D02*
D03*
X142746Y61467D02*
D03*
X114301Y110735D02*
D03*
X143201Y96507D02*
D03*
X165290Y109033D02*
D03*
X-1772Y197835D02*
D03*
X-1969Y172441D02*
D03*
X-28740Y154528D02*
D03*
X28150D02*
D03*
X-28740Y180118D02*
D03*
X28150D02*
D03*
Y206693D02*
D03*
X-28740D02*
D03*
X28150Y230315D02*
D03*
X-28740D02*
D03*
X3150Y243110D02*
D03*
X-8661D02*
D03*
X2953Y247047D02*
D03*
X-6299D02*
D03*
X6890Y174213D02*
D03*
X-17717Y156496D02*
D03*
X-20276Y192126D02*
D03*
X8071Y228543D02*
D03*
X32559Y-29252D02*
D03*
X45118Y-28110D02*
D03*
X33616Y-35146D02*
D03*
X16614Y-33740D02*
D03*
X-16732Y-24606D02*
D03*
X-18622Y-28307D02*
D03*
X29055Y-104960D02*
D03*
X17087Y50118D02*
D03*
X19410Y47362D02*
D03*
X21669Y71657D02*
D03*
Y67888D02*
D03*
X-6378Y-62756D02*
D03*
X-12874Y-61535D02*
D03*
X-6378Y-59173D02*
D03*
X-10276Y-64016D02*
D03*
X7795Y-91929D02*
D03*
X-10000Y-83031D02*
D03*
X9685Y58386D02*
D03*
X14921Y53110D02*
D03*
X-77716Y16378D02*
D03*
X-53819Y14764D02*
D03*
X-70866Y13110D02*
D03*
X-70079Y9567D02*
D03*
X-66417Y13504D02*
D03*
X-70866Y1969D02*
D03*
X-17323Y-17441D02*
D03*
X-16850Y-21024D02*
D03*
X-315Y-91929D02*
D03*
X86772Y-53858D02*
D03*
X80590Y-58740D02*
D03*
X81417Y-50748D02*
D03*
X78976Y-45630D02*
D03*
X-67795Y29803D02*
D03*
X16457Y-106659D02*
D03*
X-1811Y25827D02*
D03*
X-65669Y-85669D02*
D03*
X-21181Y93386D02*
D03*
X-2283Y85000D02*
D03*
X-7087Y87756D02*
D03*
X1811Y85000D02*
D03*
X-11654Y84370D02*
D03*
X1811Y95630D02*
D03*
X1850Y101221D02*
D03*
X-66693Y-93661D02*
D03*
X-69449Y-86496D02*
D03*
X5945Y102795D02*
D03*
X-3701Y-56496D02*
D03*
X-709Y-54370D02*
D03*
X2677Y29331D02*
D03*
X-3543Y95748D02*
D03*
X-162827Y127473D02*
D03*
X-176246Y118915D02*
D03*
X-179216Y125070D02*
D03*
X-190033Y111767D02*
D03*
X-154458Y84409D02*
D03*
X-151049Y82440D02*
D03*
X-147639Y80472D02*
D03*
X-170093Y82525D02*
D03*
X-171931Y132729D02*
D03*
X-197166Y136343D02*
D03*
X-184302Y87364D02*
D03*
X-181803Y-93752D02*
D03*
X-181102Y-109652D02*
D03*
X-187917Y-109147D02*
D03*
X-181805Y-125166D02*
D03*
X-140324Y-108037D02*
D03*
X-136915Y-106068D02*
D03*
X-133505Y-104100D02*
D03*
X-146511Y-122519D02*
D03*
X-190907Y-99008D02*
D03*
X-206654Y-119056D02*
D03*
X-157806Y-132404D02*
D03*
X-19803Y-204724D02*
D03*
X-5682Y-212067D02*
D03*
X-9528Y-217717D02*
D03*
X7402Y-220433D02*
D03*
X13307Y-175945D02*
D03*
Y-172008D02*
D03*
Y-168071D02*
D03*
X22756Y-188543D02*
D03*
X-19803Y-215236D02*
D03*
X-10315Y-238898D02*
D03*
X25669Y-203268D02*
D03*
X161961Y-127788D02*
D03*
X175380Y-119230D02*
D03*
X178350Y-125385D02*
D03*
X189167Y-112082D02*
D03*
X169227Y-82840D02*
D03*
X171064Y-133044D02*
D03*
X196300Y-136657D02*
D03*
X183436Y-87679D02*
D03*
X181805Y93826D02*
D03*
X181103Y109727D02*
D03*
X187918Y109221D02*
D03*
X181806Y125241D02*
D03*
X133506Y104174D02*
D03*
X146512Y122593D02*
D03*
X190908Y99082D02*
D03*
X206655Y119130D02*
D03*
X157807Y132478D02*
D03*
X36076Y-82724D02*
D03*
X-18307Y75787D02*
D03*
X40551Y-18701D02*
D03*
X10158Y238701D02*
D03*
X19646Y215039D02*
D03*
X-25827Y203071D02*
D03*
X-13465Y171811D02*
D03*
X-22913Y188346D02*
D03*
X-13465Y175748D02*
D03*
X9370Y217520D02*
D03*
X19646Y204527D02*
D03*
X5525Y211870D02*
D03*
X-7559Y220236D02*
D03*
X-13465Y167874D02*
D03*
X33307Y-51221D02*
D03*
X19488Y-42598D02*
D03*
X-64567Y35157D02*
D03*
X-70590Y27126D02*
D03*
X9134Y-34921D02*
D03*
X23071Y-43464D02*
D03*
X30433Y-9567D02*
D03*
X38661Y-53031D02*
D03*
X12677Y56024D02*
D03*
X-2453Y31740D02*
D03*
X21669Y93878D02*
D03*
X-67716Y-6299D02*
D03*
X-52284Y3150D02*
D03*
X-37716Y-787D02*
D03*
X-5692Y-14961D02*
D03*
X-8133Y-47146D02*
D03*
X-26102Y-35315D02*
D03*
X-25787Y-48740D02*
D03*
X7677Y19842D02*
D03*
X-39252Y24685D02*
D03*
X5433Y32362D02*
D03*
X79Y34488D02*
D03*
X-21969Y17244D02*
D03*
X-70157Y32480D02*
D03*
X38819Y80276D02*
D03*
X38583Y88346D02*
D03*
X38661Y96063D02*
D03*
X38740Y103858D02*
D03*
X42756Y23425D02*
D03*
X15551Y1575D02*
D03*
X18536Y-8162D02*
D03*
X17913Y-1378D02*
D03*
X34420Y12795D02*
D03*
X34449Y9055D02*
D03*
X18504Y4331D02*
D03*
X14685Y8071D02*
D03*
X13780Y11654D02*
D03*
X44528Y27244D02*
D03*
X17008Y14095D02*
D03*
X46291Y30491D02*
D03*
X47323Y72520D02*
D03*
X27992Y67756D02*
D03*
X29724Y64370D02*
D03*
X32559Y62126D02*
D03*
X33189Y58465D02*
D03*
X57835D02*
D03*
X150183Y-82755D02*
D03*
X146773Y-80787D02*
D03*
X153592Y-84724D02*
D03*
X136916Y106142D02*
D03*
X140325Y108111D02*
D03*
X-21654Y47677D02*
D03*
X-11535Y48386D02*
D03*
X10912Y-12189D02*
D03*
X85807Y-77382D02*
D03*
X-63110Y109153D02*
D03*
X-67736Y102067D02*
D03*
X-31142Y99724D02*
D03*
X-40551Y75984D02*
D03*
Y78740D02*
D03*
Y81496D02*
D03*
Y73228D02*
D03*
Y70472D02*
D03*
X-43307D02*
D03*
Y73228D02*
D03*
Y75984D02*
D03*
Y78740D02*
D03*
Y81496D02*
D03*
X-65748D02*
D03*
Y78740D02*
D03*
Y75984D02*
D03*
Y73228D02*
D03*
Y70472D02*
D03*
X-68504D02*
D03*
Y73228D02*
D03*
Y75984D02*
D03*
Y78740D02*
D03*
X-65748Y88583D02*
D03*
Y91339D02*
D03*
X-68504D02*
D03*
Y88583D02*
D03*
X-41339Y119882D02*
D03*
X-37795D02*
D03*
X-88779Y32087D02*
D03*
Y35039D02*
D03*
X-91732D02*
D03*
Y32087D02*
D03*
X-47037Y50984D02*
D03*
X-50590Y51220D02*
D03*
X-39449Y50984D02*
D03*
X-43386Y50866D02*
D03*
X-35725Y47677D02*
D03*
X-30709Y-34843D02*
D03*
X-26713Y-30827D02*
D03*
X-52402Y-12874D02*
D03*
X-49035Y-8268D02*
D03*
X-37933Y-19665D02*
D03*
X-41693Y-23524D02*
D03*
X-70079Y46201D02*
D03*
X-17012Y104081D02*
D03*
X-16765Y93374D02*
D03*
X-54724Y57086D02*
D03*
X-50610Y-83524D02*
D03*
D156*
X215132Y-106933D02*
D03*
X190427Y-149723D02*
D03*
X24843Y-240354D02*
D03*
X-24567D02*
D03*
X-190329Y-150232D02*
D03*
X-215034Y-107442D02*
D03*
X-191294Y149408D02*
D03*
X-215998Y106618D02*
D03*
X215034Y107521D02*
D03*
X190329Y150311D02*
D03*
X-25000Y240158D02*
D03*
X24409D02*
D03*
D157*
X-7087Y-10827D02*
D03*
X-11417D02*
D03*
X-15748D02*
D03*
X-20079D02*
D03*
X-24409D02*
D03*
X-28740D02*
D03*
X-7087Y-6496D02*
D03*
X-11417D02*
D03*
X-15748D02*
D03*
X-20079D02*
D03*
X-24409D02*
D03*
X-28740D02*
D03*
X-7087Y-2165D02*
D03*
X-11417D02*
D03*
X-15748D02*
D03*
X-20079D02*
D03*
X-24409D02*
D03*
X-28740D02*
D03*
X-7087Y2165D02*
D03*
X-11417D02*
D03*
X-15748D02*
D03*
X-20079D02*
D03*
X-24409D02*
D03*
X-28740D02*
D03*
X-7087Y6496D02*
D03*
X-11417D02*
D03*
X-15748D02*
D03*
X-20079D02*
D03*
X-24409D02*
D03*
X-28740D02*
D03*
X-7087Y10827D02*
D03*
X-11417D02*
D03*
X-15748D02*
D03*
X-20079D02*
D03*
X-24409D02*
D03*
X-28740D02*
D03*
M02*
