G04 Layer_Color=32896*
%FSLAX25Y25*%
%MOIN*%
G70*
G01*
G75*
%ADD86C,0.00787*%
D86*
X5906Y-72835D02*
G03*
X5906Y-72835I-5906J0D01*
G01*
Y59055D02*
G03*
X5906Y59055I-5906J0D01*
G01*
X-120972Y-36480D02*
Y38189D01*
Y-36480D02*
X-84342Y-99921D01*
X-43307Y-123622D01*
X85782Y99147D02*
X122548Y35472D01*
X-120977Y38192D02*
X-85783Y99146D01*
X-43307Y123622D01*
X43307D02*
X85782Y99147D01*
X122548Y35472D02*
X139291D01*
Y-36479D02*
Y35472D01*
X120973Y-36479D02*
X139291D01*
X43307Y-123622D02*
X84342Y-99921D01*
X-43307Y-123622D02*
X43307D01*
X84344Y-99923D02*
X120973Y-36479D01*
X-43307Y123622D02*
X43307D01*
X-67362Y-87795D02*
Y87947D01*
Y-87795D02*
X67482D01*
Y87756D01*
X-107321Y-18701D02*
Y18701D01*
X-88583Y-51181D02*
X-81693Y-46260D01*
X82677Y-48228D02*
X88583Y-51181D01*
X83661Y48228D02*
X88583Y51181D01*
X-88583D02*
X-81693Y46260D01*
X0Y95472D02*
Y102362D01*
Y-102362D02*
Y-97441D01*
X-59055Y-102362D02*
X0D01*
X-118110Y0D02*
X-59055Y-102362D01*
X-118110Y0D02*
X-59055Y102362D01*
X59055D01*
X118110Y0D01*
X59055Y-102362D02*
X118110Y0D01*
X0Y-102362D02*
X59055D01*
M02*
