G04 Layer_Color=0*
%FSLAX25Y25*%
%MOIN*%
G70*
G01*
G75*
%ADD65C,0.01000*%
%ADD88C,0.00500*%
%ADD162C,0.00200*%
%ADD163C,0.00700*%
D65*
X139353Y-286065D02*
X138353Y-285065D01*
X136354D01*
X135354Y-286065D01*
Y-290063D01*
X136354Y-291063D01*
X138353D01*
X139353Y-290063D01*
X141352Y-285065D02*
Y-291063D01*
Y-288064D01*
X142352Y-287064D01*
X144351D01*
X145351Y-288064D01*
Y-291063D01*
X147351Y-287064D02*
Y-291063D01*
Y-289064D01*
X148350Y-288064D01*
X149350Y-287064D01*
X150349D01*
X153349Y-291063D02*
X155348D01*
X154348D01*
Y-287064D01*
X153349D01*
X158347Y-291063D02*
X161346D01*
X162346Y-290063D01*
X161346Y-289064D01*
X159347D01*
X158347Y-288064D01*
X159347Y-287064D01*
X162346D01*
X165345Y-286065D02*
Y-287064D01*
X164345D01*
X166344D01*
X165345D01*
Y-290063D01*
X166344Y-291063D01*
X170343D02*
X172342D01*
X173342Y-290063D01*
Y-288064D01*
X172342Y-287064D01*
X170343D01*
X169343Y-288064D01*
Y-290063D01*
X170343Y-291063D01*
X176341D02*
Y-286065D01*
Y-288064D01*
X175341D01*
X177341D01*
X176341D01*
Y-286065D01*
X177341Y-285065D01*
X186338Y-291063D02*
Y-285065D01*
X189337D01*
X190337Y-286065D01*
Y-288064D01*
X189337Y-289064D01*
X186338D01*
X193336Y-291063D02*
Y-286065D01*
Y-288064D01*
X192336D01*
X194335D01*
X193336D01*
Y-286065D01*
X194335Y-285065D01*
X198334Y-287064D02*
X200333D01*
X201333Y-288064D01*
Y-291063D01*
X198334D01*
X197334Y-290063D01*
X198334Y-289064D01*
X201333D01*
X203332Y-291063D02*
Y-287064D01*
X206331D01*
X207331Y-288064D01*
Y-291063D01*
X209330D02*
Y-287064D01*
X212329D01*
X213329Y-288064D01*
Y-291063D01*
X218327D02*
X216328D01*
X215329Y-290063D01*
Y-288064D01*
X216328Y-287064D01*
X218327D01*
X219327Y-288064D01*
Y-289064D01*
X215329D01*
X221326Y-291063D02*
Y-287064D01*
X224325D01*
X225325Y-288064D01*
Y-291063D01*
X227325D02*
Y-287064D01*
X228324D01*
X229324Y-288064D01*
Y-291063D01*
Y-288064D01*
X230324Y-287064D01*
X231323Y-288064D01*
Y-291063D01*
X233323Y-287064D02*
Y-290063D01*
X234322Y-291063D01*
X237321D01*
Y-287064D01*
X242320Y-291063D02*
X240320D01*
X239321Y-290063D01*
Y-288064D01*
X240320Y-287064D01*
X242320D01*
X243319Y-288064D01*
Y-289064D01*
X239321D01*
X245319Y-291063D02*
X247318D01*
X246318D01*
Y-285065D01*
X245319D01*
X250317Y-291063D02*
X252316D01*
X251317D01*
Y-285065D01*
X250317D01*
X258314Y-291063D02*
X256315D01*
X255315Y-290063D01*
Y-288064D01*
X256315Y-287064D01*
X258314D01*
X259314Y-288064D01*
Y-289064D01*
X255315D01*
X261314Y-287064D02*
Y-291063D01*
Y-289064D01*
X262313Y-288064D01*
X263313Y-287064D01*
X264313D01*
D88*
X-553150Y-409449D02*
X596850D01*
Y350551D01*
X-553150D02*
X596850D01*
X-533150Y-389449D02*
Y330551D01*
Y-389449D02*
X576850D01*
Y330551D01*
X-533150D02*
X576850D01*
X-265650D02*
Y350551D01*
X21850Y330551D02*
Y350551D01*
X309350Y330551D02*
Y350551D01*
X576850Y-219449D02*
X596850D01*
X-553150Y-409449D02*
Y350551D01*
Y160551D02*
X-533150D01*
X-553150Y-29449D02*
X-533150D01*
X-553150Y-219449D02*
X-533150D01*
X-265650Y-409449D02*
Y-389449D01*
X21850Y-409449D02*
Y-389449D01*
X-13150D02*
X126850D01*
Y-299449D02*
X276850D01*
X126850Y-389449D02*
X576850D01*
X126850Y-359449D02*
X576850D01*
X126850Y-329449D02*
X576850D01*
X126850Y-269449D02*
X276850D01*
Y-329449D02*
Y-269449D01*
X576850D01*
Y-389449D02*
Y-269449D01*
X126850Y-389449D02*
Y-269449D01*
X486850Y-389449D02*
Y-329449D01*
X276850Y-389449D02*
Y-329449D01*
X309350Y-409449D02*
Y-389449D01*
X131850Y-334950D02*
Y-339449D01*
Y-334950D02*
X133350D01*
X133993Y-335164D01*
X134421Y-335593D01*
X134635Y-336021D01*
X134850Y-336664D01*
Y-337735D01*
X134635Y-338378D01*
X134421Y-338806D01*
X133993Y-339235D01*
X133350Y-339449D01*
X131850D01*
X139285D02*
X137571Y-334950D01*
X135857Y-339449D01*
X136499Y-337949D02*
X138642D01*
X141834Y-334950D02*
Y-339449D01*
X140334Y-334950D02*
X143334D01*
X146654D02*
X143869D01*
Y-339449D01*
X146654D01*
X143869Y-337092D02*
X145583D01*
X147618Y-336450D02*
X147404Y-336664D01*
X147618Y-336878D01*
X147833Y-336664D01*
X147618Y-336450D01*
Y-339020D02*
X147404Y-339235D01*
X147618Y-339449D01*
X147833Y-339235D01*
X147618Y-339020D01*
X491850Y-334950D02*
Y-339449D01*
Y-334950D02*
X493779D01*
X494421Y-335164D01*
X494635Y-335378D01*
X494850Y-335807D01*
Y-336235D01*
X494635Y-336664D01*
X494421Y-336878D01*
X493779Y-337092D01*
X491850D01*
X493350D02*
X494850Y-339449D01*
X498642Y-334950D02*
X495857D01*
Y-339449D01*
X498642D01*
X495857Y-337092D02*
X497571D01*
X499392Y-334950D02*
X501106Y-339449D01*
X502819Y-334950D02*
X501106Y-339449D01*
X503612Y-336450D02*
X503398Y-336664D01*
X503612Y-336878D01*
X503826Y-336664D01*
X503612Y-336450D01*
Y-339020D02*
X503398Y-339235D01*
X503612Y-339449D01*
X503826Y-339235D01*
X503612Y-339020D01*
X281850Y-364950D02*
Y-369449D01*
Y-364950D02*
X283350D01*
X283993Y-365164D01*
X284421Y-365593D01*
X284635Y-366021D01*
X284850Y-366664D01*
Y-367735D01*
X284635Y-368378D01*
X284421Y-368806D01*
X283993Y-369235D01*
X283350Y-369449D01*
X281850D01*
X285857Y-364950D02*
X286928Y-369449D01*
X287999Y-364950D02*
X286928Y-369449D01*
X287999Y-364950D02*
X289070Y-369449D01*
X290142Y-364950D02*
X289070Y-369449D01*
X294255Y-366021D02*
X294041Y-365593D01*
X293612Y-365164D01*
X293184Y-364950D01*
X292327D01*
X291898Y-365164D01*
X291470Y-365593D01*
X291255Y-366021D01*
X291041Y-366664D01*
Y-367735D01*
X291255Y-368378D01*
X291470Y-368806D01*
X291898Y-369235D01*
X292327Y-369449D01*
X293184D01*
X293612Y-369235D01*
X294041Y-368806D01*
X294255Y-368378D01*
Y-367735D01*
X293184D02*
X294255D01*
X298818Y-364950D02*
Y-369449D01*
Y-364950D02*
X301817Y-369449D01*
Y-364950D02*
Y-369449D01*
X304346Y-364950D02*
X303917Y-365164D01*
X303489Y-365593D01*
X303274Y-366021D01*
X303060Y-366664D01*
Y-367735D01*
X303274Y-368378D01*
X303489Y-368806D01*
X303917Y-369235D01*
X304346Y-369449D01*
X305203D01*
X305631Y-369235D01*
X306060Y-368806D01*
X306274Y-368378D01*
X306488Y-367735D01*
Y-366664D01*
X306274Y-366021D01*
X306060Y-365593D01*
X305631Y-365164D01*
X305203Y-364950D01*
X304346D01*
X307752Y-366449D02*
X307538Y-366664D01*
X307752Y-366878D01*
X307966Y-366664D01*
X307752Y-366449D01*
Y-369020D02*
X307538Y-369235D01*
X307752Y-369449D01*
X307966Y-369235D01*
X307752Y-369020D01*
X134635Y-274950D02*
X131850D01*
Y-279449D01*
X134635D01*
X131850Y-277092D02*
X133564D01*
X135385Y-274950D02*
Y-279449D01*
Y-274950D02*
X138385Y-279449D01*
Y-274950D02*
Y-279449D01*
X142841Y-276021D02*
X142627Y-275592D01*
X142198Y-275164D01*
X141770Y-274950D01*
X140913D01*
X140484Y-275164D01*
X140056Y-275592D01*
X139841Y-276021D01*
X139627Y-276664D01*
Y-277735D01*
X139841Y-278378D01*
X140056Y-278806D01*
X140484Y-279235D01*
X140913Y-279449D01*
X141770D01*
X142198Y-279235D01*
X142627Y-278806D01*
X142841Y-278378D01*
Y-277735D01*
X141770D02*
X142841D01*
X143869Y-274950D02*
Y-279449D01*
X144812Y-274950D02*
Y-279449D01*
Y-274950D02*
X147811Y-279449D01*
Y-274950D02*
Y-279449D01*
X151839Y-274950D02*
X149054D01*
Y-279449D01*
X151839D01*
X149054Y-277092D02*
X150768D01*
X155374Y-274950D02*
X152589D01*
Y-279449D01*
X155374D01*
X152589Y-277092D02*
X154303D01*
X156124Y-274950D02*
Y-279449D01*
Y-274950D02*
X158052D01*
X158695Y-275164D01*
X158909Y-275378D01*
X159123Y-275807D01*
Y-276235D01*
X158909Y-276664D01*
X158695Y-276878D01*
X158052Y-277092D01*
X156124D01*
X157624D02*
X159123Y-279449D01*
X160344Y-276449D02*
X160130Y-276664D01*
X160344Y-276878D01*
X160558Y-276664D01*
X160344Y-276449D01*
Y-279020D02*
X160130Y-279235D01*
X160344Y-279449D01*
X160558Y-279235D01*
X160344Y-279020D01*
X281850Y-337306D02*
X283779D01*
X284421Y-337092D01*
X284635Y-336878D01*
X284850Y-336450D01*
Y-335807D01*
X284635Y-335378D01*
X284421Y-335164D01*
X283779Y-334950D01*
X281850D01*
Y-339449D01*
X289284D02*
X287571Y-334950D01*
X285857Y-339449D01*
X286499Y-337949D02*
X288642D01*
X290334Y-334950D02*
Y-339449D01*
Y-334950D02*
X292262D01*
X292905Y-335164D01*
X293119Y-335378D01*
X293334Y-335807D01*
Y-336235D01*
X293119Y-336664D01*
X292905Y-336878D01*
X292262Y-337092D01*
X290334D01*
X291834D02*
X293334Y-339449D01*
X295840Y-334950D02*
Y-339449D01*
X294341Y-334950D02*
X297340D01*
X301411D02*
Y-339449D01*
Y-334950D02*
X304410Y-339449D01*
Y-334950D02*
Y-339449D01*
X306938Y-334950D02*
X306509Y-335164D01*
X306081Y-335593D01*
X305867Y-336021D01*
X305652Y-336664D01*
Y-337735D01*
X305867Y-338378D01*
X306081Y-338806D01*
X306509Y-339235D01*
X306938Y-339449D01*
X307795D01*
X308223Y-339235D01*
X308652Y-338806D01*
X308866Y-338378D01*
X309080Y-337735D01*
Y-336664D01*
X308866Y-336021D01*
X308652Y-335593D01*
X308223Y-335164D01*
X307795Y-334950D01*
X306938D01*
X310344Y-339020D02*
X310130Y-339235D01*
X310344Y-339449D01*
X310559Y-339235D01*
X310344Y-339020D01*
X311758Y-336450D02*
X311544Y-336664D01*
X311758Y-336878D01*
X311972Y-336664D01*
X311758Y-336450D01*
Y-339020D02*
X311544Y-339235D01*
X311758Y-339449D01*
X311972Y-339235D01*
X311758Y-339020D01*
X283350Y-274950D02*
Y-279449D01*
X281850Y-274950D02*
X284850D01*
X285385D02*
Y-279449D01*
X287828Y-274950D02*
Y-279449D01*
X286328Y-274950D02*
X289327D01*
X289863D02*
Y-279449D01*
X292434D01*
X295712Y-274950D02*
X292927D01*
Y-279449D01*
X295712D01*
X292927Y-277092D02*
X294640D01*
X296676Y-276449D02*
X296462Y-276664D01*
X296676Y-276878D01*
X296890Y-276664D01*
X296676Y-276449D01*
Y-279020D02*
X296462Y-279235D01*
X296676Y-279449D01*
X296890Y-279235D01*
X296676Y-279020D01*
X131850Y-306806D02*
X133779D01*
X134421Y-306592D01*
X134635Y-306378D01*
X134850Y-305949D01*
Y-305307D01*
X134635Y-304878D01*
X134421Y-304664D01*
X133779Y-304450D01*
X131850D01*
Y-308949D01*
X139070Y-305521D02*
X138856Y-305093D01*
X138427Y-304664D01*
X137999Y-304450D01*
X137142D01*
X136714Y-304664D01*
X136285Y-305093D01*
X136071Y-305521D01*
X135857Y-306164D01*
Y-307235D01*
X136071Y-307878D01*
X136285Y-308306D01*
X136714Y-308735D01*
X137142Y-308949D01*
X137999D01*
X138427Y-308735D01*
X138856Y-308306D01*
X139070Y-307878D01*
X140334Y-304450D02*
Y-308949D01*
Y-304450D02*
X142262D01*
X142905Y-304664D01*
X143119Y-304878D01*
X143334Y-305307D01*
Y-305735D01*
X143119Y-306164D01*
X142905Y-306378D01*
X142262Y-306592D01*
X140334D02*
X142262D01*
X142905Y-306806D01*
X143119Y-307021D01*
X143334Y-307449D01*
Y-308092D01*
X143119Y-308520D01*
X142905Y-308735D01*
X142262Y-308949D01*
X140334D01*
X147875Y-304450D02*
Y-308949D01*
Y-304450D02*
X149375D01*
X150018Y-304664D01*
X150446Y-305093D01*
X150661Y-305521D01*
X150875Y-306164D01*
Y-307235D01*
X150661Y-307878D01*
X150446Y-308306D01*
X150018Y-308735D01*
X149375Y-308949D01*
X147875D01*
X154667Y-304450D02*
X151882D01*
Y-308949D01*
X154667D01*
X151882Y-306592D02*
X153596D01*
X158416Y-305093D02*
X157988Y-304664D01*
X157345Y-304450D01*
X156488D01*
X155845Y-304664D01*
X155417Y-305093D01*
Y-305521D01*
X155631Y-305949D01*
X155845Y-306164D01*
X156274Y-306378D01*
X157559Y-306806D01*
X157988Y-307021D01*
X158202Y-307235D01*
X158416Y-307663D01*
Y-308306D01*
X157988Y-308735D01*
X157345Y-308949D01*
X156488D01*
X155845Y-308735D01*
X155417Y-308306D01*
X159423Y-304450D02*
Y-308949D01*
X163579Y-305521D02*
X163365Y-305093D01*
X162937Y-304664D01*
X162508Y-304450D01*
X161651D01*
X161223Y-304664D01*
X160794Y-305093D01*
X160580Y-305521D01*
X160366Y-306164D01*
Y-307235D01*
X160580Y-307878D01*
X160794Y-308306D01*
X161223Y-308735D01*
X161651Y-308949D01*
X162508D01*
X162937Y-308735D01*
X163365Y-308306D01*
X163579Y-307878D01*
Y-307235D01*
X162508D02*
X163579D01*
X164608Y-304450D02*
Y-308949D01*
Y-304450D02*
X167607Y-308949D01*
Y-304450D02*
Y-308949D01*
X171635Y-304450D02*
X168850D01*
Y-308949D01*
X171635D01*
X168850Y-306592D02*
X170563D01*
X172385Y-304450D02*
Y-308949D01*
Y-304450D02*
X174313D01*
X174955Y-304664D01*
X175170Y-304878D01*
X175384Y-305307D01*
Y-305735D01*
X175170Y-306164D01*
X174955Y-306378D01*
X174313Y-306592D01*
X172385D01*
X173884D02*
X175384Y-308949D01*
X176605Y-305949D02*
X176391Y-306164D01*
X176605Y-306378D01*
X176819Y-306164D01*
X176605Y-305949D01*
Y-308520D02*
X176391Y-308735D01*
X176605Y-308949D01*
X176819Y-308735D01*
X176605Y-308520D01*
X131850Y-364950D02*
Y-369449D01*
Y-364950D02*
X134635D01*
X131850Y-367092D02*
X133564D01*
X135150Y-364950D02*
Y-369449D01*
X136092Y-364950D02*
Y-369449D01*
X138663D01*
X141941Y-364950D02*
X139156D01*
Y-369449D01*
X141941D01*
X139156Y-367092D02*
X140870D01*
X146226Y-364950D02*
Y-369449D01*
Y-364950D02*
X149225Y-369449D01*
Y-364950D02*
Y-369449D01*
X153896D02*
X152182Y-364950D01*
X150468Y-369449D01*
X151111Y-367949D02*
X153253D01*
X154946Y-364950D02*
Y-369449D01*
Y-364950D02*
X156659Y-369449D01*
X158373Y-364950D02*
X156659Y-369449D01*
X158373Y-364950D02*
Y-369449D01*
X162444Y-364950D02*
X159659D01*
Y-369449D01*
X162444D01*
X159659Y-367092D02*
X161373D01*
X163408Y-366449D02*
X163194Y-366664D01*
X163408Y-366878D01*
X163622Y-366664D01*
X163408Y-366449D01*
Y-369020D02*
X163194Y-369235D01*
X163408Y-369449D01*
X163622Y-369235D01*
X163408Y-369020D01*
X494850Y-365593D02*
X494421Y-365164D01*
X493779Y-364950D01*
X492922D01*
X492279Y-365164D01*
X491850Y-365593D01*
Y-366021D01*
X492065Y-366449D01*
X492279Y-366664D01*
X492707Y-366878D01*
X493993Y-367306D01*
X494421Y-367521D01*
X494635Y-367735D01*
X494850Y-368163D01*
Y-368806D01*
X494421Y-369235D01*
X493779Y-369449D01*
X492922D01*
X492279Y-369235D01*
X491850Y-368806D01*
X499070Y-366021D02*
X498856Y-365593D01*
X498427Y-365164D01*
X497999Y-364950D01*
X497142D01*
X496714Y-365164D01*
X496285Y-365593D01*
X496071Y-366021D01*
X495857Y-366664D01*
Y-367735D01*
X496071Y-368378D01*
X496285Y-368806D01*
X496714Y-369235D01*
X497142Y-369449D01*
X497999D01*
X498427Y-369235D01*
X498856Y-368806D01*
X499070Y-368378D01*
X503762Y-369449D02*
X502048Y-364950D01*
X500334Y-369449D01*
X500977Y-367949D02*
X503119D01*
X504812Y-364950D02*
Y-369449D01*
X507383D01*
X510661Y-364950D02*
X507875D01*
Y-369449D01*
X510661D01*
X507875Y-367092D02*
X509589D01*
X511625Y-366449D02*
X511411Y-366664D01*
X511625Y-366878D01*
X511839Y-366664D01*
X511625Y-366449D01*
Y-369020D02*
X511411Y-369235D01*
X511625Y-369449D01*
X511839Y-369235D01*
X511625Y-369020D01*
D162*
X-1650Y-328449D02*
X111350D01*
X-1650Y-328249D02*
X111750D01*
X-1650Y-328049D02*
X112150D01*
X-1650Y-327849D02*
X112550D01*
X-1650Y-327649D02*
X112750D01*
X-1650Y-327449D02*
X113150D01*
X-1650Y-327249D02*
X113350D01*
X-1650Y-327049D02*
X113550D01*
X-1650Y-326849D02*
X113750D01*
X-1650Y-326649D02*
X113950D01*
X-1650Y-326449D02*
X114150D01*
X-1650Y-326249D02*
X114350D01*
X-1650Y-326049D02*
X114550D01*
X-1650Y-325849D02*
X114750D01*
X-1650Y-325649D02*
X114950D01*
X-1650Y-325449D02*
X115150D01*
X-1650Y-325249D02*
X115150D01*
X-1650Y-325049D02*
X115350D01*
X-1650Y-324849D02*
X115550D01*
X-1650Y-324649D02*
X115550D01*
X-1650Y-324449D02*
X115750D01*
X-1650Y-324249D02*
X115750D01*
X-1650Y-324049D02*
X115950D01*
X-1650Y-323849D02*
X115950D01*
X-1650Y-323649D02*
X115950D01*
X-1650Y-323449D02*
X116150D01*
X-1650Y-323249D02*
X116150D01*
X-1650Y-323049D02*
X116150D01*
X-1650Y-322849D02*
X116350D01*
X-1650Y-322649D02*
X116350D01*
X-1650Y-322449D02*
X116350D01*
X-1650Y-322249D02*
X116350D01*
X-1650Y-322049D02*
X116350D01*
X-1650Y-321849D02*
X116350D01*
X-1650Y-321649D02*
X116350D01*
X-1650Y-321449D02*
X116350D01*
X-1650Y-321249D02*
X116350D01*
X-1650Y-321049D02*
X116350D01*
X-1650Y-320849D02*
X116350D01*
X-1650Y-320649D02*
X116350D01*
X-1650Y-320449D02*
X116350D01*
X-1650Y-320249D02*
X116350D01*
X78950Y-320049D02*
X116350D01*
X27350D02*
X77350D01*
X-1650D02*
X25550D01*
X79150Y-319849D02*
X116350D01*
X27550D02*
X77150D01*
X-1650D02*
X25350D01*
X79350Y-319649D02*
X116350D01*
X27750D02*
X77150D01*
X-1650D02*
X25350D01*
X79550Y-319449D02*
X116350D01*
X77550D02*
X78550D01*
X27750D02*
X77150D01*
X25750D02*
X26750D01*
X-1650D02*
X25350D01*
X79550Y-319249D02*
X116350D01*
X27950D02*
X78750D01*
X-1650D02*
X26950D01*
X79550Y-319049D02*
X116350D01*
X27950D02*
X78750D01*
X-1650D02*
X27150D01*
X102350Y-318849D02*
X116350D01*
X100150D02*
X101550D01*
X96950D02*
X98550D01*
X94750D02*
X96150D01*
X92350D02*
X93150D01*
X91350D02*
X91550D01*
X88750D02*
X90150D01*
X83350D02*
X86350D01*
X81550D02*
X82750D01*
X79750D02*
X80750D01*
X78350D02*
X78950D01*
X75950D02*
X77550D01*
X73750D02*
X75150D01*
X70950D02*
X72150D01*
X66550D02*
X69350D01*
X61150D02*
X64550D01*
X58950D02*
X59550D01*
X55750D02*
X57550D01*
X53950D02*
X54950D01*
X51950D02*
X53150D01*
X49550D02*
X51150D01*
X45750D02*
X48150D01*
X44350D02*
X45150D01*
X41750D02*
X43150D01*
X38550D02*
X40350D01*
X35150D02*
X36950D01*
X33350D02*
X34350D01*
X27950D02*
X30950D01*
X26750D02*
X27150D01*
X24150D02*
X25750D01*
X22350D02*
X23350D01*
X20350D02*
X21550D01*
X18950D02*
X19550D01*
X16950D02*
X17950D01*
X15150D02*
X16150D01*
X14150D02*
X14550D01*
X11550D02*
X12950D01*
X9750D02*
X10750D01*
X7950D02*
X8950D01*
X-1650D02*
X7150D01*
X102350Y-318649D02*
X116350D01*
X100350D02*
X101550D01*
X96950D02*
X98350D01*
X94950D02*
X96150D01*
X92350D02*
X93150D01*
X88750D02*
X89750D01*
X83350D02*
X86350D01*
X81550D02*
X82750D01*
X79750D02*
X80750D01*
X78750D02*
X78950D01*
X75950D02*
X77150D01*
X73950D02*
X75150D01*
X71150D02*
X72150D01*
X66950D02*
X69150D01*
X61350D02*
X64550D01*
X58950D02*
X59550D01*
X55750D02*
X57150D01*
X53950D02*
X54950D01*
X51950D02*
X53150D01*
X49950D02*
X51150D01*
X45750D02*
X47750D01*
X44350D02*
X45150D01*
X41750D02*
X42950D01*
X38550D02*
X39950D01*
X35150D02*
X36550D01*
X33350D02*
X34350D01*
X27950D02*
X30950D01*
X24150D02*
X25550D01*
X22350D02*
X23350D01*
X20350D02*
X21550D01*
X18750D02*
X19550D01*
X16950D02*
X17750D01*
X15150D02*
X16150D01*
X11550D02*
X12750D01*
X9750D02*
X10750D01*
X7950D02*
X8750D01*
X-1650D02*
X7150D01*
X102350Y-318449D02*
X116350D01*
X100350D02*
X101550D01*
X96950D02*
X98150D01*
X95150D02*
X96150D01*
X92350D02*
X93150D01*
X88750D02*
X89750D01*
X83350D02*
X86350D01*
X81550D02*
X82750D01*
X79750D02*
X80750D01*
X75950D02*
X76950D01*
X74150D02*
X75150D01*
X71150D02*
X72150D01*
X67350D02*
X68950D01*
X61550D02*
X64550D01*
X58950D02*
X59550D01*
X55750D02*
X56950D01*
X53950D02*
X54950D01*
X51950D02*
X53150D01*
X49950D02*
X51150D01*
X45750D02*
X47550D01*
X44350D02*
X45150D01*
X41750D02*
X42750D01*
X38550D02*
X39750D01*
X35150D02*
X36350D01*
X33350D02*
X34350D01*
X27950D02*
X30950D01*
X24150D02*
X25350D01*
X22350D02*
X23350D01*
X20350D02*
X21550D01*
X18550D02*
X19550D01*
X16950D02*
X17550D01*
X15150D02*
X16150D01*
X11550D02*
X12550D01*
X9950D02*
X10750D01*
X7950D02*
X8750D01*
X-1650D02*
X7150D01*
X102350Y-318249D02*
X116350D01*
X100350D02*
X101550D01*
X98950D02*
X100150D01*
X96950D02*
X97950D01*
X95150D02*
X96150D01*
X92350D02*
X94350D01*
X90550D02*
X91350D01*
X87350D02*
X89750D01*
X83350D02*
X86350D01*
X81550D02*
X82750D01*
X79750D02*
X80750D01*
X77950D02*
X78550D01*
X75950D02*
X76950D01*
X74150D02*
X75150D01*
X71150D02*
X73350D01*
X69750D02*
X70950D01*
X67550D02*
X68750D01*
X65350D02*
X65950D01*
X61550D02*
X64550D01*
X57950D02*
X60750D01*
X55750D02*
X56750D01*
X53950D02*
X54950D01*
X51950D02*
X53150D01*
X50150D02*
X51150D01*
X48350D02*
X49150D01*
X45750D02*
X47350D01*
X43750D02*
X45150D01*
X40750D02*
X42750D01*
X38550D02*
X39750D01*
X37150D02*
X38350D01*
X35150D02*
X36150D01*
X31750D02*
X34350D01*
X27950D02*
X30950D01*
X26350D02*
X26750D01*
X24150D02*
X25150D01*
X22350D02*
X23350D01*
X20350D02*
X21550D01*
X18350D02*
X19550D01*
X16950D02*
X17550D01*
X15150D02*
X16150D01*
X13350D02*
X14150D01*
X11550D02*
X12550D01*
X9950D02*
X10750D01*
X7950D02*
X8750D01*
X-1650D02*
X7150D01*
X102350Y-318049D02*
X116350D01*
X98750D02*
X101550D01*
X96950D02*
X97950D01*
X95350D02*
X96150D01*
X92350D02*
X94350D01*
X90350D02*
X91550D01*
X87350D02*
X89750D01*
X83350D02*
X86350D01*
X81550D02*
X82750D01*
X79750D02*
X80750D01*
X77750D02*
X78750D01*
X75950D02*
X76750D01*
X74150D02*
X75150D01*
X69550D02*
X73350D01*
X67550D02*
X68750D01*
X65350D02*
X66350D01*
X61550D02*
X64550D01*
X57750D02*
X60750D01*
X55750D02*
X56750D01*
X53950D02*
X54950D01*
X51950D02*
X53150D01*
X50350D02*
X51150D01*
X48150D02*
X49350D01*
X45750D02*
X47350D01*
X43550D02*
X45150D01*
X40550D02*
X42750D01*
X36950D02*
X39550D01*
X35150D02*
X36150D01*
X31750D02*
X34350D01*
X27950D02*
X30950D01*
X26150D02*
X26950D01*
X24150D02*
X25150D01*
X22350D02*
X23350D01*
X20350D02*
X21550D01*
X18350D02*
X19550D01*
X16950D02*
X17350D01*
X15150D02*
X16150D01*
X13350D02*
X14350D01*
X11550D02*
X12550D01*
X9950D02*
X10750D01*
X7950D02*
X8550D01*
X-1650D02*
X7150D01*
X102350Y-317849D02*
X116350D01*
X98550D02*
X101550D01*
X96950D02*
X97750D01*
X95150D02*
X96150D01*
X92350D02*
X94350D01*
X90550D02*
X91550D01*
X87350D02*
X89750D01*
X83350D02*
X86350D01*
X81550D02*
X82750D01*
X79750D02*
X80750D01*
X77750D02*
X78750D01*
X75950D02*
X76750D01*
X74150D02*
X75150D01*
X69350D02*
X73350D01*
X67750D02*
X68550D01*
X65350D02*
X66750D01*
X61550D02*
X64550D01*
X57550D02*
X60750D01*
X55750D02*
X56750D01*
X53950D02*
X54950D01*
X51950D02*
X53150D01*
X50350D02*
X51150D01*
X48150D02*
X49550D01*
X45750D02*
X47350D01*
X43550D02*
X45150D01*
X40350D02*
X42750D01*
X36750D02*
X39550D01*
X35150D02*
X36150D01*
X31750D02*
X34350D01*
X27950D02*
X30950D01*
X25950D02*
X27150D01*
X24150D02*
X25150D01*
X22350D02*
X23350D01*
X20350D02*
X21550D01*
X18150D02*
X19550D01*
X16950D02*
X17150D01*
X15150D02*
X16150D01*
X13350D02*
X14350D01*
X11550D02*
X12550D01*
X10150D02*
X10750D01*
X7950D02*
X8550D01*
X-1650D02*
X7150D01*
X102350Y-317649D02*
X116350D01*
X100550D02*
X101550D01*
X96950D02*
X97750D01*
X95150D02*
X96150D01*
X92350D02*
X93950D01*
X90750D02*
X91550D01*
X87350D02*
X89750D01*
X83350D02*
X86350D01*
X81550D02*
X82750D01*
X79750D02*
X80750D01*
X77550D02*
X78950D01*
X75950D02*
X76750D01*
X74150D02*
X75150D01*
X71350D02*
X72750D01*
X67750D02*
X68550D01*
X65350D02*
X66750D01*
X61550D02*
X64550D01*
X57550D02*
X60150D01*
X55750D02*
X56750D01*
X53950D02*
X54950D01*
X51950D02*
X53150D01*
X50350D02*
X51150D01*
X48150D02*
X49550D01*
X45750D02*
X47350D01*
X43550D02*
X45150D01*
X40350D02*
X42750D01*
X38750D02*
X39550D01*
X35150D02*
X36150D01*
X31750D02*
X34350D01*
X27950D02*
X30950D01*
X25950D02*
X27150D01*
X24150D02*
X25150D01*
X22350D02*
X23350D01*
X20350D02*
X21550D01*
X17950D02*
X19550D01*
X15150D02*
X16150D01*
X13550D02*
X14350D01*
X11550D02*
X12550D01*
X10150D02*
X10750D01*
X9150D02*
X9350D01*
X7950D02*
X8550D01*
X-1650D02*
X7150D01*
X102350Y-317449D02*
X116350D01*
X100550D02*
X101550D01*
X96950D02*
X97750D01*
X95150D02*
X96150D01*
X92350D02*
X93350D01*
X87350D02*
X89950D01*
X83350D02*
X86350D01*
X81550D02*
X82750D01*
X79750D02*
X80750D01*
X77550D02*
X78950D01*
X75950D02*
X76750D01*
X73950D02*
X75150D01*
X71350D02*
X72350D01*
X67750D02*
X68550D01*
X65350D02*
X66950D01*
X61550D02*
X64550D01*
X57550D02*
X59750D01*
X55750D02*
X56750D01*
X53950D02*
X54950D01*
X51950D02*
X53150D01*
X50350D02*
X51150D01*
X48150D02*
X49550D01*
X45950D02*
X47350D01*
X43550D02*
X45150D01*
X40350D02*
X42750D01*
X38750D02*
X39550D01*
X35150D02*
X36150D01*
X31750D02*
X34350D01*
X27950D02*
X30950D01*
X25950D02*
X27150D01*
X24150D02*
X25150D01*
X22350D02*
X23350D01*
X20350D02*
X21550D01*
X17750D02*
X19550D01*
X15150D02*
X16150D01*
X11550D02*
X12750D01*
X10150D02*
X10750D01*
X9150D02*
X9550D01*
X7950D02*
X8350D01*
X-1650D02*
X7150D01*
X102350Y-317249D02*
X116350D01*
X100550D02*
X101550D01*
X96950D02*
X97750D01*
X94750D02*
X96150D01*
X92350D02*
X93150D01*
X87350D02*
X90150D01*
X83350D02*
X86350D01*
X81550D02*
X82750D01*
X79750D02*
X80750D01*
X77550D02*
X78950D01*
X75950D02*
X76750D01*
X73750D02*
X75150D01*
X71350D02*
X72150D01*
X67950D02*
X68550D01*
X65350D02*
X66950D01*
X61150D02*
X64550D01*
X57550D02*
X59550D01*
X55750D02*
X56750D01*
X53950D02*
X54950D01*
X51950D02*
X53150D01*
X50350D02*
X51150D01*
X48150D02*
X49550D01*
X45950D02*
X47350D01*
X43550D02*
X45150D01*
X40350D02*
X42750D01*
X38750D02*
X39550D01*
X35150D02*
X36150D01*
X31750D02*
X34350D01*
X27950D02*
X30950D01*
X25950D02*
X27150D01*
X24150D02*
X25150D01*
X22350D02*
X23350D01*
X20350D02*
X21550D01*
X17750D02*
X19550D01*
X15150D02*
X16150D01*
X11550D02*
X12950D01*
X10350D02*
X10750D01*
X9150D02*
X9550D01*
X7950D02*
X8350D01*
X-1650D02*
X7150D01*
X102350Y-317049D02*
X116350D01*
X100550D02*
X101550D01*
X98550D02*
X99750D01*
X96950D02*
X97750D01*
X94150D02*
X96150D01*
X92350D02*
X93150D01*
X88750D02*
X91550D01*
X83350D02*
X86350D01*
X81550D02*
X82550D01*
X79750D02*
X80750D01*
X77550D02*
X78750D01*
X75950D02*
X76750D01*
X73150D02*
X75150D01*
X71350D02*
X72150D01*
X69350D02*
X70550D01*
X67950D02*
X68550D01*
X65350D02*
X66950D01*
X60550D02*
X64550D01*
X57550D02*
X59550D01*
X55750D02*
X56750D01*
X53950D02*
X54950D01*
X52150D02*
X53150D01*
X50350D02*
X51150D01*
X48150D02*
X49550D01*
X45950D02*
X47350D01*
X43550D02*
X45150D01*
X40350D02*
X42750D01*
X38750D02*
X39550D01*
X36750D02*
X38150D01*
X35150D02*
X36150D01*
X33150D02*
X34350D01*
X27950D02*
X30950D01*
X25950D02*
X27150D01*
X24150D02*
X25150D01*
X22350D02*
X23350D01*
X20350D02*
X21550D01*
X17950D02*
X19550D01*
X15150D02*
X16150D01*
X11550D02*
X14350D01*
X10350D02*
X10750D01*
X9150D02*
X9550D01*
X7950D02*
X8350D01*
X-1650D02*
X7150D01*
X102550Y-316849D02*
X116350D01*
X100550D02*
X101550D01*
X98550D02*
X99750D01*
X96950D02*
X97950D01*
X93950D02*
X96150D01*
X92350D02*
X93150D01*
X88750D02*
X91550D01*
X83350D02*
X86350D01*
X81750D02*
X82550D01*
X79750D02*
X80750D01*
X77750D02*
X78750D01*
X75950D02*
X76750D01*
X72950D02*
X75150D01*
X71350D02*
X72150D01*
X69350D02*
X70550D01*
X67950D02*
X68750D01*
X65350D02*
X66950D01*
X60350D02*
X64550D01*
X57750D02*
X59550D01*
X55750D02*
X56750D01*
X53950D02*
X54950D01*
X52150D02*
X53150D01*
X50350D02*
X51150D01*
X48150D02*
X49350D01*
X45950D02*
X47350D01*
X43550D02*
X45150D01*
X40550D02*
X42750D01*
X38750D02*
X39550D01*
X36950D02*
X37950D01*
X35150D02*
X36150D01*
X33150D02*
X34350D01*
X27950D02*
X30950D01*
X25950D02*
X27150D01*
X24150D02*
X25150D01*
X22350D02*
X23350D01*
X20350D02*
X21550D01*
X18150D02*
X19550D01*
X16950D02*
X17150D01*
X15150D02*
X16150D01*
X11550D02*
X14350D01*
X10350D02*
X10750D01*
X8950D02*
X9750D01*
X7950D02*
X8350D01*
X-1650D02*
X7150D01*
X103150Y-316649D02*
X116350D01*
X100350D02*
X101550D01*
X98750D02*
X99750D01*
X96950D02*
X97950D01*
X93950D02*
X96150D01*
X92150D02*
X93150D01*
X90350D02*
X91350D01*
X88750D02*
X89950D01*
X83350D02*
X86350D01*
X81750D02*
X82550D01*
X79750D02*
X80750D01*
X77950D02*
X78550D01*
X75950D02*
X76950D01*
X72950D02*
X75150D01*
X71150D02*
X72150D01*
X69550D02*
X70550D01*
X67950D02*
X68750D01*
X65350D02*
X66950D01*
X60350D02*
X64550D01*
X57750D02*
X59550D01*
X55750D02*
X56750D01*
X53950D02*
X54950D01*
X52350D02*
X52950D01*
X50150D02*
X51150D01*
X48350D02*
X49150D01*
X46750D02*
X47350D01*
X43550D02*
X45150D01*
X40750D02*
X42750D01*
X38750D02*
X39750D01*
X36950D02*
X37950D01*
X35150D02*
X36150D01*
X33150D02*
X34350D01*
X27950D02*
X30950D01*
X26150D02*
X26950D01*
X24150D02*
X25150D01*
X22550D02*
X23350D01*
X20350D02*
X21550D01*
X18150D02*
X19550D01*
X16950D02*
X17350D01*
X15150D02*
X16150D01*
X13150D02*
X14350D01*
X11550D02*
X12750D01*
X10550D02*
X10750D01*
X8950D02*
X9750D01*
X7950D02*
X8150D01*
X-1650D02*
X7150D01*
X103150Y-316449D02*
X116350D01*
X100350D02*
X101550D01*
X96950D02*
X98150D01*
X95150D02*
X96150D01*
X92150D02*
X93150D01*
X87350D02*
X89950D01*
X83350D02*
X86350D01*
X79750D02*
X80750D01*
X75950D02*
X76950D01*
X73950D02*
X75150D01*
X71150D02*
X72150D01*
X67750D02*
X68950D01*
X65350D02*
X66950D01*
X61550D02*
X64550D01*
X58750D02*
X59550D01*
X55750D02*
X56950D01*
X53750D02*
X54950D01*
X49950D02*
X51150D01*
X46750D02*
X47550D01*
X44150D02*
X45150D01*
X41750D02*
X42150D01*
X38550D02*
X39750D01*
X35150D02*
X36350D01*
X31750D02*
X34350D01*
X27950D02*
X30950D01*
X24150D02*
X25350D01*
X20350D02*
X21550D01*
X18350D02*
X19550D01*
X16950D02*
X17550D01*
X14950D02*
X16150D01*
X11550D02*
X12750D01*
X10550D02*
X10750D01*
X8950D02*
X9750D01*
X7950D02*
X8150D01*
X-1650D02*
X7150D01*
X103150Y-316249D02*
X116350D01*
X102150D02*
X102350D01*
X100150D02*
X101550D01*
X96950D02*
X98350D01*
X95150D02*
X96150D01*
X91950D02*
X93350D01*
X87350D02*
X89950D01*
X83150D02*
X86350D01*
X79750D02*
X80750D01*
X75950D02*
X77150D01*
X74150D02*
X75150D01*
X70950D02*
X72350D01*
X67750D02*
X68950D01*
X65350D02*
X66750D01*
X61550D02*
X64550D01*
X58750D02*
X59750D01*
X55750D02*
X57150D01*
X53750D02*
X54950D01*
X49950D02*
X51150D01*
X46750D02*
X47750D01*
X45750D02*
X45950D01*
X44150D02*
X45150D01*
X41750D02*
X42150D01*
X38350D02*
X39950D01*
X35150D02*
X36550D01*
X31750D02*
X34350D01*
X27950D02*
X30950D01*
X23950D02*
X25550D01*
X20350D02*
X21550D01*
X18550D02*
X19550D01*
X16950D02*
X17550D01*
X14950D02*
X16150D01*
X11550D02*
X12750D01*
X10550D02*
X10750D01*
X8750D02*
X9750D01*
X-1650D02*
X7150D01*
X108150Y-316049D02*
X116350D01*
X107350D02*
X107950D01*
X106550D02*
X106950D01*
X105350D02*
X106150D01*
X103150D02*
X105150D01*
X102150D02*
X102550D01*
X99950D02*
X101550D01*
X96950D02*
X98550D01*
X95150D02*
X96150D01*
X91750D02*
X93550D01*
X87350D02*
X90150D01*
X82950D02*
X86350D01*
X81550D02*
X81750D01*
X79750D02*
X80750D01*
X78550D02*
X78950D01*
X75950D02*
X77350D01*
X74150D02*
X75150D01*
X70750D02*
X72550D01*
X67750D02*
X69350D01*
X65350D02*
X66750D01*
X61550D02*
X64550D01*
X58950D02*
X59950D01*
X55750D02*
X57350D01*
X53550D02*
X54950D01*
X51950D02*
X52350D01*
X49550D02*
X51150D01*
X46750D02*
X48150D01*
X45750D02*
X46150D01*
X44150D02*
X45150D01*
X41750D02*
X42150D01*
X38150D02*
X40350D01*
X35150D02*
X36750D01*
X31750D02*
X34350D01*
X27950D02*
X30950D01*
X26950D02*
X27150D01*
X23750D02*
X25750D01*
X22150D02*
X22550D01*
X20350D02*
X21550D01*
X18750D02*
X19550D01*
X16950D02*
X17750D01*
X14750D02*
X16150D01*
X11550D02*
X12950D01*
X8750D02*
X9950D01*
X-1650D02*
X7150D01*
X108150Y-315849D02*
X116350D01*
X107550D02*
X107950D01*
X106550D02*
X106950D01*
X105350D02*
X106150D01*
X87350D02*
X105150D01*
X67550D02*
X86350D01*
X65350D02*
X66550D01*
X43550D02*
X64550D01*
X35150D02*
X42750D01*
X31750D02*
X34350D01*
X16950D02*
X30950D01*
X11550D02*
X16150D01*
X8750D02*
X9950D01*
X-1650D02*
X7150D01*
X108150Y-315649D02*
X116350D01*
X107550D02*
X107950D01*
X106550D02*
X106750D01*
X105350D02*
X106150D01*
X87350D02*
X105150D01*
X67550D02*
X86350D01*
X65350D02*
X66150D01*
X43550D02*
X64550D01*
X35150D02*
X42750D01*
X31750D02*
X34350D01*
X16950D02*
X30950D01*
X11550D02*
X16150D01*
X8550D02*
X9950D01*
X-1650D02*
X7150D01*
X108150Y-315449D02*
X116350D01*
X107750D02*
X107950D01*
X107150D02*
X107350D01*
X106550D02*
X106750D01*
X105350D02*
X106150D01*
X88750D02*
X105150D01*
X67350D02*
X86350D01*
X43550D02*
X64550D01*
X35150D02*
X42750D01*
X33350D02*
X34350D01*
X16950D02*
X30950D01*
X11550D02*
X16150D01*
X8550D02*
X10150D01*
X-1650D02*
X7150D01*
X108150Y-315249D02*
X116350D01*
X107750D02*
X107950D01*
X106950D02*
X107350D01*
X105350D02*
X106150D01*
X96950D02*
X105150D01*
X88750D02*
X96150D01*
X75950D02*
X86350D01*
X67150D02*
X75150D01*
X55750D02*
X64550D01*
X43550D02*
X54950D01*
X35150D02*
X43150D01*
X33350D02*
X34350D01*
X20350D02*
X30950D01*
X16950D02*
X19550D01*
X11550D02*
X16150D01*
X8550D02*
X10150D01*
X-1650D02*
X7150D01*
X108150Y-315049D02*
X116350D01*
X106950D02*
X107550D01*
X105350D02*
X106150D01*
X96950D02*
X105150D01*
X88750D02*
X96150D01*
X75950D02*
X86350D01*
X66550D02*
X75150D01*
X55750D02*
X64550D01*
X35150D02*
X54950D01*
X33350D02*
X34350D01*
X20350D02*
X30950D01*
X16950D02*
X19550D01*
X11550D02*
X16150D01*
X8350D02*
X10150D01*
X-1650D02*
X7150D01*
X108150Y-314849D02*
X116350D01*
X106750D02*
X107550D01*
X105350D02*
X106150D01*
X96950D02*
X105150D01*
X75950D02*
X96150D01*
X55750D02*
X75150D01*
X35150D02*
X54950D01*
X20350D02*
X34350D01*
X16950D02*
X19550D01*
X-1650D02*
X16150D01*
X108150Y-314649D02*
X116350D01*
X106750D02*
X107750D01*
X105950D02*
X106150D01*
X35150D02*
X104550D01*
X16950D02*
X34350D01*
X-1650D02*
X16150D01*
X-1650Y-314449D02*
X116350D01*
X-1650Y-314249D02*
X116350D01*
X-1650Y-314049D02*
X116350D01*
X-1650Y-313849D02*
X116350D01*
X-1650Y-313649D02*
X116350D01*
X-1650Y-313449D02*
X116350D01*
X-1650Y-313249D02*
X116350D01*
X-1650Y-313049D02*
X116350D01*
X-1650Y-312849D02*
X116350D01*
X-1650Y-312649D02*
X116350D01*
X-1650Y-312449D02*
X116350D01*
X-1650Y-312249D02*
X116350D01*
X-1650Y-312049D02*
X116350D01*
X-1650Y-311849D02*
X116350D01*
X-1650Y-311649D02*
X116350D01*
X-1650Y-311449D02*
X116350D01*
X-1650Y-311249D02*
X116350D01*
X-1650Y-311049D02*
X116350D01*
X-1650Y-310849D02*
X116350D01*
X-1650Y-310649D02*
X116350D01*
X-1650Y-310449D02*
X116350D01*
X64350Y-310249D02*
X116350D01*
X-1650D02*
X62150D01*
X65350Y-310049D02*
X116350D01*
X45350D02*
X61150D01*
X-1650D02*
X42950D01*
X108150Y-309849D02*
X116350D01*
X107350D02*
X107950D01*
X106550D02*
X106950D01*
X105350D02*
X106150D01*
X99950D02*
X104950D01*
X92950D02*
X96350D01*
X83350D02*
X86750D01*
X74150D02*
X77150D01*
X65950D02*
X67950D01*
X55550D02*
X60750D01*
X47150D02*
X49550D01*
X35550D02*
X41150D01*
X28150D02*
X29550D01*
X14550D02*
X21150D01*
X-1650D02*
X7350D01*
X108150Y-309649D02*
X116350D01*
X107550D02*
X107950D01*
X106550D02*
X106950D01*
X105350D02*
X106150D01*
X100750D02*
X104950D01*
X92950D02*
X96550D01*
X83350D02*
X86750D01*
X74150D02*
X77150D01*
X66350D02*
X68150D01*
X55750D02*
X60350D01*
X47350D02*
X49550D01*
X35750D02*
X40550D01*
X28150D02*
X29550D01*
X14550D02*
X21150D01*
X-1650D02*
X7550D01*
X108150Y-309449D02*
X116350D01*
X107550D02*
X107950D01*
X106550D02*
X106950D01*
X105350D02*
X106150D01*
X101150D02*
X104950D01*
X92950D02*
X96550D01*
X83350D02*
X86950D01*
X74150D02*
X77150D01*
X66750D02*
X68150D01*
X55750D02*
X59950D01*
X47350D02*
X49550D01*
X35750D02*
X40150D01*
X28150D02*
X29550D01*
X14750D02*
X21150D01*
X-1650D02*
X7550D01*
X108150Y-309249D02*
X116350D01*
X107550D02*
X107950D01*
X107150D02*
X107350D01*
X106550D02*
X106750D01*
X105350D02*
X106150D01*
X101550D02*
X104950D01*
X92950D02*
X96550D01*
X83350D02*
X86950D01*
X74350D02*
X77350D01*
X66950D02*
X68150D01*
X55750D02*
X59750D01*
X47350D02*
X49550D01*
X35750D02*
X39750D01*
X28150D02*
X29750D01*
X14750D02*
X21150D01*
X-1650D02*
X7750D01*
X108150Y-309049D02*
X116350D01*
X107750D02*
X107950D01*
X106950D02*
X107350D01*
X106550D02*
X106750D01*
X105350D02*
X106150D01*
X101750D02*
X104950D01*
X93150D02*
X96550D01*
X83550D02*
X86950D01*
X74350D02*
X77350D01*
X67350D02*
X68150D01*
X55750D02*
X59550D01*
X47350D02*
X49750D01*
X35750D02*
X39550D01*
X28150D02*
X29750D01*
X14750D02*
X21150D01*
X-1650D02*
X7750D01*
X108150Y-308849D02*
X116350D01*
X107750D02*
X107950D01*
X106950D02*
X107550D01*
X105350D02*
X106150D01*
X102150D02*
X104950D01*
X93150D02*
X96750D01*
X83550D02*
X86950D01*
X74350D02*
X77350D01*
X67550D02*
X68350D01*
X55950D02*
X59550D01*
X47550D02*
X49750D01*
X35950D02*
X39550D01*
X28150D02*
X29750D01*
X14950D02*
X21150D01*
X-1650D02*
X7950D01*
X108150Y-308649D02*
X116350D01*
X106950D02*
X107550D01*
X105350D02*
X106150D01*
X102350D02*
X104950D01*
X93150D02*
X96750D01*
X83550D02*
X87150D01*
X74350D02*
X77350D01*
X67750D02*
X68350D01*
X55950D02*
X59350D01*
X47550D02*
X49750D01*
X35950D02*
X39350D01*
X28150D02*
X29750D01*
X14950D02*
X21150D01*
X-1650D02*
X7950D01*
X108150Y-308449D02*
X116350D01*
X106750D02*
X107550D01*
X105350D02*
X106150D01*
X102550D02*
X104950D01*
X93150D02*
X96750D01*
X83550D02*
X87150D01*
X74550D02*
X77550D01*
X67950D02*
X68350D01*
X55950D02*
X59350D01*
X47550D02*
X49750D01*
X35950D02*
X39350D01*
X28150D02*
X29950D01*
X15150D02*
X21150D01*
X-1650D02*
X8150D01*
X108150Y-308249D02*
X116350D01*
X106750D02*
X107750D01*
X105950D02*
X106150D01*
X102550D02*
X104550D01*
X93350D02*
X96750D01*
X83750D02*
X87150D01*
X74550D02*
X77550D01*
X68150D02*
X68350D01*
X55950D02*
X59350D01*
X47550D02*
X49950D01*
X35950D02*
X39350D01*
X28150D02*
X29950D01*
X15150D02*
X21150D01*
X-1650D02*
X8350D01*
X102750Y-308049D02*
X116350D01*
X93350D02*
X96950D01*
X83750D02*
X87150D01*
X74550D02*
X77550D01*
X56150D02*
X59150D01*
X47750D02*
X49950D01*
X36150D02*
X39350D01*
X28150D02*
X29950D01*
X15350D02*
X21150D01*
X-1650D02*
X8350D01*
X102950Y-307849D02*
X116350D01*
X93350D02*
X96950D01*
X83750D02*
X87350D01*
X74550D02*
X77550D01*
X56150D02*
X59150D01*
X47750D02*
X49950D01*
X36150D02*
X39350D01*
X28150D02*
X29950D01*
X15350D02*
X21350D01*
X-1650D02*
X8550D01*
X102950Y-307649D02*
X116350D01*
X93350D02*
X96950D01*
X83750D02*
X87350D01*
X74750D02*
X77750D01*
X56150D02*
X59150D01*
X47750D02*
X49950D01*
X36150D02*
X39350D01*
X28150D02*
X30150D01*
X15350D02*
X21350D01*
X-1650D02*
X8550D01*
X103150Y-307449D02*
X116350D01*
X93550D02*
X96950D01*
X83950D02*
X87350D01*
X74750D02*
X77750D01*
X56150D02*
X59150D01*
X47750D02*
X50150D01*
X36150D02*
X39350D01*
X28150D02*
X30150D01*
X15550D02*
X21350D01*
X-1650D02*
X8750D01*
X103150Y-307249D02*
X116350D01*
X93550D02*
X97150D01*
X83950D02*
X87350D01*
X74750D02*
X77750D01*
X56350D02*
X59150D01*
X47950D02*
X50150D01*
X36350D02*
X39350D01*
X28150D02*
X30150D01*
X15550D02*
X21350D01*
X-1650D02*
X8750D01*
X103350Y-307049D02*
X116350D01*
X93550D02*
X97150D01*
X83950D02*
X87550D01*
X74750D02*
X77750D01*
X56350D02*
X59150D01*
X47950D02*
X50150D01*
X36350D02*
X39350D01*
X28150D02*
X30150D01*
X15750D02*
X21350D01*
X-1650D02*
X8950D01*
X103350Y-306849D02*
X116350D01*
X93550D02*
X97150D01*
X83950D02*
X87550D01*
X74950D02*
X77950D01*
X56350D02*
X59150D01*
X47950D02*
X50150D01*
X36350D02*
X39350D01*
X28150D02*
X30350D01*
X15750D02*
X21350D01*
X-1650D02*
X8950D01*
X103350Y-306649D02*
X116350D01*
X93750D02*
X97150D01*
X84150D02*
X87550D01*
X74950D02*
X77950D01*
X56350D02*
X59150D01*
X47950D02*
X50350D01*
X36350D02*
X39350D01*
X28150D02*
X30350D01*
X15950D02*
X21350D01*
X-1650D02*
X9150D01*
X103350Y-306449D02*
X116350D01*
X93750D02*
X97350D01*
X84150D02*
X87550D01*
X74950D02*
X77950D01*
X56550D02*
X59150D01*
X48150D02*
X50350D01*
X36550D02*
X39350D01*
X28150D02*
X30350D01*
X15950D02*
X21350D01*
X-1650D02*
X9150D01*
X103550Y-306249D02*
X116350D01*
X93750D02*
X97350D01*
X84150D02*
X87750D01*
X74950D02*
X77950D01*
X56550D02*
X59350D01*
X48150D02*
X50350D01*
X36550D02*
X39350D01*
X28150D02*
X30350D01*
X16150D02*
X21350D01*
X-1650D02*
X9350D01*
X103550Y-306049D02*
X116350D01*
X93750D02*
X97350D01*
X84150D02*
X87750D01*
X75150D02*
X78150D01*
X66150D02*
X68150D01*
X56550D02*
X59350D01*
X46150D02*
X50350D01*
X36550D02*
X39550D01*
X28150D02*
X30550D01*
X-1650D02*
X9350D01*
X103550Y-305849D02*
X116350D01*
X93950D02*
X97350D01*
X84350D02*
X87750D01*
X75150D02*
X78150D01*
X65950D02*
X68550D01*
X56550D02*
X59350D01*
X45950D02*
X50550D01*
X36550D02*
X39550D01*
X28150D02*
X30550D01*
X-1650D02*
X9550D01*
X103550Y-305649D02*
X116350D01*
X93950D02*
X97550D01*
X84350D02*
X87750D01*
X75150D02*
X78150D01*
X65950D02*
X68750D01*
X56750D02*
X59350D01*
X45950D02*
X50550D01*
X36750D02*
X39550D01*
X28150D02*
X30550D01*
X-1650D02*
X9750D01*
X103750Y-305449D02*
X116350D01*
X93950D02*
X97550D01*
X84350D02*
X87950D01*
X75150D02*
X78150D01*
X65750D02*
X68950D01*
X56750D02*
X59550D01*
X45750D02*
X50550D01*
X36750D02*
X39550D01*
X28150D02*
X30550D01*
X-1650D02*
X9750D01*
X103750Y-305249D02*
X116350D01*
X93950D02*
X97550D01*
X84350D02*
X87950D01*
X75350D02*
X78350D01*
X65750D02*
X68950D01*
X56750D02*
X59550D01*
X45950D02*
X50550D01*
X36750D02*
X39750D01*
X27950D02*
X30750D01*
X-1650D02*
X9950D01*
X103750Y-305049D02*
X116350D01*
X94150D02*
X97550D01*
X84550D02*
X87950D01*
X75350D02*
X78350D01*
X65750D02*
X69150D01*
X56750D02*
X59550D01*
X45950D02*
X50750D01*
X36750D02*
X39750D01*
X27950D02*
X30750D01*
X-1650D02*
X9950D01*
X103750Y-304849D02*
X116350D01*
X94150D02*
X97750D01*
X84550D02*
X87950D01*
X75350D02*
X78350D01*
X65750D02*
X69150D01*
X56950D02*
X59550D01*
X45950D02*
X50750D01*
X36950D02*
X39750D01*
X27950D02*
X30750D01*
X-1650D02*
X10150D01*
X103950Y-304649D02*
X116350D01*
X94150D02*
X97750D01*
X84550D02*
X88150D01*
X75350D02*
X78350D01*
X65750D02*
X69350D01*
X56950D02*
X59750D01*
X45950D02*
X50750D01*
X36950D02*
X39750D01*
X27950D02*
X30750D01*
X-1650D02*
X10150D01*
X103950Y-304449D02*
X116350D01*
X94150D02*
X97750D01*
X84550D02*
X88150D01*
X75550D02*
X78550D01*
X65950D02*
X69350D01*
X56950D02*
X59750D01*
X45950D02*
X50750D01*
X36950D02*
X39950D01*
X27950D02*
X30950D01*
X-1650D02*
X10350D01*
X103950Y-304249D02*
X116350D01*
X94350D02*
X97750D01*
X84750D02*
X88150D01*
X75550D02*
X78550D01*
X65950D02*
X69350D01*
X56950D02*
X59750D01*
X46150D02*
X50950D01*
X36950D02*
X39950D01*
X27950D02*
X30950D01*
X-1650D02*
X10350D01*
X103950Y-304049D02*
X116350D01*
X94350D02*
X97950D01*
X84750D02*
X88150D01*
X75550D02*
X78550D01*
X65950D02*
X69350D01*
X57150D02*
X59750D01*
X46150D02*
X50950D01*
X37150D02*
X39950D01*
X27950D02*
X30950D01*
X-1650D02*
X10550D01*
X104150Y-303849D02*
X116350D01*
X94350D02*
X97950D01*
X84750D02*
X88350D01*
X75550D02*
X78550D01*
X65950D02*
X69550D01*
X57150D02*
X59950D01*
X46150D02*
X50950D01*
X37150D02*
X39950D01*
X27950D02*
X30950D01*
X-1650D02*
X10550D01*
X104150Y-303649D02*
X116350D01*
X94350D02*
X97950D01*
X84750D02*
X88350D01*
X75750D02*
X78750D01*
X66150D02*
X69550D01*
X57150D02*
X59950D01*
X46150D02*
X50950D01*
X37150D02*
X40150D01*
X27950D02*
X31150D01*
X-1650D02*
X10750D01*
X104150Y-303449D02*
X116350D01*
X94550D02*
X97950D01*
X84950D02*
X88350D01*
X75750D02*
X78750D01*
X66150D02*
X69550D01*
X57150D02*
X59950D01*
X46350D02*
X51150D01*
X37150D02*
X40150D01*
X27950D02*
X31150D01*
X-1650D02*
X10750D01*
X104150Y-303249D02*
X116350D01*
X94550D02*
X98150D01*
X84950D02*
X88350D01*
X75750D02*
X78750D01*
X66150D02*
X69550D01*
X57350D02*
X59950D01*
X46350D02*
X51150D01*
X37350D02*
X40150D01*
X27950D02*
X31150D01*
X-1650D02*
X10950D01*
X104350Y-303049D02*
X116350D01*
X94550D02*
X98150D01*
X84950D02*
X88550D01*
X75750D02*
X78750D01*
X66150D02*
X69750D01*
X57350D02*
X60150D01*
X46350D02*
X51150D01*
X37350D02*
X40150D01*
X27950D02*
X31150D01*
X-1650D02*
X10950D01*
X104350Y-302849D02*
X116350D01*
X94550D02*
X98150D01*
X84950D02*
X88550D01*
X75950D02*
X78950D01*
X66350D02*
X69750D01*
X57350D02*
X60150D01*
X46350D02*
X51150D01*
X37350D02*
X40350D01*
X27950D02*
X31350D01*
X-1650D02*
X11150D01*
X104350Y-302649D02*
X116350D01*
X94750D02*
X98150D01*
X85150D02*
X88550D01*
X75950D02*
X78950D01*
X66350D02*
X69750D01*
X57350D02*
X60150D01*
X46550D02*
X51350D01*
X37350D02*
X40350D01*
X27950D02*
X31350D01*
X-1650D02*
X11350D01*
X104350Y-302449D02*
X116350D01*
X94750D02*
X98350D01*
X85150D02*
X88550D01*
X75950D02*
X78950D01*
X66350D02*
X69750D01*
X57550D02*
X60150D01*
X46550D02*
X51350D01*
X37550D02*
X40350D01*
X27950D02*
X31350D01*
X-1650D02*
X11350D01*
X104550Y-302249D02*
X116350D01*
X94750D02*
X98350D01*
X85150D02*
X88750D01*
X75950D02*
X78950D01*
X66350D02*
X69950D01*
X57550D02*
X60350D01*
X46550D02*
X51350D01*
X37550D02*
X40350D01*
X27950D02*
X31350D01*
X-1650D02*
X11550D01*
X104550Y-302049D02*
X116350D01*
X94750D02*
X98350D01*
X85150D02*
X88750D01*
X76150D02*
X79150D01*
X66550D02*
X69950D01*
X57550D02*
X60350D01*
X46550D02*
X51350D01*
X37550D02*
X40550D01*
X27950D02*
X31550D01*
X-1650D02*
X11550D01*
X104550Y-301849D02*
X116350D01*
X94950D02*
X98350D01*
X85350D02*
X88750D01*
X76150D02*
X79150D01*
X66550D02*
X69950D01*
X57550D02*
X60350D01*
X46750D02*
X51550D01*
X37550D02*
X40550D01*
X27950D02*
X31550D01*
X17950D02*
X21550D01*
X-1650D02*
X11750D01*
X104550Y-301649D02*
X116350D01*
X94950D02*
X98550D01*
X85350D02*
X88750D01*
X76150D02*
X79150D01*
X66550D02*
X69950D01*
X57750D02*
X60350D01*
X46750D02*
X51550D01*
X37750D02*
X40550D01*
X27950D02*
X31550D01*
X18150D02*
X21550D01*
X-1650D02*
X11750D01*
X104750Y-301449D02*
X116350D01*
X94950D02*
X98550D01*
X85350D02*
X88950D01*
X76150D02*
X79150D01*
X66550D02*
X70150D01*
X57750D02*
X60550D01*
X46750D02*
X51550D01*
X37750D02*
X40550D01*
X27950D02*
X31550D01*
X18150D02*
X21550D01*
X-1650D02*
X11950D01*
X104750Y-301249D02*
X116350D01*
X94950D02*
X98550D01*
X85350D02*
X88950D01*
X76350D02*
X79350D01*
X66750D02*
X70150D01*
X57750D02*
X60550D01*
X46750D02*
X51550D01*
X37750D02*
X40750D01*
X27950D02*
X31750D01*
X18350D02*
X21550D01*
X-1650D02*
X11950D01*
X104750Y-301049D02*
X116350D01*
X95150D02*
X98550D01*
X85550D02*
X88950D01*
X76350D02*
X79350D01*
X66750D02*
X70150D01*
X57750D02*
X60550D01*
X46950D02*
X51750D01*
X37750D02*
X40750D01*
X27950D02*
X31750D01*
X18350D02*
X21550D01*
X-1650D02*
X12150D01*
X104750Y-300849D02*
X116350D01*
X95150D02*
X98750D01*
X85550D02*
X88950D01*
X76350D02*
X79350D01*
X66750D02*
X70150D01*
X57950D02*
X60550D01*
X46950D02*
X51750D01*
X37950D02*
X40750D01*
X27950D02*
X31750D01*
X18550D02*
X21550D01*
X-1650D02*
X12150D01*
X104950Y-300649D02*
X116350D01*
X95150D02*
X98750D01*
X85550D02*
X89150D01*
X76350D02*
X79350D01*
X66750D02*
X70350D01*
X57950D02*
X60750D01*
X46950D02*
X51750D01*
X37950D02*
X40750D01*
X27950D02*
X31750D01*
X18550D02*
X21550D01*
X-1650D02*
X12350D01*
X104950Y-300449D02*
X116350D01*
X95150D02*
X98750D01*
X85550D02*
X89150D01*
X76550D02*
X79550D01*
X66950D02*
X70350D01*
X57950D02*
X60750D01*
X46950D02*
X51750D01*
X37950D02*
X40950D01*
X27950D02*
X31950D01*
X18550D02*
X21750D01*
X-1650D02*
X12350D01*
X104950Y-300249D02*
X116350D01*
X95350D02*
X98750D01*
X85750D02*
X89150D01*
X76550D02*
X79550D01*
X66950D02*
X70350D01*
X57950D02*
X60750D01*
X47150D02*
X51950D01*
X37950D02*
X40950D01*
X27950D02*
X31950D01*
X18750D02*
X21750D01*
X-1650D02*
X12550D01*
X104950Y-300049D02*
X116350D01*
X95350D02*
X98950D01*
X85750D02*
X89150D01*
X76550D02*
X79550D01*
X66950D02*
X70350D01*
X58150D02*
X60750D01*
X47150D02*
X51950D01*
X38150D02*
X40950D01*
X27750D02*
X31950D01*
X18750D02*
X21750D01*
X-1650D02*
X12750D01*
X105150Y-299849D02*
X116350D01*
X95350D02*
X98950D01*
X85750D02*
X89350D01*
X76550D02*
X79550D01*
X66950D02*
X70550D01*
X58150D02*
X60950D01*
X47150D02*
X51950D01*
X38150D02*
X40950D01*
X27750D02*
X31950D01*
X18950D02*
X21750D01*
X-1650D02*
X12750D01*
X105150Y-299649D02*
X116350D01*
X95350D02*
X98950D01*
X85750D02*
X89350D01*
X76750D02*
X79750D01*
X67150D02*
X70550D01*
X58150D02*
X60950D01*
X47150D02*
X51950D01*
X38150D02*
X41150D01*
X27750D02*
X32150D01*
X18950D02*
X21750D01*
X-1650D02*
X12950D01*
X105150Y-299449D02*
X116350D01*
X95550D02*
X98950D01*
X85950D02*
X89350D01*
X76750D02*
X79750D01*
X67150D02*
X70550D01*
X58150D02*
X60950D01*
X47350D02*
X52150D01*
X38150D02*
X41150D01*
X27750D02*
X32150D01*
X19150D02*
X21750D01*
X-1650D02*
X12950D01*
X105150Y-299249D02*
X116350D01*
X95550D02*
X99150D01*
X85950D02*
X89350D01*
X76750D02*
X79750D01*
X67150D02*
X70550D01*
X58350D02*
X60950D01*
X47350D02*
X52150D01*
X38350D02*
X41150D01*
X27750D02*
X32150D01*
X19150D02*
X21750D01*
X-1650D02*
X13150D01*
X105350Y-299049D02*
X116350D01*
X95550D02*
X99150D01*
X85950D02*
X89550D01*
X76750D02*
X79750D01*
X67150D02*
X70750D01*
X58350D02*
X61150D01*
X47350D02*
X52150D01*
X38350D02*
X41350D01*
X27750D02*
X32150D01*
X19350D02*
X21750D01*
X-1650D02*
X13150D01*
X105350Y-298849D02*
X116350D01*
X95750D02*
X99150D01*
X85950D02*
X89550D01*
X76950D02*
X79950D01*
X67350D02*
X70750D01*
X58350D02*
X61150D01*
X47350D02*
X52150D01*
X38350D02*
X41350D01*
X27750D02*
X32350D01*
X19350D02*
X21750D01*
X-1650D02*
X13350D01*
X105350Y-298649D02*
X116350D01*
X95750D02*
X99150D01*
X86150D02*
X89550D01*
X76950D02*
X79950D01*
X67350D02*
X70750D01*
X58350D02*
X61150D01*
X47550D02*
X52350D01*
X38350D02*
X41350D01*
X27750D02*
X32350D01*
X19550D02*
X21750D01*
X-1650D02*
X13350D01*
X105350Y-298449D02*
X116350D01*
X95750D02*
X99150D01*
X86150D02*
X89550D01*
X76950D02*
X79950D01*
X67350D02*
X70750D01*
X58550D02*
X61150D01*
X47550D02*
X52350D01*
X38550D02*
X41350D01*
X27750D02*
X32350D01*
X19550D02*
X21750D01*
X-1650D02*
X13550D01*
X105550Y-298249D02*
X116350D01*
X95950D02*
X99350D01*
X86350D02*
X89550D01*
X76950D02*
X79950D01*
X67350D02*
X70950D01*
X58550D02*
X61350D01*
X47550D02*
X52350D01*
X38550D02*
X41550D01*
X27750D02*
X32350D01*
X19750D02*
X21750D01*
X-1650D02*
X13550D01*
X105550Y-298049D02*
X116350D01*
X95950D02*
X99150D01*
X86350D02*
X89550D01*
X77150D02*
X80150D01*
X67550D02*
X70950D01*
X58550D02*
X61350D01*
X47550D02*
X52350D01*
X38550D02*
X41550D01*
X27750D02*
X32550D01*
X19750D02*
X21750D01*
X-1650D02*
X13750D01*
X105550Y-297849D02*
X116350D01*
X96150D02*
X99150D01*
X86550D02*
X89550D01*
X77150D02*
X80150D01*
X67550D02*
X70950D01*
X58550D02*
X61350D01*
X47750D02*
X52550D01*
X38550D02*
X41550D01*
X27750D02*
X32550D01*
X19750D02*
X21750D01*
X-1650D02*
X13750D01*
X105550Y-297649D02*
X116350D01*
X96350D02*
X99150D01*
X86750D02*
X89550D01*
X77150D02*
X80150D01*
X67550D02*
X70950D01*
X58750D02*
X61350D01*
X47750D02*
X52550D01*
X38750D02*
X41550D01*
X27750D02*
X32550D01*
X19950D02*
X21750D01*
X-1650D02*
X13950D01*
X105750Y-297449D02*
X116350D01*
X96550D02*
X98950D01*
X86950D02*
X89350D01*
X77150D02*
X80150D01*
X67550D02*
X71150D01*
X58750D02*
X61550D01*
X47750D02*
X52550D01*
X38750D02*
X41750D01*
X27750D02*
X32550D01*
X19950D02*
X21750D01*
X-1650D02*
X13950D01*
X105750Y-297249D02*
X116350D01*
X96950D02*
X98750D01*
X87350D02*
X89150D01*
X77350D02*
X80350D01*
X67750D02*
X71150D01*
X58750D02*
X61550D01*
X47750D02*
X52550D01*
X38750D02*
X41750D01*
X27750D02*
X32750D01*
X20150D02*
X21750D01*
X-1650D02*
X14150D01*
X105750Y-297049D02*
X116350D01*
X77350D02*
X80350D01*
X67750D02*
X71150D01*
X58750D02*
X61550D01*
X50350D02*
X52750D01*
X38750D02*
X41750D01*
X27750D02*
X32750D01*
X20150D02*
X21750D01*
X-1650D02*
X14350D01*
X105750Y-296849D02*
X116350D01*
X77350D02*
X80350D01*
X67750D02*
X71150D01*
X58950D02*
X61550D01*
X50550D02*
X52750D01*
X38950D02*
X41750D01*
X27750D02*
X32750D01*
X20350D02*
X21950D01*
X-1650D02*
X14350D01*
X105750Y-296649D02*
X116350D01*
X77350D02*
X80350D01*
X67750D02*
X71350D01*
X58950D02*
X61750D01*
X50550D02*
X52750D01*
X38950D02*
X41950D01*
X27750D02*
X32750D01*
X20350D02*
X21950D01*
X-1650D02*
X14550D01*
X105950Y-296449D02*
X116350D01*
X77550D02*
X80550D01*
X67950D02*
X71350D01*
X58950D02*
X61750D01*
X50550D02*
X52750D01*
X38950D02*
X41950D01*
X27750D02*
X32950D01*
X20550D02*
X21950D01*
X-1650D02*
X14550D01*
X105950Y-296249D02*
X116350D01*
X77550D02*
X80550D01*
X67950D02*
X71350D01*
X58950D02*
X61750D01*
X50550D02*
X52950D01*
X38950D02*
X41950D01*
X27750D02*
X32950D01*
X20550D02*
X21950D01*
X-1650D02*
X14750D01*
X105950Y-296049D02*
X116350D01*
X77550D02*
X80550D01*
X67950D02*
X71350D01*
X59150D02*
X61750D01*
X50750D02*
X52950D01*
X39150D02*
X41950D01*
X27750D02*
X32950D01*
X20750D02*
X21950D01*
X-1650D02*
X14750D01*
X105950Y-295849D02*
X116350D01*
X77550D02*
X80550D01*
X67950D02*
X71550D01*
X59150D02*
X61950D01*
X50750D02*
X52950D01*
X39150D02*
X42150D01*
X27750D02*
X32950D01*
X20750D02*
X21950D01*
X-1650D02*
X14950D01*
X105950Y-295649D02*
X116350D01*
X77750D02*
X80750D01*
X68150D02*
X71550D01*
X59150D02*
X61950D01*
X50750D02*
X52950D01*
X39150D02*
X42150D01*
X27750D02*
X33150D01*
X20750D02*
X21950D01*
X-1650D02*
X14950D01*
X105950Y-295449D02*
X116350D01*
X77750D02*
X80750D01*
X68150D02*
X71550D01*
X59150D02*
X61950D01*
X50750D02*
X53150D01*
X39150D02*
X42150D01*
X27750D02*
X33150D01*
X20950D02*
X21950D01*
X-1650D02*
X15150D01*
X105750Y-295249D02*
X116350D01*
X96350D02*
X96550D01*
X86950D02*
X87150D01*
X77750D02*
X80750D01*
X68150D02*
X71550D01*
X59350D02*
X61950D01*
X50950D02*
X53150D01*
X39350D02*
X42150D01*
X27750D02*
X33150D01*
X20950D02*
X21950D01*
X-1650D02*
X15150D01*
X105750Y-295049D02*
X116350D01*
X96150D02*
X96750D01*
X86950D02*
X87350D01*
X77750D02*
X80750D01*
X68150D02*
X71750D01*
X59350D02*
X62150D01*
X50950D02*
X53150D01*
X39350D02*
X42350D01*
X27750D02*
X33150D01*
X21150D02*
X21950D01*
X-1650D02*
X15350D01*
X105750Y-294849D02*
X116350D01*
X96150D02*
X96950D01*
X87150D02*
X87550D01*
X77950D02*
X80950D01*
X68350D02*
X71750D01*
X59350D02*
X62150D01*
X50950D02*
X53150D01*
X39350D02*
X42350D01*
X27750D02*
X33350D01*
X21150D02*
X21950D01*
X-1650D02*
X15350D01*
X105750Y-294649D02*
X116350D01*
X96150D02*
X97150D01*
X87150D02*
X87750D01*
X77950D02*
X80950D01*
X68350D02*
X71750D01*
X59350D02*
X62150D01*
X50950D02*
X53350D01*
X39350D02*
X42350D01*
X27550D02*
X33350D01*
X21350D02*
X21950D01*
X-1650D02*
X15550D01*
X105550Y-294449D02*
X116350D01*
X95950D02*
X97350D01*
X87150D02*
X87950D01*
X77950D02*
X80950D01*
X68350D02*
X71750D01*
X59550D02*
X62150D01*
X51150D02*
X53350D01*
X39550D02*
X42350D01*
X27550D02*
X33350D01*
X21350D02*
X21950D01*
X-1650D02*
X15750D01*
X105550Y-294249D02*
X116350D01*
X95750D02*
X97550D01*
X87150D02*
X88150D01*
X77950D02*
X80950D01*
X68350D02*
X71950D01*
X59550D02*
X62350D01*
X51150D02*
X53350D01*
X39550D02*
X42550D01*
X27550D02*
X33350D01*
X21550D02*
X21950D01*
X-1650D02*
X15750D01*
X105350Y-294049D02*
X116350D01*
X95750D02*
X97950D01*
X87350D02*
X88550D01*
X78150D02*
X81150D01*
X68550D02*
X71950D01*
X59550D02*
X62350D01*
X51150D02*
X53350D01*
X39550D02*
X42550D01*
X27550D02*
X33550D01*
X21550D02*
X21950D01*
X-1650D02*
X15950D01*
X105150Y-293849D02*
X116350D01*
X95550D02*
X98350D01*
X87350D02*
X88750D01*
X78150D02*
X81150D01*
X68550D02*
X71950D01*
X59550D02*
X62350D01*
X51150D02*
X53550D01*
X39750D02*
X42550D01*
X27550D02*
X33550D01*
X21750D02*
X21950D01*
X-1650D02*
X15950D01*
X104750Y-293649D02*
X116350D01*
X95150D02*
X98750D01*
X87350D02*
X89150D01*
X78150D02*
X81150D01*
X68550D02*
X71950D01*
X59750D02*
X62350D01*
X51350D02*
X53550D01*
X39750D02*
X42550D01*
X27550D02*
X33550D01*
X21750D02*
X21950D01*
X-1650D02*
X16150D01*
X104350Y-293449D02*
X116350D01*
X94950D02*
X99150D01*
X51350D02*
X89550D01*
X39750D02*
X42750D01*
X27550D02*
X33550D01*
X-1650D02*
X16150D01*
X103950Y-293249D02*
X116350D01*
X94350D02*
X99750D01*
X48750D02*
X90150D01*
X39750D02*
X42750D01*
X27550D02*
X33750D01*
X-1650D02*
X16350D01*
X102950Y-293049D02*
X116350D01*
X93550D02*
X100950D01*
X48950D02*
X91350D01*
X39950D02*
X42750D01*
X27550D02*
X33750D01*
X-1650D02*
X16350D01*
X48950Y-292849D02*
X116350D01*
X39950D02*
X42750D01*
X27550D02*
X33750D01*
X-1650D02*
X16550D01*
X48950Y-292649D02*
X116350D01*
X39950D02*
X42950D01*
X27550D02*
X33750D01*
X-1650D02*
X16550D01*
X48950Y-292449D02*
X116350D01*
X39950D02*
X42950D01*
X27550D02*
X33950D01*
X-1650D02*
X16750D01*
X49150Y-292249D02*
X116350D01*
X40150D02*
X42950D01*
X27550D02*
X33950D01*
X-1650D02*
X16750D01*
X49150Y-292049D02*
X116350D01*
X40150D02*
X42950D01*
X27550D02*
X33950D01*
X-1650D02*
X16950D01*
X49150Y-291849D02*
X116350D01*
X40150D02*
X43150D01*
X27550D02*
X33950D01*
X-1650D02*
X17150D01*
X49150Y-291649D02*
X116350D01*
X40150D02*
X43150D01*
X27550D02*
X33950D01*
X-1650D02*
X17150D01*
X49350Y-291449D02*
X116350D01*
X40350D02*
X43150D01*
X27550D02*
X34150D01*
X-1650D02*
X17350D01*
X49350Y-291249D02*
X116350D01*
X40350D02*
X43150D01*
X27550D02*
X34150D01*
X-1650D02*
X17550D01*
X49350Y-291049D02*
X116350D01*
X40350D02*
X43350D01*
X27550D02*
X34150D01*
X-1650D02*
X17750D01*
X49550Y-290849D02*
X116350D01*
X40350D02*
X43350D01*
X27550D02*
X34150D01*
X-1650D02*
X17950D01*
X49550Y-290649D02*
X116350D01*
X40550D02*
X43350D01*
X27550D02*
X34350D01*
X-1650D02*
X18150D01*
X49550Y-290449D02*
X116350D01*
X40550D02*
X43350D01*
X27550D02*
X34350D01*
X-1650D02*
X18350D01*
X49550Y-290249D02*
X116350D01*
X40550D02*
X43550D01*
X27550D02*
X34350D01*
X-1650D02*
X18550D01*
X49750Y-290049D02*
X116350D01*
X40550D02*
X43550D01*
X27550D02*
X34350D01*
X-1650D02*
X18750D01*
X49750Y-289849D02*
X116350D01*
X40750D02*
X43550D01*
X27550D02*
X34550D01*
X-1650D02*
X18950D01*
X49750Y-289649D02*
X116350D01*
X40750D02*
X43550D01*
X27550D02*
X34550D01*
X-1650D02*
X19350D01*
X49750Y-289449D02*
X116350D01*
X40750D02*
X43750D01*
X27350D02*
X34550D01*
X-1650D02*
X19550D01*
X49950Y-289249D02*
X116350D01*
X40750D02*
X43750D01*
X27350D02*
X34550D01*
X-1650D02*
X19950D01*
X49950Y-289049D02*
X116350D01*
X40950D02*
X43750D01*
X27350D02*
X34750D01*
X-1650D02*
X20350D01*
X49950Y-288849D02*
X116350D01*
X40950D02*
X43750D01*
X27350D02*
X34750D01*
X-1650D02*
X20750D01*
X49950Y-288649D02*
X116350D01*
X40950D02*
X43950D01*
X27350D02*
X34750D01*
X-1650D02*
X21350D01*
X50150Y-288449D02*
X116350D01*
X40950D02*
X43950D01*
X27350D02*
X34750D01*
X-1650D02*
X21950D01*
X41150Y-288249D02*
X116350D01*
X27350D02*
X34950D01*
X-1650D02*
X23150D01*
X-1650Y-288049D02*
X116350D01*
X-1450Y-287849D02*
X116350D01*
X-1450Y-287649D02*
X116350D01*
X-1450Y-287449D02*
X116350D01*
X-1450Y-287249D02*
X116350D01*
X-1250Y-287049D02*
X116350D01*
X-1250Y-286849D02*
X116350D01*
X-1250Y-286649D02*
X116350D01*
X-1050Y-286449D02*
X116350D01*
X-1050Y-286249D02*
X116350D01*
X-850Y-286049D02*
X116350D01*
X-850Y-285849D02*
X116350D01*
X-650Y-285649D02*
X116350D01*
X-650Y-285449D02*
X116350D01*
X-650Y-285249D02*
X116350D01*
X-450Y-285049D02*
X116350D01*
X-250Y-284849D02*
X116350D01*
X-250Y-284649D02*
X116350D01*
X-50Y-284449D02*
X116350D01*
X-50Y-284249D02*
X116350D01*
X150Y-284049D02*
X116350D01*
X350Y-283849D02*
X116350D01*
X550Y-283649D02*
X116350D01*
X550Y-283449D02*
X116350D01*
X750Y-283249D02*
X116350D01*
X950Y-283049D02*
X116350D01*
X1150Y-282849D02*
X116350D01*
X1350Y-282649D02*
X116350D01*
X1350Y-282449D02*
X116350D01*
X1550Y-282249D02*
X116350D01*
X1750Y-282049D02*
X116350D01*
X1950Y-281849D02*
X116350D01*
X2150Y-281649D02*
X116350D01*
X2350Y-281449D02*
X116350D01*
X2750Y-281249D02*
X116350D01*
X2950Y-281049D02*
X116350D01*
X3150Y-280849D02*
X116350D01*
X3350Y-280649D02*
X116350D01*
X3750Y-280449D02*
X116350D01*
X3950Y-280249D02*
X116350D01*
X4350Y-280049D02*
X116350D01*
X4750Y-279849D02*
X116350D01*
X5150Y-279649D02*
X116350D01*
X5550Y-279449D02*
X116350D01*
X5950Y-279249D02*
X116350D01*
X6550Y-279049D02*
X116350D01*
X7150Y-278849D02*
X116350D01*
X7750Y-278649D02*
X116350D01*
X8950Y-278449D02*
X116350D01*
D163*
X589683Y246451D02*
X587016Y253450D01*
X584350Y246451D01*
X585350Y248784D02*
X588683D01*
X584350Y-315750D02*
Y-322749D01*
Y-315750D02*
X586683D01*
X587683Y-316084D01*
X588349Y-316750D01*
X588683Y-317417D01*
X589016Y-318416D01*
Y-320083D01*
X588683Y-321082D01*
X588349Y-321749D01*
X587683Y-322416D01*
X586683Y-322749D01*
X584350D01*
X-540317Y246451D02*
X-542983Y253450D01*
X-545650Y246451D01*
X-544650Y248784D02*
X-541317D01*
X-545650Y64250D02*
Y57251D01*
Y64250D02*
X-542650D01*
X-541650Y63916D01*
X-541317Y63583D01*
X-540984Y62917D01*
Y62250D01*
X-541317Y61584D01*
X-541650Y61250D01*
X-542650Y60917D01*
X-545650D02*
X-542650D01*
X-541650Y60584D01*
X-541317Y60251D01*
X-540984Y59584D01*
Y58584D01*
X-541317Y57918D01*
X-541650Y57584D01*
X-542650Y57251D01*
X-545650D01*
X-540651Y-128417D02*
X-540984Y-127750D01*
X-541650Y-127084D01*
X-542317Y-126750D01*
X-543650D01*
X-544317Y-127084D01*
X-544983Y-127750D01*
X-545316Y-128417D01*
X-545650Y-129416D01*
Y-131083D01*
X-545316Y-132082D01*
X-544983Y-132749D01*
X-544317Y-133416D01*
X-543650Y-133749D01*
X-542317D01*
X-541650Y-133416D01*
X-540984Y-132749D01*
X-540651Y-132082D01*
X-545650Y-315750D02*
Y-322749D01*
Y-315750D02*
X-543317D01*
X-542317Y-316084D01*
X-541650Y-316750D01*
X-541317Y-317417D01*
X-540984Y-318416D01*
Y-320083D01*
X-541317Y-321082D01*
X-541650Y-321749D01*
X-542317Y-322416D01*
X-543317Y-322749D01*
X-545650D01*
X-410450Y342717D02*
X-409783Y343050D01*
X-408783Y344050D01*
Y337051D01*
X-124116Y342383D02*
Y342717D01*
X-123783Y343383D01*
X-123450Y343716D01*
X-122783Y344050D01*
X-121450D01*
X-120784Y343716D01*
X-120450Y343383D01*
X-120117Y342717D01*
Y342050D01*
X-120450Y341384D01*
X-121117Y340384D01*
X-124450Y337051D01*
X-119784D01*
X164217Y344050D02*
X167883D01*
X165883Y341384D01*
X166883D01*
X167550Y341050D01*
X167883Y340717D01*
X168216Y339717D01*
Y339051D01*
X167883Y338051D01*
X167216Y337384D01*
X166217Y337051D01*
X165217D01*
X164217Y337384D01*
X163884Y337718D01*
X163550Y338384D01*
X453883Y344050D02*
X450550Y339384D01*
X455549D01*
X453883Y344050D02*
Y337051D01*
X-410450Y-397283D02*
X-409783Y-396950D01*
X-408783Y-395950D01*
Y-402949D01*
X-119784D02*
X-124450D01*
X-119784Y-398284D01*
Y-397117D01*
X-120951Y-395951D01*
X-123283D01*
X-124450Y-397117D01*
X163550D02*
X164717Y-395951D01*
X167049D01*
X168216Y-397117D01*
Y-398284D01*
X167049Y-399450D01*
X165883D01*
X167049D01*
X168216Y-400616D01*
Y-401783D01*
X167049Y-402949D01*
X164717D01*
X163550Y-401783D01*
X454049Y-402949D02*
Y-395951D01*
X450550Y-399450D01*
X455216D01*
X1850Y-372450D02*
Y-379449D01*
Y-372450D02*
X6516Y-379449D01*
Y-372450D02*
Y-379449D01*
X13115Y-373450D02*
X12448Y-372784D01*
X11448Y-372450D01*
X10115D01*
X9116Y-372784D01*
X8449Y-373450D01*
Y-374117D01*
X8782Y-374783D01*
X9116Y-375116D01*
X9782Y-375450D01*
X11782Y-376116D01*
X12448Y-376449D01*
X12781Y-376783D01*
X13115Y-377449D01*
Y-378449D01*
X12448Y-379116D01*
X11448Y-379449D01*
X10115D01*
X9116Y-379116D01*
X8449Y-378449D01*
X14681Y-372450D02*
X16347Y-379449D01*
X18014Y-372450D02*
X16347Y-379449D01*
X18014Y-372450D02*
X19680Y-379449D01*
X21346Y-372450D02*
X19680Y-379449D01*
X28578Y-374117D02*
Y-373783D01*
X28911Y-373117D01*
X29245Y-372784D01*
X29911Y-372450D01*
X31244D01*
X31911Y-372784D01*
X32244Y-373117D01*
X32577Y-373783D01*
Y-374450D01*
X32244Y-375116D01*
X31577Y-376116D01*
X28245Y-379449D01*
X32910D01*
X36476Y-372450D02*
X35476Y-372784D01*
X34810Y-373783D01*
X34477Y-375450D01*
Y-376449D01*
X34810Y-378116D01*
X35476Y-379116D01*
X36476Y-379449D01*
X37143D01*
X38143Y-379116D01*
X38809Y-378116D01*
X39142Y-376449D01*
Y-375450D01*
X38809Y-373783D01*
X38143Y-372784D01*
X37143Y-372450D01*
X36476D01*
X42375D02*
X41375Y-372784D01*
X41042Y-373450D01*
Y-374117D01*
X41375Y-374783D01*
X42042Y-375116D01*
X43375Y-375450D01*
X44375Y-375783D01*
X45041Y-376449D01*
X45374Y-377116D01*
Y-378116D01*
X45041Y-378782D01*
X44708Y-379116D01*
X43708Y-379449D01*
X42375D01*
X41375Y-379116D01*
X41042Y-378782D01*
X40709Y-378116D01*
Y-377116D01*
X41042Y-376449D01*
X41708Y-375783D01*
X42708Y-375450D01*
X44041Y-375116D01*
X44708Y-374783D01*
X45041Y-374117D01*
Y-373450D01*
X44708Y-372784D01*
X43708Y-372450D01*
X42375D01*
X50940Y-373450D02*
X50607Y-372784D01*
X49607Y-372450D01*
X48940D01*
X47940Y-372784D01*
X47274Y-373783D01*
X46941Y-375450D01*
Y-377116D01*
X47274Y-378449D01*
X47940Y-379116D01*
X48940Y-379449D01*
X49274D01*
X50273Y-379116D01*
X50940Y-378449D01*
X51273Y-377449D01*
Y-377116D01*
X50940Y-376116D01*
X50273Y-375450D01*
X49274Y-375116D01*
X48940D01*
X47940Y-375450D01*
X47274Y-376116D01*
X46941Y-377116D01*
X1850Y-362450D02*
Y-369449D01*
Y-362450D02*
X6183D01*
X1850Y-365783D02*
X4516D01*
X6983Y-364783D02*
Y-369449D01*
Y-366783D02*
X7316Y-365783D01*
X7982Y-365116D01*
X8649Y-364783D01*
X9649D01*
X10282Y-366783D02*
X14281D01*
Y-366116D01*
X13948Y-365450D01*
X13614Y-365116D01*
X12948Y-364783D01*
X11948D01*
X11282Y-365116D01*
X10615Y-365783D01*
X10282Y-366783D01*
Y-367449D01*
X10615Y-368449D01*
X11282Y-369116D01*
X11948Y-369449D01*
X12948D01*
X13614Y-369116D01*
X14281Y-368449D01*
X15781Y-364783D02*
Y-369449D01*
Y-366116D02*
X16781Y-365116D01*
X17447Y-364783D01*
X18447D01*
X19113Y-365116D01*
X19447Y-366116D01*
Y-369449D01*
X25279Y-365783D02*
X24612Y-365116D01*
X23946Y-364783D01*
X22946D01*
X22279Y-365116D01*
X21613Y-365783D01*
X21280Y-366783D01*
Y-367449D01*
X21613Y-368449D01*
X22279Y-369116D01*
X22946Y-369449D01*
X23946D01*
X24612Y-369116D01*
X25279Y-368449D01*
X26778Y-362450D02*
Y-369449D01*
Y-366116D02*
X27778Y-365116D01*
X28445Y-364783D01*
X29445D01*
X30111Y-365116D01*
X30444Y-366116D01*
Y-369449D01*
X35943Y-365783D02*
X35610Y-365116D01*
X34610Y-364783D01*
X33610D01*
X32610Y-365116D01*
X32277Y-365783D01*
X32610Y-366449D01*
X33277Y-366783D01*
X34943Y-367116D01*
X35610Y-367449D01*
X35943Y-368116D01*
Y-368449D01*
X35610Y-369116D01*
X34610Y-369449D01*
X33610D01*
X32610Y-369116D01*
X32277Y-368449D01*
X42908Y-362450D02*
Y-369449D01*
Y-362450D02*
X47241D01*
X42908Y-365783D02*
X45574D01*
X49707Y-364783D02*
X49040Y-365116D01*
X48374Y-365783D01*
X48041Y-366783D01*
Y-367449D01*
X48374Y-368449D01*
X49040Y-369116D01*
X49707Y-369449D01*
X50707D01*
X51373Y-369116D01*
X52040Y-368449D01*
X52373Y-367449D01*
Y-366783D01*
X52040Y-365783D01*
X51373Y-365116D01*
X50707Y-364783D01*
X49707D01*
X53906D02*
Y-369449D01*
Y-366783D02*
X54239Y-365783D01*
X54906Y-365116D01*
X55572Y-364783D01*
X56572D01*
X57205Y-366783D02*
X61204D01*
Y-366116D01*
X60871Y-365450D01*
X60538Y-365116D01*
X59871Y-364783D01*
X58872D01*
X58205Y-365116D01*
X57538Y-365783D01*
X57205Y-366783D01*
Y-367449D01*
X57538Y-368449D01*
X58205Y-369116D01*
X58872Y-369449D01*
X59871D01*
X60538Y-369116D01*
X61204Y-368449D01*
X66370Y-365783D02*
X66037Y-365116D01*
X65037Y-364783D01*
X64037D01*
X63037Y-365116D01*
X62704Y-365783D01*
X63037Y-366449D01*
X63704Y-366783D01*
X65370Y-367116D01*
X66037Y-367449D01*
X66370Y-368116D01*
Y-368449D01*
X66037Y-369116D01*
X65037Y-369449D01*
X64037D01*
X63037Y-369116D01*
X62704Y-368449D01*
X68836Y-362450D02*
Y-368116D01*
X69169Y-369116D01*
X69836Y-369449D01*
X70502D01*
X67836Y-364783D02*
X70169D01*
X1850Y-353783D02*
X2517Y-353450D01*
X3517Y-352450D01*
Y-359449D01*
X7316Y-354117D02*
Y-353783D01*
X7649Y-353117D01*
X7982Y-352784D01*
X8649Y-352450D01*
X9982D01*
X10649Y-352784D01*
X10982Y-353117D01*
X11315Y-353783D01*
Y-354450D01*
X10982Y-355116D01*
X10315Y-356116D01*
X6983Y-359449D01*
X11648D01*
X17214Y-354783D02*
Y-359449D01*
Y-355783D02*
X16547Y-355116D01*
X15881Y-354783D01*
X14881D01*
X14214Y-355116D01*
X13548Y-355783D01*
X13215Y-356783D01*
Y-357449D01*
X13548Y-358449D01*
X14214Y-359116D01*
X14881Y-359449D01*
X15881D01*
X16547Y-359116D01*
X17214Y-358449D01*
X24579Y-352450D02*
Y-359449D01*
Y-352450D02*
X27578D01*
X28578Y-352784D01*
X28911Y-353117D01*
X29245Y-353783D01*
Y-354450D01*
X28911Y-355116D01*
X28578Y-355450D01*
X27578Y-355783D01*
X24579D01*
X26912D02*
X29245Y-359449D01*
X32477Y-354783D02*
X31811Y-355116D01*
X31144Y-355783D01*
X30811Y-356783D01*
Y-357449D01*
X31144Y-358449D01*
X31811Y-359116D01*
X32477Y-359449D01*
X33477D01*
X34143Y-359116D01*
X34810Y-358449D01*
X35143Y-357449D01*
Y-356783D01*
X34810Y-355783D01*
X34143Y-355116D01*
X33477Y-354783D01*
X32477D01*
X40675Y-352450D02*
Y-359449D01*
Y-355783D02*
X40009Y-355116D01*
X39342Y-354783D01*
X38343D01*
X37676Y-355116D01*
X37010Y-355783D01*
X36676Y-356783D01*
Y-357449D01*
X37010Y-358449D01*
X37676Y-359116D01*
X38343Y-359449D01*
X39342D01*
X40009Y-359116D01*
X40675Y-358449D01*
X42542Y-352450D02*
Y-359449D01*
Y-355783D02*
X43208Y-355116D01*
X43875Y-354783D01*
X44875D01*
X45541Y-355116D01*
X46207Y-355783D01*
X46541Y-356783D01*
Y-357449D01*
X46207Y-358449D01*
X45541Y-359116D01*
X44875Y-359449D01*
X43875D01*
X43208Y-359116D01*
X42542Y-358449D01*
X49707Y-354783D02*
X49040Y-355116D01*
X48374Y-355783D01*
X48041Y-356783D01*
Y-357449D01*
X48374Y-358449D01*
X49040Y-359116D01*
X49707Y-359449D01*
X50707D01*
X51373Y-359116D01*
X52040Y-358449D01*
X52373Y-357449D01*
Y-356783D01*
X52040Y-355783D01*
X51373Y-355116D01*
X50707Y-354783D01*
X49707D01*
X53906D02*
Y-359449D01*
Y-356783D02*
X54239Y-355783D01*
X54906Y-355116D01*
X55572Y-354783D01*
X56572D01*
X58872D02*
X58205Y-355116D01*
X57538Y-355783D01*
X57205Y-356783D01*
Y-357449D01*
X57538Y-358449D01*
X58205Y-359116D01*
X58872Y-359449D01*
X59871D01*
X60538Y-359116D01*
X61204Y-358449D01*
X61538Y-357449D01*
Y-356783D01*
X61204Y-355783D01*
X60538Y-355116D01*
X59871Y-354783D01*
X58872D01*
X63071D02*
Y-358116D01*
X63404Y-359116D01*
X64070Y-359449D01*
X65070D01*
X65737Y-359116D01*
X66737Y-358116D01*
Y-354783D02*
Y-359449D01*
X72569Y-354783D02*
Y-360115D01*
X72235Y-361115D01*
X71902Y-361448D01*
X71236Y-361782D01*
X70236D01*
X69569Y-361448D01*
X72569Y-355783D02*
X71902Y-355116D01*
X71236Y-354783D01*
X70236D01*
X69569Y-355116D01*
X68903Y-355783D01*
X68569Y-356783D01*
Y-357449D01*
X68903Y-358449D01*
X69569Y-359116D01*
X70236Y-359449D01*
X71236D01*
X71902Y-359116D01*
X72569Y-358449D01*
X74435Y-352450D02*
Y-359449D01*
Y-356116D02*
X75435Y-355116D01*
X76101Y-354783D01*
X77101D01*
X77767Y-355116D01*
X78101Y-356116D01*
Y-359449D01*
X85432Y-352450D02*
Y-359449D01*
Y-352450D02*
X88432D01*
X89432Y-352784D01*
X89765Y-353117D01*
X90098Y-353783D01*
Y-354450D01*
X89765Y-355116D01*
X89432Y-355450D01*
X88432Y-355783D01*
X85432D01*
X87765D02*
X90098Y-359449D01*
X95664Y-352450D02*
Y-359449D01*
Y-355783D02*
X94997Y-355116D01*
X94331Y-354783D01*
X93331D01*
X92664Y-355116D01*
X91998Y-355783D01*
X91664Y-356783D01*
Y-357449D01*
X91998Y-358449D01*
X92664Y-359116D01*
X93331Y-359449D01*
X94331D01*
X94997Y-359116D01*
X95664Y-358449D01*
X7183Y-349449D02*
X4516Y-342450D01*
X1850Y-349449D01*
X2850Y-347116D02*
X6183D01*
X8816Y-342450D02*
Y-349449D01*
X11282Y-342450D02*
Y-348116D01*
X11615Y-349116D01*
X12281Y-349449D01*
X12948D01*
X10282Y-344783D02*
X12615D01*
X14614Y-342450D02*
X14948Y-342784D01*
X15281Y-342450D01*
X14948Y-342117D01*
X14614Y-342450D01*
X14948Y-344783D02*
Y-349449D01*
X16514Y-344783D02*
Y-348116D01*
X16847Y-349116D01*
X17514Y-349449D01*
X18514D01*
X19180Y-349116D01*
X20180Y-348116D01*
Y-344783D02*
Y-349449D01*
X22013Y-344783D02*
Y-349449D01*
Y-346116D02*
X23012Y-345116D01*
X23679Y-344783D01*
X24679D01*
X25345Y-345116D01*
X25679Y-346116D01*
Y-349449D01*
Y-346116D02*
X26678Y-345116D01*
X27345Y-344783D01*
X28345D01*
X29011Y-345116D01*
X29344Y-346116D01*
Y-349449D01*
X37043Y-342450D02*
Y-349449D01*
X41042D01*
X42475Y-342450D02*
X42808Y-342784D01*
X43141Y-342450D01*
X42808Y-342117D01*
X42475Y-342450D01*
X42808Y-344783D02*
Y-349449D01*
X44375Y-344783D02*
Y-349449D01*
Y-346116D02*
X45374Y-345116D01*
X46041Y-344783D01*
X47041D01*
X47707Y-345116D01*
X48041Y-346116D01*
Y-349449D01*
Y-346116D02*
X49040Y-345116D01*
X49707Y-344783D01*
X50707D01*
X51373Y-345116D01*
X51706Y-346116D01*
Y-349449D01*
X54572Y-342450D02*
X54906Y-342784D01*
X55239Y-342450D01*
X54906Y-342117D01*
X54572Y-342450D01*
X54906Y-344783D02*
Y-349449D01*
X57472Y-342450D02*
Y-348116D01*
X57805Y-349116D01*
X58472Y-349449D01*
X59138D01*
X56472Y-344783D02*
X58805D01*
X60138Y-346783D02*
X64137D01*
Y-346116D01*
X63804Y-345450D01*
X63471Y-345116D01*
X62804Y-344783D01*
X61804D01*
X61138Y-345116D01*
X60471Y-345783D01*
X60138Y-346783D01*
Y-347449D01*
X60471Y-348449D01*
X61138Y-349116D01*
X61804Y-349449D01*
X62804D01*
X63471Y-349116D01*
X64137Y-348449D01*
X69636Y-342450D02*
Y-349449D01*
Y-345783D02*
X68969Y-345116D01*
X68303Y-344783D01*
X67303D01*
X66637Y-345116D01*
X65970Y-345783D01*
X65637Y-346783D01*
Y-347449D01*
X65970Y-348449D01*
X66637Y-349116D01*
X67303Y-349449D01*
X68303D01*
X68969Y-349116D01*
X69636Y-348449D01*
X138850Y-344450D02*
X137850Y-344784D01*
X137184Y-345783D01*
X136850Y-347450D01*
Y-348449D01*
X137184Y-350116D01*
X137850Y-351116D01*
X138850Y-351449D01*
X139516D01*
X140516Y-351116D01*
X141183Y-350116D01*
X141516Y-348449D01*
Y-347450D01*
X141183Y-345783D01*
X140516Y-344784D01*
X139516Y-344450D01*
X138850D01*
X143082Y-345783D02*
X143749Y-345450D01*
X144749Y-344450D01*
Y-351449D01*
X148548Y-350782D02*
X148215Y-351116D01*
X148548Y-351449D01*
X148881Y-351116D01*
X148548Y-350782D01*
X152414Y-344450D02*
X151414Y-344784D01*
X150747Y-345783D01*
X150414Y-347450D01*
Y-348449D01*
X150747Y-350116D01*
X151414Y-351116D01*
X152414Y-351449D01*
X153080D01*
X154080Y-351116D01*
X154747Y-350116D01*
X155080Y-348449D01*
Y-347450D01*
X154747Y-345783D01*
X154080Y-344784D01*
X153080Y-344450D01*
X152414D01*
X160978Y-346783D02*
X160645Y-347783D01*
X159979Y-348449D01*
X158979Y-348783D01*
X158646D01*
X157646Y-348449D01*
X156979Y-347783D01*
X156646Y-346783D01*
Y-346450D01*
X156979Y-345450D01*
X157646Y-344784D01*
X158646Y-344450D01*
X158979D01*
X159979Y-344784D01*
X160645Y-345450D01*
X160978Y-346783D01*
Y-348449D01*
X160645Y-350116D01*
X159979Y-351116D01*
X158979Y-351449D01*
X158312D01*
X157313Y-351116D01*
X156979Y-350449D01*
X163211Y-350782D02*
X162878Y-351116D01*
X163211Y-351449D01*
X163545Y-351116D01*
X163211Y-350782D01*
X165411Y-346117D02*
Y-345783D01*
X165744Y-345117D01*
X166077Y-344784D01*
X166744Y-344450D01*
X168077D01*
X168744Y-344784D01*
X169077Y-345117D01*
X169410Y-345783D01*
Y-346450D01*
X169077Y-347116D01*
X168410Y-348116D01*
X165078Y-351449D01*
X169743D01*
X173309Y-344450D02*
X172310Y-344784D01*
X171643Y-345783D01*
X171310Y-347450D01*
Y-348449D01*
X171643Y-350116D01*
X172310Y-351116D01*
X173309Y-351449D01*
X173976D01*
X174976Y-351116D01*
X175642Y-350116D01*
X175975Y-348449D01*
Y-347450D01*
X175642Y-345783D01*
X174976Y-344784D01*
X173976Y-344450D01*
X173309D01*
X177542Y-345783D02*
X178208Y-345450D01*
X179208Y-344450D01*
Y-351449D01*
X186673Y-345450D02*
X186340Y-344784D01*
X185340Y-344450D01*
X184674D01*
X183674Y-344784D01*
X183007Y-345783D01*
X182674Y-347450D01*
Y-349116D01*
X183007Y-350449D01*
X183674Y-351116D01*
X184674Y-351449D01*
X185007D01*
X186006Y-351116D01*
X186673Y-350449D01*
X187006Y-349449D01*
Y-349116D01*
X186673Y-348116D01*
X186006Y-347450D01*
X185007Y-347116D01*
X184674D01*
X183674Y-347450D01*
X183007Y-348116D01*
X182674Y-349116D01*
X136850Y-378116D02*
X139850D01*
X140849Y-377783D01*
X141183Y-377450D01*
X141516Y-376783D01*
Y-375783D01*
X141183Y-375117D01*
X140849Y-374784D01*
X139850Y-374450D01*
X136850D01*
Y-381449D01*
X148081Y-376117D02*
X147748Y-375450D01*
X147081Y-374784D01*
X146415Y-374450D01*
X145082D01*
X144415Y-374784D01*
X143749Y-375450D01*
X143416Y-376117D01*
X143082Y-377116D01*
Y-378783D01*
X143416Y-379783D01*
X143749Y-380449D01*
X144415Y-381116D01*
X145082Y-381449D01*
X146415D01*
X147081Y-381116D01*
X147748Y-380449D01*
X148081Y-379783D01*
X150048Y-374450D02*
Y-381449D01*
Y-374450D02*
X153047D01*
X154047Y-374784D01*
X154380Y-375117D01*
X154713Y-375783D01*
Y-376450D01*
X154380Y-377116D01*
X154047Y-377450D01*
X153047Y-377783D01*
X150048D02*
X153047D01*
X154047Y-378116D01*
X154380Y-378450D01*
X154713Y-379116D01*
Y-380116D01*
X154380Y-380782D01*
X154047Y-381116D01*
X153047Y-381449D01*
X150048D01*
X156280Y-383782D02*
X161612D01*
X164844Y-374450D02*
Y-381449D01*
X162512Y-374450D02*
X167177D01*
X168010Y-378783D02*
X172010D01*
Y-378116D01*
X171676Y-377450D01*
X171343Y-377116D01*
X170677Y-376783D01*
X169677D01*
X169010Y-377116D01*
X168344Y-377783D01*
X168010Y-378783D01*
Y-379449D01*
X168344Y-380449D01*
X169010Y-381116D01*
X169677Y-381449D01*
X170677D01*
X171343Y-381116D01*
X172010Y-380449D01*
X177175Y-377783D02*
X176842Y-377116D01*
X175842Y-376783D01*
X174842D01*
X173843Y-377116D01*
X173509Y-377783D01*
X173843Y-378450D01*
X174509Y-378783D01*
X176175Y-379116D01*
X176842Y-379449D01*
X177175Y-380116D01*
Y-380449D01*
X176842Y-381116D01*
X175842Y-381449D01*
X174842D01*
X173843Y-381116D01*
X173509Y-380449D01*
X179641Y-374450D02*
Y-380116D01*
X179974Y-381116D01*
X180641Y-381449D01*
X181307D01*
X178641Y-376783D02*
X180974D01*
X182307D02*
Y-383782D01*
Y-377783D02*
X182974Y-377116D01*
X183640Y-376783D01*
X184640D01*
X185307Y-377116D01*
X185973Y-377783D01*
X186306Y-378783D01*
Y-379449D01*
X185973Y-380449D01*
X185307Y-381116D01*
X184640Y-381449D01*
X183640D01*
X182974Y-381116D01*
X182307Y-380449D01*
X187806Y-374450D02*
Y-381449D01*
X193272Y-376783D02*
Y-381449D01*
Y-377783D02*
X192605Y-377116D01*
X191939Y-376783D01*
X190939D01*
X190272Y-377116D01*
X189606Y-377783D01*
X189272Y-378783D01*
Y-379449D01*
X189606Y-380449D01*
X190272Y-381116D01*
X190939Y-381449D01*
X191939D01*
X192605Y-381116D01*
X193272Y-380449D01*
X196138Y-374450D02*
Y-380116D01*
X196471Y-381116D01*
X197137Y-381449D01*
X197804D01*
X195138Y-376783D02*
X197471D01*
X199470Y-374450D02*
X199804Y-374784D01*
X200137Y-374450D01*
X199804Y-374117D01*
X199470Y-374450D01*
X199804Y-376783D02*
Y-381449D01*
X201370Y-376783D02*
Y-381449D01*
Y-378116D02*
X202370Y-377116D01*
X203036Y-376783D01*
X204036D01*
X204702Y-377116D01*
X205036Y-378116D01*
Y-381449D01*
X206869Y-378783D02*
X210868D01*
Y-378116D01*
X210535Y-377450D01*
X210201Y-377116D01*
X209535Y-376783D01*
X208535D01*
X207869Y-377116D01*
X207202Y-377783D01*
X206869Y-378783D01*
Y-379449D01*
X207202Y-380449D01*
X207869Y-381116D01*
X208535Y-381449D01*
X209535D01*
X210201Y-381116D01*
X210868Y-380449D01*
X212701Y-380782D02*
X212368Y-381116D01*
X212701Y-381449D01*
X213034Y-381116D01*
X212701Y-380782D01*
X214567Y-378116D02*
X217566D01*
X218566Y-377783D01*
X218899Y-377450D01*
X219233Y-376783D01*
Y-375783D01*
X218899Y-375117D01*
X218566Y-374784D01*
X217566Y-374450D01*
X214567D01*
Y-381449D01*
X224798Y-377783D02*
X224132Y-377116D01*
X223465Y-376783D01*
X222465D01*
X221799Y-377116D01*
X221132Y-377783D01*
X220799Y-378783D01*
Y-379449D01*
X221132Y-380449D01*
X221799Y-381116D01*
X222465Y-381449D01*
X223465D01*
X224132Y-381116D01*
X224798Y-380449D01*
X226298Y-374450D02*
Y-381449D01*
Y-377783D02*
X226964Y-377116D01*
X227631Y-376783D01*
X228631D01*
X229297Y-377116D01*
X229964Y-377783D01*
X230297Y-378783D01*
Y-379449D01*
X229964Y-380449D01*
X229297Y-381116D01*
X228631Y-381449D01*
X227631D01*
X226964Y-381116D01*
X226298Y-380449D01*
X231797Y-374450D02*
Y-381449D01*
Y-374450D02*
X234130D01*
X235129Y-374784D01*
X235796Y-375450D01*
X236129Y-376117D01*
X236462Y-377116D01*
Y-378783D01*
X236129Y-379783D01*
X235796Y-380449D01*
X235129Y-381116D01*
X234130Y-381449D01*
X231797D01*
X239695Y-376783D02*
X239029Y-377116D01*
X238362Y-377783D01*
X238029Y-378783D01*
Y-379449D01*
X238362Y-380449D01*
X239029Y-381116D01*
X239695Y-381449D01*
X240695D01*
X241361Y-381116D01*
X242028Y-380449D01*
X242361Y-379449D01*
Y-378783D01*
X242028Y-377783D01*
X241361Y-377116D01*
X240695Y-376783D01*
X239695D01*
X247893Y-377783D02*
X247227Y-377116D01*
X246560Y-376783D01*
X245560D01*
X244894Y-377116D01*
X244227Y-377783D01*
X243894Y-378783D01*
Y-379449D01*
X244227Y-380449D01*
X244894Y-381116D01*
X245560Y-381449D01*
X246560D01*
X247227Y-381116D01*
X247893Y-380449D01*
M02*
