G04 Layer_Color=16711935*
%FSLAX25Y25*%
%MOIN*%
G70*
G01*
G75*
%ADD85C,0.00394*%
D85*
X-51772Y35827D02*
G03*
X-51772Y35827I-1969J0D01*
G01*
X-5000Y213543D02*
G03*
X-5000Y213543I-1969J0D01*
G01*
X178274Y121383D02*
G03*
X178274Y121383I-1969J0D01*
G01*
X185044Y-109247D02*
G03*
X185044Y-109247I-1969J0D01*
G01*
X8779Y-213740D02*
G03*
X8779Y-213740I-1969J0D01*
G01*
X-181974Y108932D02*
G03*
X-181974Y108932I-1969J0D01*
G01*
X-174336Y-121309D02*
G03*
X-174336Y-121309I-1969J0D01*
G01*
X57480Y95098D02*
Y98839D01*
X64173Y95098D02*
Y98839D01*
X57480D02*
X64173D01*
X57480Y95098D02*
X64173D01*
X57520Y90295D02*
Y94035D01*
X64213Y90295D02*
Y94035D01*
X57520D02*
X64213D01*
X57520Y90295D02*
X64213D01*
X57559Y85492D02*
Y89232D01*
X64252Y85492D02*
Y89232D01*
X57559D02*
X64252D01*
X57559Y85492D02*
X64252D01*
X57598Y78799D02*
Y82539D01*
X64291Y78799D02*
Y82539D01*
X57598D02*
X64291D01*
X57598Y78799D02*
X64291D01*
X51850Y101201D02*
Y106516D01*
X43583Y101201D02*
Y106516D01*
Y101201D02*
X51850D01*
X43583Y106516D02*
X51850D01*
X51811Y93484D02*
Y98799D01*
X43543Y93484D02*
Y98799D01*
Y93484D02*
X51811D01*
X43543Y98799D02*
X51811D01*
X51772Y85689D02*
Y91004D01*
X43504Y85689D02*
Y91004D01*
Y85689D02*
X51772D01*
X43504Y91004D02*
X51772D01*
X51732Y77933D02*
Y83248D01*
X43465Y77933D02*
Y83248D01*
Y77933D02*
X51732D01*
X43465Y83248D02*
X51732D01*
X-57283Y-39370D02*
X21457D01*
X-57283Y39370D02*
X21457D01*
Y-39370D02*
Y39370D01*
X-57283Y-39370D02*
Y39370D01*
X17224Y-54527D02*
X20965D01*
X17224Y-47835D02*
X20965D01*
X17224Y-54527D02*
Y-47835D01*
X20965Y-54527D02*
Y-47835D01*
X48917Y-52559D02*
X52658D01*
X48917Y-59252D02*
X52658D01*
Y-52559D01*
X48917Y-59252D02*
Y-52559D01*
X44291Y-46752D02*
Y-43012D01*
X50984Y-46752D02*
Y-43012D01*
X44291D02*
X50984D01*
X44291Y-46752D02*
X50984D01*
X22146Y-54527D02*
X25886D01*
X22146Y-47835D02*
X25886D01*
X22146Y-54527D02*
Y-47835D01*
X25886Y-54527D02*
Y-47835D01*
X11024Y-82185D02*
Y-78445D01*
X17717Y-82185D02*
Y-78445D01*
X11024D02*
X17717D01*
X11024Y-82185D02*
X17717D01*
X75433Y37461D02*
Y41201D01*
X82126Y37461D02*
Y41201D01*
X75433D02*
X82126D01*
X75433Y37461D02*
X82126D01*
X92638Y37461D02*
Y41201D01*
X85945Y37461D02*
Y41201D01*
Y37461D02*
X92638D01*
X85945Y41201D02*
X92638D01*
X-81595Y5315D02*
X-77854D01*
X-81595Y-1378D02*
X-77854D01*
Y5315D01*
X-81595Y-1378D02*
Y5315D01*
X-76673Y7283D02*
X-72933D01*
X-76673Y591D02*
X-72933D01*
Y7283D01*
X-76673Y591D02*
Y7283D01*
X-35020Y109744D02*
X-31280D01*
X-35020Y103051D02*
X-31280D01*
Y109744D01*
X-35020Y103051D02*
Y109744D01*
X29429Y-4527D02*
X33169D01*
X29429Y2165D02*
X33169D01*
X29429Y-4527D02*
Y2165D01*
X33169Y-4527D02*
Y2165D01*
X62264Y38721D02*
Y40099D01*
X64823Y38721D02*
Y40099D01*
X62264D02*
X64823D01*
X62264Y38721D02*
X64823D01*
X41043Y-98130D02*
Y-96752D01*
X38484Y-98130D02*
Y-96752D01*
Y-98130D02*
X41043D01*
X38484Y-96752D02*
X41043D01*
X-78445Y11122D02*
Y12500D01*
X-81004Y11122D02*
Y12500D01*
Y11122D02*
X-78445D01*
X-81004Y12500D02*
X-78445D01*
X22047Y-83071D02*
Y-78346D01*
Y-83071D02*
X25197D01*
Y-78346D01*
X22047D02*
X25197D01*
X3740Y-59842D02*
Y-55118D01*
X591D02*
X3740D01*
X591Y-59842D02*
Y-55118D01*
Y-59842D02*
X3740D01*
X-84252Y-12007D02*
X-81102D01*
Y-5708D01*
X-84252D02*
X-81102D01*
X-84252Y-12007D02*
Y-5708D01*
X-79331Y-12007D02*
X-76181D01*
Y-5708D01*
X-79331D02*
X-76181D01*
X-79331Y-12007D02*
Y-5708D01*
X7992Y-76378D02*
Y-62992D01*
X15079Y-76378D02*
Y-62992D01*
X7992Y-76378D02*
X15079D01*
X7992Y-62992D02*
X15079D01*
X16142Y-92323D02*
X29528D01*
X16142Y-85236D02*
X29528D01*
Y-92323D02*
Y-85236D01*
X16142Y-92323D02*
Y-85236D01*
X57284Y-97441D02*
Y-84055D01*
X50197Y-97441D02*
Y-84055D01*
X57284D01*
X50197Y-97441D02*
X57284D01*
X34449Y-86811D02*
X47835D01*
X34449Y-93898D02*
X47835D01*
X34449D02*
Y-86811D01*
X47835Y-93898D02*
Y-86811D01*
X61614Y-54311D02*
Y-51949D01*
X57284Y-54311D02*
Y-51949D01*
Y-54311D02*
X61614D01*
X57284Y-51949D02*
X61614D01*
X50591Y-66732D02*
X52953D01*
X50591Y-71063D02*
X52953D01*
Y-66732D01*
X50591Y-71063D02*
Y-66732D01*
X18110Y-100787D02*
X31496D01*
X18110Y-93701D02*
X31496D01*
Y-100787D02*
Y-93701D01*
X18110Y-100787D02*
Y-93701D01*
X60433Y-91339D02*
X62795D01*
X60433Y-87008D02*
X62795D01*
X60433Y-91339D02*
Y-87008D01*
X62795Y-91339D02*
Y-87008D01*
X28543Y-44094D02*
X30906D01*
X28543Y-48425D02*
X30906D01*
Y-44094D01*
X28543Y-48425D02*
Y-44094D01*
X-52539Y60630D02*
X-39154D01*
X-52539Y53543D02*
X-39154D01*
X-52539D02*
Y60630D01*
X-39154Y53543D02*
Y60630D01*
X-54193Y98858D02*
X-40807D01*
X-54193Y91772D02*
X-40807D01*
X-54193D02*
Y98858D01*
X-40807Y91772D02*
Y98858D01*
X-89016Y-28386D02*
X-84685D01*
X-89016Y-26024D02*
X-84685D01*
Y-28386D02*
Y-26024D01*
X-89016Y-28386D02*
Y-26024D01*
X-90394Y-22362D02*
Y-18032D01*
X-88032Y-22362D02*
Y-18032D01*
X-90394Y-22362D02*
X-88032D01*
X-90394Y-18032D02*
X-88032D01*
X36220Y984D02*
X40551D01*
X36220Y3346D02*
X40551D01*
Y984D02*
Y3346D01*
X36220Y984D02*
Y3346D01*
X39764Y-12402D02*
X44094D01*
X39764Y-14764D02*
X44094D01*
X39764D02*
Y-12402D01*
X44094Y-14764D02*
Y-12402D01*
X-19095Y49016D02*
Y53346D01*
X-16732Y49016D02*
Y53346D01*
X-19095Y49016D02*
X-16732D01*
X-19095Y53346D02*
X-16732D01*
X30709Y-13583D02*
Y-9252D01*
X28346Y-13583D02*
Y-9252D01*
X30709D01*
X28346Y-13583D02*
X30709D01*
X-13583Y-51772D02*
X-9252D01*
X-13583Y-49409D02*
X-9252D01*
Y-51772D02*
Y-49409D01*
X-13583Y-51772D02*
Y-49409D01*
X-72244Y-3937D02*
X-67913D01*
X-72244Y-1575D02*
X-67913D01*
Y-3937D02*
Y-1575D01*
X-72244Y-3937D02*
Y-1575D01*
Y-7480D02*
X-67913D01*
X-72244Y-5118D02*
X-67913D01*
Y-7480D02*
Y-5118D01*
X-72244Y-7480D02*
Y-5118D01*
X-13583Y-48228D02*
X-9252D01*
X-13583Y-45866D02*
X-9252D01*
Y-48228D02*
Y-45866D01*
X-13583Y-48228D02*
Y-45866D01*
X32677Y-19685D02*
X37008D01*
X32677Y-17323D02*
X37008D01*
Y-19685D02*
Y-17323D01*
X32677Y-19685D02*
Y-17323D01*
X-15158Y49016D02*
Y53346D01*
X-12795Y49016D02*
Y53346D01*
X-15158Y49016D02*
X-12795D01*
X-15158Y53346D02*
X-12795D01*
X-48091Y110394D02*
X-39823D01*
X-48091Y105079D02*
X-39823D01*
X-48091D02*
Y110394D01*
X-39823Y105079D02*
Y110394D01*
X43504Y75492D02*
X51772D01*
X43504Y70177D02*
X51772D01*
X43504D02*
Y75492D01*
X51772Y70177D02*
Y75492D01*
X43544Y67892D02*
X51811D01*
X43544Y62577D02*
X51811D01*
X43544D02*
Y67892D01*
X51811Y62577D02*
Y67892D01*
X43543Y60335D02*
X51811D01*
X43543Y55020D02*
X51811D01*
X43543D02*
Y60335D01*
X51811Y55020D02*
Y60335D01*
X57598Y71004D02*
X64291D01*
X57598Y74744D02*
X64291D01*
Y71004D02*
Y74744D01*
X57598Y71004D02*
Y74744D01*
X57677Y66083D02*
X64370D01*
X57677Y69823D02*
X64370D01*
Y66083D02*
Y69823D01*
X57677Y66083D02*
Y69823D01*
Y61043D02*
X64370D01*
X57677Y64784D02*
X64370D01*
Y61043D02*
Y64784D01*
X57677Y61043D02*
Y64784D01*
X64527Y43150D02*
Y56536D01*
X71614Y43150D02*
Y56536D01*
X64527Y43150D02*
X71614D01*
X64527Y56536D02*
X71614D01*
X72520Y43228D02*
Y56614D01*
X79606Y43228D02*
Y56614D01*
X72520Y43228D02*
X79606D01*
X72520Y56614D02*
X79606D01*
X-10512Y178504D02*
X7205D01*
X-10512Y217087D02*
X7205D01*
Y178504D02*
Y217087D01*
X-10512D02*
X-10512Y178504D01*
X16909Y206457D02*
X20650D01*
X16909Y213149D02*
X20650D01*
X16909Y206457D02*
Y213149D01*
X20650Y206457D02*
X20650Y213149D01*
X-25964Y213346D02*
X-22224D01*
X-25964Y206654D02*
X-22224D01*
X-22224Y213346D01*
X-25964Y206654D02*
Y213346D01*
X-26358Y193268D02*
X-22618D01*
X-26358Y199960D02*
X-22618Y199960D01*
X-26358Y193268D02*
Y199960D01*
X-22618Y193268D02*
Y199960D01*
X2579Y230964D02*
Y234705D01*
X-4311Y230964D02*
Y234705D01*
Y230964D02*
X2579D01*
X-4311Y234705D02*
X2579D01*
X10531Y226594D02*
X14272D01*
X10531Y233484D02*
X14272D01*
X10531Y226594D02*
Y233484D01*
X14272Y226594D02*
Y233484D01*
X5374Y232264D02*
X9114D01*
X5374Y239154D02*
X9114Y239154D01*
X5374Y232264D02*
Y239154D01*
X9114Y232264D02*
Y239154D01*
X6516Y218760D02*
Y222500D01*
X-374Y218760D02*
Y222500D01*
Y218760D02*
X6516D01*
X-374Y222500D02*
X6516D01*
X-2559Y236653D02*
Y240984D01*
X-4921Y236653D02*
Y240984D01*
X-2559D01*
X-4921Y236653D02*
X-2559D01*
X17717Y228622D02*
Y232953D01*
X15354Y228622D02*
Y232953D01*
X17717Y232953D01*
X15354Y228622D02*
X17717D01*
X-3819Y227323D02*
X512D01*
X-3819Y229685D02*
X512D01*
Y227323D02*
Y229685D01*
X-3819Y227323D02*
Y229685D01*
X-3819Y226142D02*
X512D01*
X-3819Y223780D02*
X512D01*
X-3819D02*
Y226142D01*
X512Y223780D02*
Y226142D01*
X4646Y228701D02*
X4646Y224370D01*
X7008D02*
Y228701D01*
X4646Y224370D02*
X7008D01*
X4646Y228701D02*
X7008D01*
X-3819Y158425D02*
X512Y158425D01*
X-3819Y156063D02*
X512D01*
X-3819D02*
Y158425D01*
X512Y156063D02*
X512Y158425D01*
X6614Y167677D02*
X6614Y163346D01*
X8976D02*
Y167677D01*
X6614Y163346D02*
X8976D01*
X6614Y167677D02*
X8976D01*
X-5787Y174567D02*
X-1457D01*
X-5787Y176929D02*
X-1457Y176929D01*
Y174567D02*
Y176929D01*
X-5787Y174567D02*
Y176929D01*
X15630Y199173D02*
Y203504D01*
X17992Y199173D02*
Y203504D01*
X15630Y199173D02*
X17992Y199173D01*
X15630Y203504D02*
X17992D01*
X-20157Y208228D02*
Y212559D01*
X-17795Y208228D02*
Y212559D01*
X-20157Y208228D02*
X-17795D01*
X-20157Y212559D02*
X-17795D01*
X-20551Y194449D02*
Y198780D01*
X-18189Y194449D02*
Y198780D01*
X-20551Y194449D02*
X-18189D01*
X-20551Y198780D02*
X-18189D01*
X156728Y125764D02*
X157909Y123718D01*
X152978Y123598D02*
X154159Y121553D01*
X157909Y123718D01*
X152978Y123598D02*
X156728Y125764D01*
X175900Y-92148D02*
X177081Y-90102D01*
X172150Y-89983D02*
X173331Y-87937D01*
X172150Y-89983D02*
X175900Y-92148D01*
X173331Y-87937D02*
X177081Y-90102D01*
X18032Y-198976D02*
X20394D01*
X18032Y-194646D02*
X20394D01*
X18032D02*
X18032Y-198976D01*
X20394D02*
Y-194646D01*
X-177947Y89787D02*
X-176766Y91833D01*
X-174197Y87622D02*
X-173016Y89668D01*
X-176766Y91833D02*
X-173016Y89668D01*
X-177947Y89787D02*
X-174197Y87622D01*
X168858Y132313D02*
X170039Y130267D01*
X165108Y130147D02*
X166289Y128102D01*
X170039Y130267D01*
X165108Y130147D02*
X168858Y132313D01*
X187637Y-99379D02*
X188818Y-97333D01*
X183886Y-97213D02*
X185067Y-95168D01*
X183886Y-97213D02*
X187637Y-99379D01*
X185067Y-95168D02*
X188818Y-97333D01*
X17638Y-212756D02*
X20000Y-212756D01*
X17638Y-208425D02*
X20000D01*
X17638Y-212756D02*
Y-208425D01*
X20000Y-212756D02*
Y-208425D01*
X-189684Y97018D02*
X-188503Y99064D01*
X-185934Y94853D02*
X-184753Y96898D01*
X-188503Y99064D02*
X-184753Y96898D01*
X-189684Y97018D02*
X-185934Y94853D01*
X178910Y96792D02*
X180091Y94747D01*
X175160Y94627D02*
X176341Y92581D01*
X180091Y94747D01*
X175160Y94627D02*
X178910Y96792D01*
X161901Y-125844D02*
X163082Y-123798D01*
X158151Y-123679D02*
X159332Y-121633D01*
X158151Y-123679D02*
X161901Y-125844D01*
X159332Y-121633D02*
X163082Y-123798D01*
X-18150Y-203701D02*
X-15787D01*
X-18150Y-199370D02*
X-15787Y-199370D01*
X-18150Y-203701D02*
Y-199370D01*
X-15787Y-203701D02*
Y-199370D01*
X-163948Y123483D02*
X-162767Y125529D01*
X-160198Y121318D02*
X-159017Y123364D01*
X-162767Y125529D02*
X-159017Y123364D01*
X-163948Y123483D02*
X-160198Y121318D01*
X143141Y100872D02*
X145187Y102053D01*
X145307Y97121D02*
X147353Y98302D01*
X145187Y102053D02*
X147353Y98302D01*
X143141Y100872D02*
X145307Y97121D01*
X148731Y-90782D02*
X150776Y-91963D01*
X146565Y-94532D02*
X148611Y-95714D01*
X150776Y-91963D01*
X146565Y-94532D02*
X148731Y-90782D01*
X5630Y-177126D02*
Y-174764D01*
X1299Y-177126D02*
Y-174764D01*
Y-177126D02*
X5630D01*
X1299Y-174764D02*
X5630D01*
X-151643Y91648D02*
X-149597Y90467D01*
X-149477Y95398D02*
X-147432Y94217D01*
X-151643Y91648D02*
X-149477Y95398D01*
X-149597Y90467D02*
X-147432Y94217D01*
X143375Y86687D02*
X144556Y84641D01*
X139625Y84521D02*
X140806Y82476D01*
X144556Y84641D01*
X139625Y84521D02*
X143375Y86687D01*
X135382Y-100123D02*
X136563Y-98077D01*
X131632Y-97957D02*
X132813Y-95912D01*
X131632Y-97957D02*
X135382Y-100123D01*
X132813Y-95912D02*
X136563Y-98077D01*
X-9134Y-167874D02*
X-6772D01*
X-9134Y-163543D02*
X-6772Y-163543D01*
X-9134Y-167874D02*
Y-163543D01*
X-6772Y-167874D02*
X-6772Y-163543D01*
X-137429Y97762D02*
X-136248Y99808D01*
X-133679Y95597D02*
X-132498Y97642D01*
X-136248Y99808D02*
X-132498Y97642D01*
X-137429Y97762D02*
X-133679Y95597D01*
X130266Y86164D02*
X132312Y87346D01*
X128101Y89915D02*
X130146Y91096D01*
X128101Y89915D02*
X130266Y86164D01*
X130146Y91096D02*
X132312Y87346D01*
X129556Y-86985D02*
X131602Y-88166D01*
X131722Y-83235D02*
X133767Y-84416D01*
X129556Y-86985D02*
X131722Y-83235D01*
X131602Y-88166D02*
X133767Y-84416D01*
X-669Y-156260D02*
X-669Y-158622D01*
X3661D02*
Y-156260D01*
X-669D02*
X3661D01*
X-669Y-158622D02*
X3661D01*
X-132468Y87851D02*
X-130422Y86670D01*
X-134634Y84101D02*
X-132588Y82920D01*
X-130422Y86670D01*
X-134634Y84101D02*
X-132468Y87851D01*
X195239Y118903D02*
X196420Y116858D01*
X191489Y116738D02*
X192670Y114692D01*
X196420Y116858D01*
X191489Y116738D02*
X195239Y118903D01*
X189214Y-128930D02*
X190395Y-126884D01*
X185464Y-126764D02*
X186645Y-124719D01*
X185464Y-126764D02*
X189214Y-128930D01*
X186645Y-124719D02*
X190395Y-126884D01*
X-7165Y-228898D02*
X-4803D01*
X-7165Y-224567D02*
X-4803D01*
X-7165Y-228898D02*
Y-224567D01*
X-4803Y-228898D02*
X-4803Y-224567D01*
X-191262Y126569D02*
X-190080Y128615D01*
X-187511Y124404D02*
X-186330Y126449D01*
X-190080Y128615D02*
X-186330Y126449D01*
X-191262Y126569D02*
X-187511Y124404D01*
X188910Y120023D02*
X190956Y121204D01*
X186745Y123773D02*
X188791Y124954D01*
X186745Y123773D02*
X188910Y120023D01*
X188791Y124954D02*
X190956Y121204D01*
X188200Y-120843D02*
X190246Y-122024D01*
X190366Y-117093D02*
X192412Y-118274D01*
X188200Y-120843D02*
X190366Y-117093D01*
X190246Y-122024D02*
X192412Y-118274D01*
X-669Y-226339D02*
Y-223976D01*
X3661Y-226339D02*
Y-223976D01*
X-669D02*
X3661D01*
X-669Y-226339D02*
X3661Y-226339D01*
X-191112Y121709D02*
X-189067Y120528D01*
X-193278Y117959D02*
X-191232Y116778D01*
X-189067Y120528D01*
X-193278Y117959D02*
X-191112Y121709D01*
X189814Y125545D02*
X191859Y126726D01*
X191979Y121794D02*
X194025Y122975D01*
X191859Y126726D02*
X194025Y122975D01*
X189814Y125545D02*
X191979Y121794D01*
X193434Y-118865D02*
X195480Y-120046D01*
X191269Y-122615D02*
X193315Y-123796D01*
X195480Y-120046D01*
X191269Y-122615D02*
X193434Y-118865D01*
X3661Y-229882D02*
Y-227520D01*
X-669Y-229882D02*
Y-227520D01*
Y-229882D02*
X3661D01*
X-669Y-227520D02*
X3661D01*
X-196346Y119731D02*
X-194301Y118550D01*
X-194181Y123481D02*
X-192135Y122300D01*
X-196346Y119731D02*
X-194181Y123481D01*
X-194301Y118550D02*
X-192135Y122300D01*
X200525Y109590D02*
X201707Y107544D01*
X204276Y111755D02*
X205457Y109710D01*
X200525Y109590D02*
X204276Y111755D01*
X201707Y107544D02*
X205457Y109710D01*
X183792Y-138164D02*
X184973Y-136119D01*
X187542Y-140330D02*
X188724Y-138284D01*
X184973Y-136119D02*
X188724Y-138284D01*
X183792Y-138164D02*
X187542Y-140330D01*
X-17874Y-228819D02*
X-15512D01*
X-17874Y-233150D02*
X-15512Y-233150D01*
Y-228819D01*
X-17874Y-233150D02*
Y-228819D01*
X-185839Y135804D02*
X-184658Y137849D01*
X-189590Y137969D02*
X-188409Y140015D01*
X-189590Y137969D02*
X-185839Y135804D01*
X-188409Y140015D02*
X-184658Y137849D01*
X197343Y131165D02*
X198524Y129119D01*
X201094Y133330D02*
X202275Y131285D01*
X197343Y131165D02*
X201094Y133330D01*
X198524Y129119D02*
X202275Y131285D01*
X200885Y-124621D02*
X202066Y-122575D01*
X204636Y-126786D02*
X205817Y-124741D01*
X202066Y-122575D02*
X205817Y-124741D01*
X200885Y-124621D02*
X204636Y-126786D01*
X2402Y-236851D02*
X4764D01*
X2402Y-241181D02*
X4764D01*
Y-236851D01*
X2402Y-241181D02*
Y-236851D01*
X-202933Y122260D02*
X-201751Y124306D01*
X-206683Y124426D02*
X-205502Y126471D01*
X-206683Y124426D02*
X-202933Y122260D01*
X-205502Y126471D02*
X-201751Y124306D01*
X187565Y112313D02*
X190804Y114183D01*
X184120Y118280D02*
X187359Y120150D01*
X184120Y118280D02*
X187565Y112313D01*
X187359Y120150D02*
X190804Y114183D01*
X180851Y-123533D02*
X184090Y-125403D01*
X184296Y-117566D02*
X187535Y-119437D01*
X180851Y-123533D02*
X184296Y-117566D01*
X184090Y-125403D02*
X187535Y-119437D01*
X-6673Y-222697D02*
Y-218957D01*
X216Y-222697D02*
Y-218957D01*
X-6673Y-218957D02*
X216Y-218957D01*
X-6673Y-222697D02*
X216D01*
X-184957Y125088D02*
X-181718Y123218D01*
X-188401Y119122D02*
X-185162Y117251D01*
X-181718Y123218D01*
X-188401Y119122D02*
X-184957Y125088D01*
X198689Y120054D02*
X200559Y116815D01*
X204656Y123499D02*
X206526Y120260D01*
X198689Y120054D02*
X204656Y123499D01*
X200559Y116815D02*
X206526Y120260D01*
X191247Y-132535D02*
X193117Y-129296D01*
X197214Y-135980D02*
X199084Y-132741D01*
X193117Y-129296D02*
X199084Y-132741D01*
X191247Y-132535D02*
X197214Y-135980D01*
X-9272Y-232461D02*
X-5531D01*
X-9272Y-239350D02*
X-5531D01*
Y-232461D01*
X-9272Y-239350D02*
Y-232461D01*
X-193983Y128981D02*
X-192113Y132220D01*
X-199950Y132426D02*
X-198080Y135665D01*
X-199950Y132426D02*
X-193983Y128981D01*
X-198080Y135665D02*
X-192113Y132220D01*
X196358Y112753D02*
X198228Y109514D01*
X202325Y116198D02*
X204195Y112959D01*
X196358Y112753D02*
X202325Y116198D01*
X198228Y109514D02*
X204195Y112959D01*
X183758Y-134167D02*
X185628Y-130928D01*
X189725Y-137612D02*
X191595Y-134373D01*
X185628Y-130928D02*
X191595Y-134373D01*
X183758Y-134167D02*
X189725Y-137612D01*
X-14429Y-226791D02*
X-10689Y-226791D01*
X-14429Y-233681D02*
X-10689D01*
Y-226791D01*
X-14429Y-233681D02*
Y-226791D01*
X-186495Y130613D02*
X-184625Y133852D01*
X-192461Y134058D02*
X-190591Y137297D01*
X-192461Y134058D02*
X-186495Y130613D01*
X-190591Y137297D02*
X-184625Y133852D01*
X196166Y121825D02*
X199405Y123695D01*
X192721Y127792D02*
X195960Y129662D01*
X192721Y127792D02*
X196166Y121825D01*
X195960Y129662D02*
X199405Y123695D01*
X193389Y-126226D02*
X196628Y-128096D01*
X196834Y-120259D02*
X200073Y-122129D01*
X193389Y-126226D02*
X196834Y-120259D01*
X196628Y-128096D02*
X200073Y-122129D01*
X-2736Y-234901D02*
Y-231161D01*
X4154D02*
X4154Y-234901D01*
X-2736Y-231161D02*
X4154D01*
X-2736Y-234901D02*
X4154D01*
X-197495Y127781D02*
X-194256Y125911D01*
X-200940Y121814D02*
X-197701Y119944D01*
X-194256Y125911D01*
X-200940Y121814D02*
X-197495Y127781D01*
X150921Y124798D02*
X156718Y128144D01*
X149051Y128037D02*
X154848Y131384D01*
X156718Y128144D01*
X149051Y128037D02*
X150921Y124798D01*
X173342Y-85556D02*
X179138Y-88903D01*
X175212Y-82317D02*
X181008Y-85664D01*
X179138Y-88903D02*
X181008Y-85664D01*
X173342Y-85556D02*
X175212Y-82317D01*
X22461Y-200157D02*
Y-193465D01*
X26201Y-200157D02*
Y-193465D01*
X22461Y-200157D02*
X26201D01*
X22461Y-193465D02*
X26201D01*
X-180004Y88588D02*
X-174208Y85241D01*
X-181874Y85349D02*
X-176078Y82002D01*
X-181874Y85349D02*
X-180004Y88588D01*
X-176078Y82002D02*
X-174208Y85241D01*
X160841Y134389D02*
X166637Y137735D01*
X162711Y131150D02*
X168507Y134496D01*
X160841Y134389D02*
X162711Y131150D01*
X166637Y137735D02*
X168507Y134496D01*
X186607Y-89351D02*
X192403Y-92698D01*
X184737Y-92590D02*
X190533Y-95937D01*
X184737Y-92590D02*
X186607Y-89351D01*
X190533Y-95937D02*
X192403Y-92698D01*
X25807Y-213543D02*
Y-206850D01*
X22067Y-213543D02*
Y-206850D01*
X25807D01*
X22067Y-213543D02*
X25807D01*
X-193270Y92383D02*
X-187473Y89036D01*
X-191400Y95622D02*
X-185603Y92275D01*
X-187473Y89036D02*
X-185603Y92275D01*
X-193270Y92383D02*
X-191400Y95622D01*
X183977Y93922D02*
X189773Y97268D01*
X182107Y97161D02*
X187903Y100507D01*
X189773Y97268D01*
X182107Y97161D02*
X183977Y93922D01*
X163130Y-129622D02*
X168926Y-132968D01*
X165000Y-126383D02*
X170796Y-129729D01*
X168926Y-132968D02*
X170796Y-129729D01*
X163130Y-129622D02*
X165000Y-126383D01*
X-20807Y-213346D02*
Y-206653D01*
X-17067Y-213346D02*
Y-206653D01*
X-20807Y-213346D02*
X-17067D01*
X-20807Y-206653D02*
X-17067D01*
X-169792Y132653D02*
X-163996Y129307D01*
X-171662Y129414D02*
X-165866Y126068D01*
X-171662Y129414D02*
X-169792Y132653D01*
X-165866Y126068D02*
X-163996Y129307D01*
X144189Y106932D02*
X177602Y126223D01*
X153047Y91589D02*
X186461Y110880D01*
X177602Y126223D02*
X186461Y110880D01*
X144189Y106932D02*
X153047Y91589D01*
X154502Y-88659D02*
X187916Y-107950D01*
X145644Y-104002D02*
X179058Y-123293D01*
X187916Y-107950D01*
X145644Y-104002D02*
X154502Y-88659D01*
X10354Y-217283D02*
Y-178701D01*
X-7362Y-217283D02*
Y-178701D01*
Y-217283D02*
X10354D01*
X-7362Y-178701D02*
X10354D01*
X-188782Y107635D02*
X-155369Y88344D01*
X-179924Y122978D02*
X-146510Y103687D01*
X-188782Y107635D02*
X-179924Y122978D01*
X-155369Y88344D02*
X-146510Y103687D01*
X-157908Y-123644D02*
X-156727Y-125690D01*
X-154158Y-121479D02*
X-152977Y-123524D01*
X-157908Y-123644D02*
X-154158Y-121479D01*
X-156727Y-125690D02*
X-152977Y-123524D01*
X-170038Y-130193D02*
X-168857Y-132238D01*
X-166288Y-128027D02*
X-165107Y-130073D01*
X-170038Y-130193D02*
X-166288Y-128027D01*
X-168857Y-132238D02*
X-165107Y-130073D01*
X-180090Y-94672D02*
X-178909Y-96718D01*
X-176340Y-92507D02*
X-175159Y-94553D01*
X-180090Y-94672D02*
X-176340Y-92507D01*
X-178909Y-96718D02*
X-175159Y-94553D01*
X-145186Y-101979D02*
X-143140Y-100797D01*
X-147351Y-98228D02*
X-145306Y-97047D01*
X-147351Y-98228D02*
X-145186Y-101979D01*
X-145306Y-97047D02*
X-143140Y-100797D01*
X-144555Y-84567D02*
X-143374Y-86613D01*
X-140805Y-82402D02*
X-139624Y-84447D01*
X-144555Y-84567D02*
X-140805Y-82402D01*
X-143374Y-86613D02*
X-139624Y-84447D01*
X-132311Y-87271D02*
X-130265Y-86090D01*
X-130145Y-91022D02*
X-128100Y-89841D01*
X-130265Y-86090D02*
X-128100Y-89841D01*
X-132311Y-87271D02*
X-130145Y-91022D01*
X-196419Y-116783D02*
X-195238Y-118829D01*
X-192669Y-114618D02*
X-191488Y-116664D01*
X-196419Y-116783D02*
X-192669Y-114618D01*
X-195238Y-118829D02*
X-191488Y-116664D01*
X-190955Y-121130D02*
X-188909Y-119949D01*
X-188789Y-124880D02*
X-186744Y-123699D01*
X-188909Y-119949D02*
X-186744Y-123699D01*
X-190955Y-121130D02*
X-188789Y-124880D01*
X-191858Y-126652D02*
X-189812Y-125471D01*
X-194024Y-122901D02*
X-191978Y-121720D01*
X-194024Y-122901D02*
X-191858Y-126652D01*
X-191978Y-121720D02*
X-189812Y-125471D01*
X-201705Y-107470D02*
X-200524Y-109516D01*
X-205456Y-109636D02*
X-204275Y-111681D01*
X-200524Y-109516D01*
X-205456Y-109636D02*
X-201705Y-107470D01*
X-198523Y-129045D02*
X-197342Y-131091D01*
X-202274Y-131211D02*
X-201092Y-133256D01*
X-197342Y-131091D01*
X-202274Y-131211D02*
X-198523Y-129045D01*
X-190803Y-114109D02*
X-187564Y-112239D01*
X-187358Y-120076D02*
X-184119Y-118206D01*
X-187564Y-112239D02*
X-184119Y-118206D01*
X-190803Y-114109D02*
X-187358Y-120076D01*
X-200558Y-116741D02*
X-198688Y-119980D01*
X-206525Y-120186D02*
X-204655Y-123425D01*
X-198688Y-119980D01*
X-206525Y-120186D02*
X-200558Y-116741D01*
X-198227Y-109440D02*
X-196357Y-112679D01*
X-204194Y-112885D02*
X-202324Y-116124D01*
X-196357Y-112679D01*
X-204194Y-112885D02*
X-198227Y-109440D01*
X-199404Y-123621D02*
X-196165Y-121751D01*
X-195959Y-129588D02*
X-192720Y-127718D01*
X-196165Y-121751D02*
X-192720Y-127718D01*
X-199404Y-123621D02*
X-195959Y-129588D01*
X-156716Y-128070D02*
X-150920Y-124724D01*
X-154846Y-131309D02*
X-149050Y-127963D01*
X-156716Y-128070D02*
X-154846Y-131309D01*
X-150920Y-124724D02*
X-149050Y-127963D01*
X-166636Y-137661D02*
X-160839Y-134315D01*
X-168506Y-134422D02*
X-162710Y-131076D01*
X-160839Y-134315D01*
X-168506Y-134422D02*
X-166636Y-137661D01*
X-189772Y-97194D02*
X-183976Y-93847D01*
X-187902Y-100433D02*
X-182106Y-97087D01*
X-189772Y-97194D02*
X-187902Y-100433D01*
X-183976Y-93847D02*
X-182106Y-97087D01*
X-177601Y-126149D02*
X-144188Y-106858D01*
X-186460Y-110806D02*
X-153046Y-91514D01*
X-186460Y-110806D02*
X-177601Y-126149D01*
X-153046Y-91514D02*
X-144188Y-106858D01*
X-52815Y62795D02*
X-38248D01*
X-52815Y89173D02*
X-38248D01*
Y62795D02*
Y89173D01*
X-52815Y62795D02*
Y89173D01*
M02*
